<svg width="166" height="122" viewBox="0 0 166 122" fill="none" xmlns="http://www.w3.org/2000/svg">
<g clip-path="url(#clip0_2_195)">
<path d="M166.002 0.108856H0.0731201V122.001H166.002V0.108856Z" fill="#E6E6E6"/>
<path d="M162.889 11.3243H3.1814V118.906H162.889V11.3243Z" fill="#F6F9FC"/>
<path d="M165.929 0H0V8.08567H165.929V0Z" fill="#626EE3"/>
<path d="M5.23829 5.63243C5.95987 5.63243 6.54482 4.96147 6.54482 4.13381C6.54482 3.30615 5.95987 2.63519 5.23829 2.63519C4.51672 2.63519 3.93176 3.30615 3.93176 4.13381C3.93176 4.96147 4.51672 5.63243 5.23829 5.63243Z" fill="#F6F9FC"/>
<path d="M10.1975 5.63243C10.9191 5.63243 11.504 4.96147 11.504 4.13381C11.504 3.30615 10.9191 2.63519 10.1975 2.63519C9.47594 2.63519 8.89099 3.30615 8.89099 4.13381C8.89099 4.96147 9.47594 5.63243 10.1975 5.63243Z" fill="#F6F9FC"/>
<path d="M15.1567 5.63243C15.8783 5.63243 16.4633 4.96147 16.4633 4.13381C16.4633 3.30615 15.8783 2.63519 15.1567 2.63519C14.4352 2.63519 13.8502 3.30615 13.8502 4.13381C13.8502 4.96147 14.4352 5.63243 15.1567 5.63243Z" fill="#F6F9FC"/>
<path d="M53.071 41.5584C53.071 41.5584 53.6709 51.0515 53.3974 51.6097C53.124 52.1678 58.1999 62.1957 58.1999 62.1957L66.3148 53.4722C66.3148 53.4722 65.8234 41.4051 66.3462 40.8607C66.869 40.3164 53.071 41.5584 53.071 41.5584Z" fill="#A0616A"/>
<path d="M59.9719 48.808C65.2108 48.808 69.4578 43.9366 69.4578 37.9275C69.4578 31.9183 65.2108 27.047 59.9719 27.047C54.7329 27.047 50.486 31.9183 50.486 37.9275C50.486 43.9366 54.7329 48.808 59.9719 48.808Z" fill="#A0616A"/>
<path d="M59.2369 55.3732L58.2636 54.746L53.4613 49.7847C53.4613 49.7847 52.983 49.5801 52.9107 51.296L52.8384 53.012L49.738 55.4202L49.5957 94.3985L71.0388 95.5868L71.9411 56.3639L67.0989 52.6556L66.2116 50.486L60.757 54.8841L59.2369 55.3732Z" fill="#F6F9FC"/>
<path d="M80.5726 59.1353L78.2011 98.8119H42.3919C37.8287 92.6158 34.1841 60.733 38.0733 59.7881C39.3439 59.2842 47.9586 56.1803 47.9586 56.1803C47.9586 56.1803 50.5323 54.3163 51.3535 52.6442C51.8581 51.6489 52.4759 50.7351 53.1908 49.9269L53.1958 49.9212L53.1983 49.9155C53.2183 49.8926 53.2357 49.8696 53.2557 49.8496C53.2596 49.8417 53.2658 49.8356 53.2732 49.8324C53.2981 49.8009 53.3231 49.7723 53.3506 49.7437V49.7866L53.1683 57.0422L60.0281 84.0832C60.0281 84.0832 61.9603 67.8511 63.9224 62.8003C65.0282 59.9542 65.6074 56.4409 65.9019 53.9155C66.1291 51.9599 66.1865 50.5998 66.1865 50.5998C66.1865 50.5998 66.1965 50.6141 66.2139 50.6399V50.6427C66.2139 50.6431 66.214 50.6435 66.2141 50.6439C66.2142 50.6442 66.2144 50.6445 66.2147 50.6448C66.2149 50.6451 66.2152 50.6453 66.2155 50.6454C66.2158 50.6455 66.2161 50.6456 66.2164 50.6456C66.2464 50.6886 66.2938 50.7602 66.3637 50.8575L66.3662 50.8604C66.9404 51.685 68.7826 54.1818 70.0308 54.2505C71.5261 54.3335 75.6324 57.7151 75.6324 57.7151C77.6394 57.5376 80.5726 59.1353 80.5726 59.1353Z" fill="#2F2E41"/>
<path d="M69.0477 89.4565C69.0477 89.4565 71.7495 78.713 75.6907 80.0781C79.6319 81.4432 75.3052 89.23 75.3052 89.23L69.0477 89.4565Z" fill="#A0616A"/>
<path d="M53.3495 98.1833C53.3495 98.1833 44.5402 93.3953 46.3492 89.1533C48.1582 84.9113 54.1619 91.063 54.1619 91.063L53.3495 98.1833Z" fill="#A0616A"/>
<path d="M56.8778 98.8119H54.7635C53.9136 98.5703 53.0516 98.3887 52.1823 98.2679C51.9826 98.2565 51.9177 97.8986 51.9427 97.3316C52.0124 96.3941 52.1468 95.4645 52.3446 94.5514C52.6467 93.0052 53.0511 91.333 53.3107 90.2679V90.265C53.4629 89.6437 53.5628 89.2314 53.5653 89.1712C53.5728 88.9822 54.9557 89.2428 55.9093 89.4432C56.411 89.5492 56.793 89.6379 56.793 89.6379L56.8404 94.8005L56.8778 98.8119Z" fill="#F6F9FC"/>
<path d="M85.0983 94.0731C84.4892 96.0517 84.0498 97.6179 83.6904 98.8119H55.9991C55.9068 97.7181 55.7894 96.2206 55.7145 94.7374C55.5922 92.3638 55.5722 90.0273 55.9093 89.4432C55.9248 89.4102 55.9461 89.3812 55.9719 89.358C55.9977 89.3349 56.0273 89.3181 56.059 89.3086C56.7056 89.1626 64.0097 89.0309 69.182 88.9536C69.9009 88.945 70.5774 88.9364 71.1915 88.9278C73.0562 88.902 74.3193 88.8877 74.3193 88.8877C74.3193 88.8877 74.4192 84.9707 74.7237 79.9772C75.2604 71.1983 76.4337 59.0894 78.8251 59.0379L80.5725 59.1353C80.5725 59.1353 81.5685 59.1897 81.9954 60.9334C82.4223 62.6771 86.8357 88.4353 85.0983 94.0731Z" fill="#2F2E41"/>
<path d="M52.2029 27.7339L50.4367 26.8844C50.4367 26.8844 54.3773 22.7811 59.5914 23.4459L58.1915 21.6772C58.1915 21.6772 61.8502 20.3768 64.9531 24.4946C66.5842 26.6593 68.4698 29.2019 69.5937 32.0108L71.519 32.1175L70.6378 33.9163L73.3726 35.9155L70.4999 35.4245C70.7063 37.0311 70.5428 38.6717 70.0257 40.1834L69.2852 42.2093C69.2852 42.2093 66.9229 36.0656 66.9545 35.3157L66.8755 37.1904C66.8755 37.1904 65.1488 35.4036 65.1962 34.2788L64.1603 35.5367L63.7569 33.4475L57.623 35.1744L58.6746 33.5416L54.892 33.8957L56.4498 31.9151C56.4498 31.9151 52.0979 34.1166 51.8476 36.1697C51.5973 38.2227 49.3621 40.7294 49.3621 40.7294L48.4605 38.8004C48.4605 38.8004 47.3449 30.2832 52.2029 27.7339Z" fill="#2F2E41"/>
<path d="M143.498 99.0479H18.457V18.1661H143.498V99.0479ZM18.8684 98.576H143.087V18.638H18.8684V98.576Z" fill="#E6E6E6"/>
<path d="M119.257 28.1949C118.075 25.9034 115.735 25.7966 115.735 25.7966C115.735 25.7966 113.456 25.4623 111.994 28.9522C110.631 32.2052 108.75 35.346 111.691 36.1075L112.222 34.2109L112.551 36.2487C112.97 36.2832 113.39 36.2915 113.81 36.2733C116.959 36.1567 119.959 36.3075 119.862 35.0111C119.734 33.2877 120.395 30.3998 119.257 28.1949Z" fill="#2F2E41"/>
<path d="M114.895 36.0023C114.919 36.2601 114.882 36.5207 114.787 36.7561C114.566 37.2001 114.025 37.2665 113.7 37.6164C113.358 37.9843 113.319 38.5815 113.303 39.119C113.253 39.6801 113.303 40.247 113.45 40.7851C113.56 41.0736 113.698 41.3464 113.863 41.5981C114.061 41.9265 114.262 42.2534 114.464 42.5788C114.572 42.762 114.692 42.9353 114.824 43.097C115.207 43.4992 115.674 43.783 116.179 43.9217C116.494 44.0582 116.836 44.0842 117.164 43.9965C117.374 43.9023 117.568 43.7655 117.736 43.5926C117.982 43.3904 118.201 43.1476 118.385 42.872C118.623 42.4041 118.759 41.8768 118.781 41.3354C118.945 39.7506 119.008 38.1542 118.971 36.5588C118.978 36.3849 118.951 36.2116 118.892 36.0513C118.727 35.6824 118.286 35.6036 118.054 35.2863C117.855 35.015 117.847 34.6278 117.849 34.2734L117.853 33.3713C117.86 33.2953 117.846 33.2187 117.815 33.1515C117.786 33.1154 117.751 33.0861 117.712 33.0654C117.674 33.0447 117.632 33.0329 117.589 33.0308C117.1 32.9378 116.605 32.8997 116.109 32.9173C115.708 32.9313 114.937 32.8928 114.59 33.1493C114.275 33.3821 114.67 34.0252 114.743 34.3865C114.841 34.9178 114.892 35.4592 114.895 36.0023Z" fill="#FFB8B8"/>
<path d="M115.817 34.4531C117.572 34.4531 118.996 32.8207 118.996 30.8069C118.996 28.7931 117.572 27.1606 115.817 27.1606C114.061 27.1606 112.638 28.7931 112.638 30.8069C112.638 32.8207 114.061 34.4531 115.817 34.4531Z" fill="#FFB8B8"/>
<path d="M114.003 37.5143C113.66 37.2857 113.193 37.4708 112.943 37.8247C112.713 38.2002 112.591 38.6487 112.594 39.1076C112.598 39.5631 112.57 40.0183 112.509 40.4686C112.319 41.4524 111.61 42.2611 111.557 43.2672C111.506 44.2569 112.097 45.1191 112.388 46.0527C112.565 46.6346 112.639 47.2509 112.605 47.8658C112.588 47.9631 112.588 48.0635 112.605 48.1608C112.623 48.2582 112.657 48.3503 112.707 48.4317C112.771 48.4953 112.846 48.5418 112.927 48.5676C114.332 49.1345 115.849 49.1835 117.338 49.2267L119.796 49.2982C119.945 49.3185 120.095 49.2896 120.23 49.2148C120.451 49.0597 120.48 48.7119 120.484 48.4152C120.516 45.8594 120.422 43.3041 120.327 40.7504C120.315 39.8235 120.235 38.8995 120.086 37.9884C120.078 37.8707 120.046 37.7569 119.994 37.655C119.942 37.5531 119.871 37.4659 119.786 37.3997C119.703 37.3676 119.616 37.3546 119.529 37.3612C119.442 37.3679 119.357 37.3941 119.279 37.4385C118.517 37.7635 116.095 39.0094 115.856 38.566C115.579 38.0513 113.868 37.8995 114.003 37.5143Z" fill="#F6F9FC"/>
<path d="M114.127 37.5773C114.065 37.6281 114.003 37.6819 113.944 37.7387C113.723 37.9482 113.524 38.1877 113.353 38.4519C113.07 38.8946 112.845 39.3822 112.685 39.8993C112.423 40.8168 112.244 41.7628 112.152 42.7224C112.099 43.074 112.071 43.4297 112.067 43.7863C112.085 45.0972 112.761 46.3115 112.762 47.6235C112.762 47.6733 112.761 47.7221 112.759 47.7719C112.75 47.9866 112.728 48.2004 112.693 48.4114C112.643 48.7192 112.572 49.023 112.501 49.3259C112.352 50.097 112.112 50.8413 111.788 51.5383C111.753 51.606 111.716 51.6728 111.677 51.7375H109.246C109.265 51.6708 109.285 51.605 109.304 51.5383C109.718 50.1308 110.132 48.7235 110.546 47.3166C110.673 46.8863 110.799 46.454 110.889 46.0117C110.991 45.4656 111.061 44.9121 111.098 44.3551C111.194 43.2006 111.256 42.0437 111.287 40.8845C111.278 40.467 111.324 40.0504 111.423 39.6483C111.533 39.3269 111.678 39.0229 111.855 38.7438C112.106 38.3105 112.357 37.8772 112.608 37.4438C112.733 37.1914 112.904 36.9731 113.11 36.8043C113.29 36.6778 113.504 36.632 113.693 36.5254C113.812 36.4479 113.927 36.361 114.035 36.2654C114.318 36.0353 114.651 35.7932 114.895 36.0283C114.935 36.066 114.969 36.1107 114.996 36.1608C115.01 36.1854 115.022 36.211 115.033 36.2375C115.268 36.8193 114.443 37.3213 114.127 37.5773Z" fill="#2F2E41"/>
<path d="M122.138 51.7376H110.876C110.937 51.6738 110.996 51.6071 111.055 51.5383C111.063 51.5284 111.071 51.5184 111.08 51.5085C111.511 50.9954 111.609 50.3649 111.825 49.6975C111.987 49.1944 112.15 48.6917 112.312 48.1893C112.338 48.0915 112.38 48.0005 112.436 47.9213C112.483 47.8656 112.542 47.8251 112.607 47.8038C112.657 47.7865 112.707 47.7758 112.759 47.7719C112.832 47.7664 112.905 47.7664 112.978 47.7719C114.999 47.8914 117.019 48.0372 119.037 48.2092C119.297 48.2321 119.558 48.255 119.818 48.278C120.031 48.4593 120.241 48.6515 120.442 48.8547C121.107 49.4891 121.635 50.2922 121.983 51.2006C122.022 51.3112 122.058 51.4238 122.088 51.5383C122.107 51.6041 122.123 51.6708 122.138 51.7376Z" fill="#2F2E41"/>
<path d="M118.734 27.9739L116.423 26.5855L113.232 27.1534L112.572 30.4985L114.215 30.4261L114.674 29.1972V30.4056L115.433 30.3723L115.873 28.4158L116.148 30.4985L118.844 30.4353L118.734 27.9739Z" fill="#2F2E41"/>
<path d="M122.138 51.7376H119.595C119.577 51.6718 119.559 51.6051 119.543 51.5383C119.363 50.7974 119.231 50.0423 119.149 49.2791C119.122 49.0609 119.098 48.8418 119.076 48.6236C119.063 48.4852 119.05 48.3477 119.037 48.2092C118.891 46.6712 118.779 45.1182 118.369 43.6459C118.319 43.4676 118.265 43.2903 118.213 43.1129C118.117 42.8076 118.041 42.4943 117.987 42.1756C117.876 41.4464 117.96 40.6913 117.845 39.9631C117.781 39.5567 117.653 39.1991 117.576 38.8265C117.527 38.6017 117.507 38.3696 117.518 38.1382C117.706 37.9356 117.941 37.8018 118.195 37.7537C118.284 37.7525 118.37 37.713 118.435 37.6431C118.466 37.5817 118.48 37.5107 118.475 37.4399C118.481 36.97 118.457 36.5003 118.404 36.0343C118.387 35.871 118.365 35.7076 118.339 35.5452C118.338 35.5373 118.337 35.5303 118.336 35.5223C118.554 35.4338 118.786 35.3978 119.017 35.4167C119.268 35.4177 119.518 35.4177 119.768 35.4187C120.231 35.4207 120.694 35.4224 121.156 35.4237C121.587 35.3903 122.019 35.4619 122.424 35.6339C122.825 35.8657 123.147 36.2443 123.34 36.7097C123.529 37.1721 123.668 37.6596 123.753 38.1611C123.781 38.2987 123.795 38.4393 123.797 38.5805C123.816 39.7022 123.086 40.8318 123.013 41.9783C122.99 42.3499 123.017 42.7245 122.987 43.096C122.958 43.4686 122.871 43.8332 122.855 44.2057C122.854 44.2247 122.853 44.2446 122.853 44.2635C122.863 44.75 122.95 45.2304 123.11 45.681C123.33 46.3913 123.599 47.0796 123.876 47.764C124.143 48.4264 124.417 49.0858 124.664 49.7573C124.792 50.0689 124.879 50.4011 124.92 50.7424C124.948 51.0169 124.902 51.2943 124.789 51.5384C124.76 51.5987 124.726 51.6551 124.686 51.7067L124.684 51.7087C124.676 51.7187 124.668 51.7286 124.661 51.7376H122.138V51.7376Z" fill="#2F2E41"/>
<path d="M124.56 50.7155C124.549 50.8481 124.518 50.9773 124.467 51.097C124.463 51.109 124.458 51.12 124.454 51.1319C124.404 51.2684 124.353 51.4029 124.3 51.5383C124.273 51.6041 124.247 51.6708 124.221 51.7376H122.782C122.834 51.6751 122.883 51.6085 122.927 51.5383C123.147 51.1867 123.275 50.7594 123.5 50.3798C123.53 50.3279 123.565 50.2798 123.605 50.2364C123.965 49.8359 124.583 49.9176 124.56 50.7155Z" fill="#FFB8B8"/>
<path d="M125.496 51.7376C125.515 51.6721 125.53 51.6056 125.542 51.5383C125.553 51.4855 125.561 51.4337 125.568 51.3809C125.614 51.0333 125.614 50.6777 125.686 50.336C125.787 49.8469 126.092 49.2681 125.841 48.8567C126.036 48.8108 126.22 48.7162 126.38 48.5798C126.459 48.5093 126.515 48.4118 126.541 48.3016C126.568 48.1915 126.562 48.0746 126.526 47.9681C126.437 47.7679 126.195 47.6354 126.228 47.4133C126.244 47.3428 126.273 47.277 126.313 47.22C126.444 46.9817 126.512 46.7045 126.509 46.4224C126.505 46.1403 126.429 45.8656 126.291 45.6322C126.212 45.5027 126.115 45.3891 126.043 45.2537C125.964 45.088 125.903 44.9116 125.863 44.7287C125.612 43.8018 125.242 42.9228 124.766 42.1208C124.66 41.9664 124.578 41.7926 124.524 41.6068C124.492 41.4053 124.485 41.1997 124.505 40.9961C124.497 40.186 124.28 39.3966 123.882 38.7279C123.854 38.6781 123.825 38.6293 123.797 38.5805C123.417 37.9754 122.993 37.4086 122.529 36.886C122.347 36.9464 122.189 37.0779 122.082 37.2576C122.035 37.3744 122.006 37.4998 121.996 37.6282C121.873 38.6143 121.766 39.6065 121.683 40.5977C121.626 41.097 121.614 41.6018 121.648 42.1038C121.684 42.6092 121.856 43.0892 122.141 43.4765C122.326 43.7096 122.561 43.883 122.762 44.0981C122.794 44.133 122.825 44.1688 122.855 44.2057C123 44.3824 123.128 44.5756 123.238 44.7825C123.72 45.6743 123.943 46.7179 123.876 47.7639C123.864 47.9525 123.842 48.1401 123.811 48.3258C123.772 48.5916 123.694 48.8478 123.58 49.0828C123.488 49.2552 123.369 49.4056 123.286 49.5839C123.24 49.6697 123.212 49.7671 123.205 49.8677C123.198 49.9684 123.212 50.0695 123.246 50.1627C123.369 50.1625 123.49 50.1875 123.605 50.2364C123.875 50.356 124.11 50.5616 124.282 50.8291C124.346 50.9253 124.403 51.0265 124.454 51.1319C124.519 51.2633 124.576 51.399 124.626 51.5384C124.647 51.5931 124.667 51.6499 124.686 51.7067C124.69 51.7166 124.694 51.7269 124.696 51.7376L125.496 51.7376Z" fill="#2F2E41"/>
<path d="M139.357 52.1093H94.381V22.8846H139.357V52.1093ZM94.7923 51.6375H138.945V23.3565H94.7923V51.6375Z" fill="#E6E6E6"/>
<path d="M82.9674 113.911C85.523 113.911 87.5948 111.535 87.5948 108.604C87.5948 105.672 85.523 103.296 82.9674 103.296C80.4117 103.296 78.34 105.672 78.34 108.604C78.34 111.535 80.4117 113.911 82.9674 113.911Z" fill="#E6E6E6"/>
<path d="M82.9675 112.673C84.9269 112.673 86.5152 110.851 86.5152 108.604C86.5152 106.356 84.9269 104.534 82.9675 104.534C81.0082 104.534 79.4198 106.356 79.4198 108.604C79.4198 110.851 81.0082 112.673 82.9675 112.673Z" fill="#F6F9FC"/>
<path d="M84.7447 110.826C84.7234 110.826 84.7024 110.821 84.6828 110.812C84.6632 110.803 84.6454 110.789 84.6305 110.772L81.0754 106.694C81.0464 106.659 81.0305 106.612 81.031 106.564C81.0316 106.516 81.0485 106.47 81.0783 106.435C81.1081 106.401 81.1484 106.382 81.1905 106.381C81.2327 106.381 81.2733 106.399 81.3039 106.432L84.8589 110.51C84.8815 110.536 84.8969 110.569 84.9031 110.605C84.9093 110.641 84.9061 110.678 84.8939 110.712C84.8817 110.746 84.861 110.775 84.8344 110.795C84.8079 110.815 84.7766 110.826 84.7447 110.826Z" fill="#626EE3"/>
<path d="M82.8863 109.295L82.3633 108.695C82.3603 108.692 82.3564 108.69 82.3523 108.689C82.3481 108.688 82.3438 108.689 82.34 108.691C82.3363 108.693 82.3332 108.697 82.3312 108.701C82.3292 108.705 82.3285 108.71 82.329 108.715C82.3502 108.871 82.4139 109.014 82.511 109.126C82.6081 109.237 82.7336 109.31 82.8693 109.335C82.8735 109.335 82.8777 109.334 82.8814 109.332C82.8852 109.33 82.8882 109.326 82.8901 109.322C82.892 109.318 82.8926 109.313 82.8919 109.308C82.8913 109.303 82.8893 109.299 82.8863 109.295Z" fill="#626EE3"/>
<path d="M83.048 107.909L83.5719 108.509C83.5749 108.513 83.5788 108.515 83.583 108.516C83.5872 108.517 83.5915 108.516 83.5953 108.514C83.5991 108.512 83.6022 108.508 83.6041 108.504C83.6061 108.499 83.6069 108.495 83.6063 108.49C83.5852 108.334 83.5214 108.19 83.4242 108.078C83.327 107.967 83.2013 107.894 83.0654 107.869C83.0612 107.869 83.0569 107.869 83.0531 107.872C83.0493 107.874 83.0462 107.877 83.0443 107.882C83.0424 107.886 83.0417 107.891 83.0424 107.896C83.043 107.901 83.045 107.905 83.048 107.909Z" fill="#626EE3"/>
<path d="M85.3405 108.803C85.374 108.743 85.3916 108.673 85.3915 108.602C85.3913 108.53 85.3733 108.46 85.3395 108.4C85.0804 107.936 84.7388 107.539 84.337 107.236C83.9297 106.925 83.453 106.756 82.9639 106.748C82.7173 106.749 82.4724 106.795 82.2386 106.885C82.232 106.888 82.2262 106.892 82.2215 106.898C82.2169 106.904 82.2136 106.911 82.212 106.918C82.2104 106.926 82.2106 106.934 82.2125 106.942C82.2144 106.949 82.2179 106.956 82.2228 106.962L82.6999 107.509C82.7049 107.515 82.711 107.519 82.7178 107.521C82.7246 107.523 82.7317 107.523 82.7385 107.521C82.9002 107.476 83.0694 107.479 83.2297 107.531C83.3899 107.582 83.5359 107.68 83.6536 107.815C83.7713 107.95 83.8568 108.118 83.9017 108.302C83.9466 108.486 83.9495 108.68 83.9101 108.865C83.9083 108.873 83.9084 108.881 83.9103 108.889C83.9121 108.896 83.9157 108.903 83.9207 108.909L84.6069 109.697C84.6141 109.705 84.6236 109.71 84.6337 109.71C84.6438 109.711 84.6537 109.707 84.6615 109.7C84.9256 109.441 85.1545 109.139 85.3405 108.803Z" fill="#626EE3"/>
<path d="M82.9671 109.714C82.8203 109.714 82.6754 109.676 82.5434 109.602C82.4114 109.529 82.2957 109.422 82.2049 109.289C82.1142 109.157 82.0508 109.003 82.0196 108.838C81.9884 108.674 81.9902 108.503 82.0248 108.34C82.0265 108.332 82.0264 108.324 82.0246 108.316C82.0227 108.308 82.0191 108.301 82.0142 108.296L81.3391 107.521C81.332 107.513 81.3224 107.508 81.3123 107.507C81.3022 107.507 81.2922 107.511 81.2845 107.518C81.0251 107.776 80.7955 108.071 80.6011 108.396C80.5645 108.456 80.5444 108.527 80.5433 108.6C80.5421 108.674 80.56 108.746 80.5946 108.807C80.8496 109.272 81.1879 109.67 81.5872 109.973C81.995 110.285 82.4737 110.453 82.9638 110.455C83.2129 110.455 83.4604 110.41 83.6975 110.322C83.7041 110.319 83.71 110.315 83.7147 110.309C83.7195 110.303 83.7228 110.296 83.7244 110.288C83.7261 110.281 83.7259 110.273 83.724 110.265C83.7222 110.257 83.7186 110.25 83.7137 110.245L83.2343 109.695C83.2293 109.689 83.2232 109.685 83.2165 109.683C83.2097 109.681 83.2026 109.681 83.1958 109.683C83.1209 109.704 83.0441 109.714 82.9671 109.714Z" fill="#626EE3"/>
<path d="M65.4104 113.911C67.966 113.911 70.0378 111.535 70.0378 108.604C70.0378 105.672 67.966 103.296 65.4104 103.296C62.8547 103.296 60.783 105.672 60.783 108.604C60.783 111.535 62.8547 113.911 65.4104 113.911Z" fill="#E6E6E6"/>
<path d="M65.4104 112.673C67.3697 112.673 68.958 110.851 68.958 108.604C68.958 106.356 67.3697 104.534 65.4104 104.534C63.451 104.534 61.8627 106.356 61.8627 108.604C61.8627 110.851 63.451 112.673 65.4104 112.673Z" fill="#F6F9FC"/>
<path d="M66.7733 111.198C66.4564 111.17 66.1508 111.05 65.8845 110.851C65.3691 110.535 64.8985 110.131 64.4887 109.653C64.0645 109.19 63.7103 108.649 63.4405 108.053C63.0684 107.277 63.1318 106.87 63.2027 106.696C63.2846 106.506 63.4133 106.347 63.5729 106.24C63.6644 106.172 63.7612 106.113 63.8621 106.064C63.8722 106.059 63.8816 106.055 63.89 106.05C63.9234 106.029 63.9604 106.015 63.9986 106.011C64.0369 106.007 64.0754 106.013 64.1117 106.027C64.1923 106.072 64.264 106.135 64.3223 106.212C64.5324 106.483 64.7096 106.785 64.8491 107.109C64.9065 107.222 64.9417 107.347 64.9524 107.477C64.9441 107.605 64.8988 107.727 64.8237 107.822C64.8104 107.843 64.7973 107.863 64.7846 107.882C64.7077 107.998 64.6909 108.031 64.702 108.091C64.8048 108.392 64.964 108.663 65.1685 108.885C65.3592 109.116 65.593 109.294 65.8524 109.407C65.9067 109.42 65.9365 109.4 66.0408 109.309C66.0557 109.295 66.0711 109.282 66.0871 109.268C66.1706 109.178 66.2783 109.123 66.3927 109.112H66.3933C66.508 109.125 66.6182 109.169 66.7151 109.241C66.9951 109.404 67.2567 109.605 67.4942 109.841C67.5621 109.908 67.6173 109.99 67.6563 110.082C67.6688 110.124 67.6734 110.168 67.67 110.212C67.6665 110.256 67.6549 110.298 67.6361 110.337C67.6323 110.346 67.6282 110.357 67.6238 110.369C67.5813 110.484 67.5296 110.595 67.4694 110.7C67.3759 110.883 67.2376 111.03 67.0717 111.123C66.9785 111.174 66.8764 111.2 66.7733 111.198Z" fill="#626EE3"/>
<path d="M100.66 113.911C103.216 113.911 105.288 111.535 105.288 108.604C105.288 105.672 103.216 103.296 100.66 103.296C98.1047 103.296 96.033 105.672 96.033 108.604C96.033 111.535 98.1047 113.911 100.66 113.911Z" fill="#E6E6E6"/>
<path d="M100.66 112.673C102.62 112.673 104.208 110.851 104.208 108.604C104.208 106.356 102.62 104.534 100.66 104.534C98.7011 104.534 97.1128 106.356 97.1128 108.604C97.1128 110.851 98.7011 112.673 100.66 112.673Z" fill="#F6F9FC"/>
<path d="M101.307 111.013H100.014C99.9927 111.013 99.9716 111.009 99.952 110.999C99.9323 110.99 99.9144 110.976 99.8993 110.959C99.8843 110.942 99.8723 110.921 99.8642 110.899C99.856 110.876 99.8518 110.852 99.8518 110.828C99.8518 110.803 99.856 110.779 99.8642 110.757C99.8723 110.734 99.8843 110.714 99.8993 110.697C99.9144 110.679 99.9323 110.666 99.952 110.656C99.9716 110.647 99.9927 110.642 100.014 110.642H101.307C101.328 110.642 101.349 110.647 101.369 110.656C101.388 110.666 101.406 110.679 101.421 110.697C101.436 110.714 101.448 110.734 101.457 110.757C101.465 110.779 101.469 110.803 101.469 110.828C101.469 110.852 101.465 110.876 101.457 110.899C101.448 110.921 101.436 110.942 101.421 110.959C101.406 110.976 101.388 110.99 101.369 110.999C101.349 111.009 101.328 111.013 101.307 111.013Z" fill="#626EE3"/>
<path d="M100.661 110.086C100.275 110.086 99.9053 109.91 99.6326 109.597C99.36 109.285 99.2066 108.861 99.2062 108.418V108.048C99.2063 107.999 99.2234 107.952 99.2537 107.917C99.284 107.882 99.325 107.863 99.3678 107.863C99.4105 107.863 99.4515 107.882 99.4818 107.917C99.5121 107.952 99.5292 107.999 99.5294 108.048V108.418C99.5292 108.589 99.5583 108.758 99.615 108.915C99.6718 109.073 99.7551 109.216 99.8601 109.337C99.9652 109.458 100.09 109.553 100.227 109.619C100.365 109.684 100.512 109.717 100.661 109.717C100.809 109.717 100.956 109.684 101.094 109.619C101.231 109.553 101.356 109.458 101.461 109.337C101.566 109.216 101.649 109.073 101.706 108.915C101.763 108.758 101.792 108.589 101.792 108.418V108.048C101.792 107.999 101.809 107.952 101.839 107.917C101.869 107.882 101.91 107.863 101.953 107.863C101.996 107.863 102.037 107.882 102.067 107.917C102.098 107.952 102.115 107.999 102.115 108.048V108.418C102.114 108.861 101.961 109.285 101.688 109.597C101.416 109.91 101.046 110.086 100.661 110.086Z" fill="#626EE3"/>
<path d="M100.661 111.013C100.639 111.013 100.618 111.008 100.599 110.999C100.579 110.99 100.561 110.976 100.546 110.959C100.531 110.942 100.519 110.921 100.511 110.899C100.503 110.876 100.499 110.852 100.499 110.828V109.901C100.499 109.877 100.503 109.853 100.511 109.83C100.519 109.807 100.531 109.787 100.546 109.77C100.561 109.752 100.579 109.739 100.599 109.729C100.618 109.72 100.639 109.715 100.661 109.715C100.682 109.715 100.703 109.72 100.722 109.729C100.742 109.739 100.76 109.752 100.775 109.77C100.79 109.787 100.802 109.807 100.81 109.83C100.818 109.853 100.822 109.877 100.822 109.901V110.828C100.822 110.852 100.818 110.876 100.81 110.899C100.802 110.921 100.79 110.942 100.775 110.959C100.76 110.976 100.742 110.99 100.722 110.999C100.703 111.008 100.682 111.013 100.661 111.013Z" fill="#626EE3"/>
<path d="M100.66 109.345C100.554 109.345 100.448 109.32 100.35 109.272C100.252 109.224 100.163 109.154 100.089 109.066C99.9377 108.89 99.8526 108.654 99.8524 108.407V107.121C99.8516 106.876 99.9356 106.641 100.086 106.467C100.236 106.293 100.441 106.195 100.654 106.194C100.656 106.194 100.658 106.194 100.66 106.194C100.767 106.193 100.872 106.216 100.971 106.262C101.069 106.308 101.159 106.376 101.234 106.463C101.31 106.549 101.369 106.652 101.409 106.765C101.449 106.878 101.469 106.999 101.468 107.121V108.407C101.469 108.654 101.385 108.892 101.233 109.067C101.082 109.243 100.876 109.343 100.66 109.345Z" fill="#626EE3"/>
</g>
<defs>
<clipPath id="clip0_2_195">
<rect width="166" height="122" fill="white"/>
</clipPath>
</defs>
</svg>
