<svg width="166" height="122" viewBox="0 0 166 122" fill="none" xmlns="http://www.w3.org/2000/svg">
<path d="M82.1855 98.3061C71.6679 98.3061 61.4756 94.8407 53.3454 88.5004C45.2151 82.16 39.6499 73.3371 37.5981 63.5348C35.5462 53.7326 37.1346 43.5575 42.0926 34.7434C47.0506 25.9292 55.0714 19.0213 64.7885 15.1967C74.5055 11.372 85.3175 10.8673 95.3823 13.7685C105.447 16.6697 114.142 22.7973 119.985 31.1072C125.828 39.4172 128.459 49.3953 127.428 59.3415C126.397 69.2876 121.769 78.5864 114.331 85.6535C110.12 89.6774 105.11 92.8677 99.5922 95.0395C94.0744 97.2113 88.158 98.3216 82.1855 98.3061ZM82.1855 12.1895C57.2814 12.1895 37.0205 31.4423 37.0205 55.1071C37.0205 78.772 57.2814 98.0247 82.1855 98.0247C107.09 98.0247 127.351 78.772 127.351 55.1071C127.351 31.4423 107.09 12.1895 82.1855 12.1895Z" fill="#3F3D56"/>
<path d="M86.0148 93.5359C85.173 96.4931 82.2894 98.3245 82.2894 98.3245C82.2894 98.3245 80.7708 95.3615 81.6126 92.4043C82.4545 89.4472 85.338 87.6157 85.338 87.6157C85.338 87.6157 86.8567 90.5788 86.0148 93.5359Z" fill="#626EE3"/>
<path d="M78.3563 93.5359C79.1981 96.4931 82.0817 98.3245 82.0817 98.3245C82.0817 98.3245 83.6003 95.3615 82.7585 92.4043C81.9166 89.4472 79.0331 87.6157 79.0331 87.6157C79.0331 87.6157 77.5144 90.5788 78.3563 93.5359Z" fill="#626EE3"/>
<path d="M79.5933 92.9004C81.9034 95.0373 82.1855 98.3221 82.1855 98.3221C82.1855 98.3221 78.7223 98.1424 76.4122 96.0056C74.1022 93.8687 73.82 90.5839 73.82 90.5839C73.82 90.5839 77.2832 90.7635 79.5933 92.9004Z" fill="#3F3D56"/>
<path d="M84.7778 92.9004C82.4677 95.0373 82.1855 98.3221 82.1855 98.3221C82.1855 98.3221 85.6487 98.1424 87.9588 96.0056C90.2689 93.8687 90.551 90.5839 90.551 90.5839C90.551 90.5839 87.0878 90.7635 84.7778 92.9004Z" fill="#3F3D56"/>
<path d="M78.3563 16.8412C79.1981 13.8841 82.0817 12.0526 82.0817 12.0526C82.0817 12.0526 83.6003 15.0157 82.7585 17.9728C81.9166 20.93 79.0331 22.7614 79.0331 22.7614C79.0331 22.7614 77.5144 19.7984 78.3563 16.8412Z" fill="#626EE3"/>
<path d="M86.0148 16.8412C85.173 13.8841 82.2894 12.0526 82.2894 12.0526C82.2894 12.0526 80.7708 15.0157 81.6126 17.9728C82.4545 20.93 85.338 22.7614 85.338 22.7614C85.338 22.7614 86.8567 19.7984 86.0148 16.8412Z" fill="#626EE3"/>
<path d="M84.7778 17.4767C82.4677 15.3399 82.1855 12.055 82.1855 12.055C82.1855 12.055 85.6487 12.2347 87.9588 14.3716C90.2689 16.5084 90.551 19.7933 90.551 19.7933C90.551 19.7933 87.0878 19.6136 84.7778 17.4767Z" fill="#3F3D56"/>
<path d="M79.5933 17.4767C81.9034 15.3399 82.1855 12.055 82.1855 12.055C82.1855 12.055 78.7223 12.2347 76.4122 14.3716C74.1022 16.5084 73.82 19.7933 73.82 19.7933C73.82 19.7933 77.2832 19.6136 79.5933 17.4767Z" fill="#3F3D56"/>
<path d="M61.0221 1.78379H2.16614V58.6554H61.0221V1.78379Z" fill="#626EE3"/>
<path d="M58.7982 3.22726H6.36795H3.39624V6.25288V56.4774H6.36795V6.25288H58.7982V3.22726Z" fill="#3F3D56"/>
<path opacity="0.3" d="M58.7982 3.22726H6.36795H3.39624V6.25288V56.4774H6.36795V6.25288H58.7982V3.22726Z" fill="black"/>
<path opacity="0.1" d="M50.3074 6.25287H47.9725H6.36792V13.5142H47.9725V56.4774H58.7982V6.25287H50.3074Z" fill="black"/>
<path d="M0 0V59.7047H62.1945V0H0ZM58.7982 56.4775H3.39628V3.22729H58.7982V56.4775Z" fill="#3F3D56"/>
<path d="M43.6472 61.9059C43.6472 61.9059 46.4596 67.0837 48.0415 68.2528C49.6235 69.422 45.4928 70.8417 45.4928 70.8417L40.6591 63.6597L43.6472 61.9059Z" fill="#A0616A"/>
<path d="M26.5974 49.2955C26.5974 49.2955 39.6923 52.5525 40.8348 54.7238C41.9774 56.8952 45.4928 62.1565 45.4928 62.1565L40.3075 66.0815L35.2102 58.816L21.1484 52.8031L26.5974 49.2955Z" fill="#2F2E41"/>
<path d="M45.0533 68.754C45.0533 68.754 43.8229 67.7518 43.4714 68.4199C43.1198 69.088 42.0652 72.512 42.0652 72.512C42.0652 72.512 43.5592 73.8482 46.6352 73.0131C46.6352 73.0131 47.4262 72.4285 48.6566 73.0131C49.887 73.5977 54.4571 72.4285 54.2813 70.5077C54.1055 68.5869 49.4476 68.754 49.4476 68.754C49.4476 68.754 47.4857 66.6653 47.2362 67.4591C46.9868 68.2529 47.3383 68.3364 47.3383 68.3364C47.3383 68.3364 45.7564 69.9231 45.0533 68.754Z" fill="#2F2E41"/>
<path d="M30.0249 67.0002L29.146 74.0152H33.4524C33.4524 74.0152 33.1009 68.5869 33.1887 67.9188C33.2766 67.2507 30.0249 67.0002 30.0249 67.0002Z" fill="#A0616A"/>
<path d="M32.4857 51.5504C32.4857 51.5504 34.8586 54.8909 33.4524 55.1414C32.0463 55.3919 30.9037 51.5504 30.9037 51.5504H32.4857Z" fill="#A0616A"/>
<path d="M14.5571 51.2163C14.5571 51.2163 12.7993 56.1436 19.7423 57.4798C26.6853 58.816 28.7945 59.9016 28.7945 59.9016L29.6734 68.4199L35.7375 68.7539C35.7375 68.7539 38.6377 55.8095 34.8587 54.1393C31.0796 52.469 23.082 50.5482 23.082 50.5482L14.5571 51.2163Z" fill="#2F2E41"/>
<path d="M29.6734 72.9296C29.6734 72.9296 30.9038 72.345 31.0796 72.345C31.0796 72.345 31.8521 70.6519 33.2675 70.8303L36.3527 75.1009C36.3527 75.1009 41.0107 78.2744 37.7589 79.1095C34.5071 79.9446 31.9584 79.2765 31.9584 79.2765L30.6401 78.3579C30.6401 78.3579 30.8159 77.4392 29.6734 77.6063C29.6734 77.6063 27.3005 76.6876 27.3884 76.0195C27.4763 75.3514 29.343 72.4433 29.343 72.4433L29.6734 72.9296Z" fill="#2F2E41"/>
<path d="M30.4203 34.9732C32.3619 34.9732 33.9358 33.4776 33.9358 31.6327C33.9358 29.7877 32.3619 28.2921 30.4203 28.2921C28.4788 28.2921 26.9049 29.7877 26.9049 31.6327C26.9049 33.4776 28.4788 34.9732 30.4203 34.9732Z" fill="#A0616A"/>
<path d="M27.564 30.5887C27.564 30.5887 24.4002 32.7601 23.785 32.8436C23.1698 32.9271 26.6852 37.0192 26.6852 37.0192C26.6852 37.0192 28.355 34.4303 29.4096 34.0963C30.4643 33.7622 27.564 30.5887 27.564 30.5887Z" fill="#A0616A"/>
<path d="M25.1912 33.3447C25.1912 33.3447 23.8729 31.6744 23.0819 31.6744C22.291 31.6744 15.1722 32.426 14.557 38.0214C13.9418 43.6167 14.2934 53.3877 14.2934 53.3877C14.2934 53.3877 13.766 50.9658 19.6544 51.9679C19.6544 51.9679 26.6852 50.5482 27.9156 50.5482C29.1461 50.5482 29.6734 38.6059 29.6734 38.6059L27.6723 35.6578C27.6723 35.6578 26.7731 37.2697 25.1912 33.3447Z" fill="#D0CDE1"/>
<path d="M28.355 37.9378L29.6733 38.6059L31.2553 47.7923L33.4524 52.5525C33.4524 52.5525 31.0795 51.7763 30.9037 52.7072L27.3883 47.8758L28.355 37.9378Z" fill="#D0CDE1"/>
<path d="M29.63 28.8931L31.5425 29.1201C31.5059 29.4899 31.5161 29.948 31.8609 30.123C32.023 30.2052 32.2287 30.201 32.3724 30.3099C32.718 30.5717 32.38 31.1347 32.5751 31.5116L33.1344 31.6522C33.2016 31.7717 33.293 31.8773 33.4033 31.9631C33.5137 32.0489 33.6408 32.1131 33.7773 32.152C33.9139 32.1909 34.0572 32.2038 34.199 32.1899C34.3408 32.1759 34.4783 32.1355 34.6036 32.0709C34.9795 31.8564 35.171 31.4467 35.3401 31.0623C35.5421 30.6031 35.7483 30.1098 35.6472 29.6214C35.5385 29.0968 35.0875 28.6607 35.067 28.1264C35.0578 27.8873 35.111 27.5893 34.8989 27.4604C34.8013 27.4168 34.6962 27.3903 34.5888 27.3822C34.1002 27.2852 33.8281 26.8047 33.4637 26.4805C32.7002 25.8012 31.5276 25.8191 30.4834 25.8783C30.1845 25.8793 29.888 25.9285 29.6063 26.0236C29.288 26.1753 29.0065 26.3886 28.78 26.6497C28.22 27.2173 27.6749 27.8117 27.3055 28.5059C26.9361 29.2002 26.7541 30.0113 26.9549 30.7655C26.9351 30.693 27.5997 30.2181 27.6824 30.142C27.9421 29.903 27.9658 29.7888 28.1063 29.5138C28.434 28.8727 28.8896 28.8052 29.63 28.8931Z" fill="#2F2E41"/>
<path opacity="0.1" d="M24.0047 39.6498L24.2684 45.4957L28.1777 49.8521L24.62 44.9947L24.0047 39.6498Z" fill="black"/>
<path opacity="0.1" d="M16.9739 41.2366L20.0498 48.0011L24.0047 51.0911L19.7861 48.3352L16.9739 41.2366Z" fill="black"/>
<path d="M33.6824 46.7195L35.541 47.9343C35.6336 48.0037 35.6982 48.1011 35.7241 48.2104C35.7499 48.3197 35.7354 48.434 35.683 48.5343L35.4344 49.0218L35.492 49.0594L35.2095 49.6133L35.152 49.5757L33.1047 53.5903C33.0834 53.643 33.05 53.6906 33.0067 53.7294C32.9635 53.7682 32.9117 53.7973 32.855 53.8145C32.7984 53.8316 32.7384 53.8365 32.6795 53.8287C32.6206 53.8208 32.5644 53.8005 32.5149 53.7692L30.7682 52.6275C30.6618 52.5478 30.5874 52.4357 30.5577 52.3101C30.528 52.1845 30.5447 52.053 30.6049 51.9376L33.1898 46.8689C33.2075 46.8248 33.2355 46.7851 33.2716 46.7527C33.3077 46.7203 33.351 46.696 33.3983 46.6817C33.4456 46.6673 33.4957 46.6633 33.5449 46.6698C33.594 46.6763 33.641 46.6933 33.6824 46.7195Z" fill="#3F3D56"/>
<path d="M30.7975 51.8933L32.798 53.2009L35.4076 48.0836L33.4071 46.7759L30.7975 51.8933Z" fill="#F6F9FC"/>
<path d="M29.9289 50.7668C29.9289 50.7668 33.415 53.0624 32.2001 53.7804C30.9852 54.4984 28.4546 51.3119 28.4546 51.3119L29.9289 50.7668Z" fill="#A0616A"/>
<path d="M19.5665 33.7622C19.5665 33.7622 14.9964 35.0149 16.3147 38.8565C16.6327 39.7832 17.0172 40.7779 17.4176 41.7539C18.677 44.8239 20.0938 47.7088 20.0938 47.7088L24.0661 51.1218L29.4097 52.5525L30.0249 52.0514C30.0249 52.0514 30.2007 50.4647 29.4097 50.2977C28.6187 50.1307 27.3883 49.4626 27.3883 49.4626L24.2244 45.0364C24.2244 45.0364 24.1365 34.0128 19.5665 33.7622Z" fill="#D0CDE1"/>
<path d="M106.431 99.5421H163.885V44.0246L106.431 44.0246V99.5421Z" fill="#626EE3"/>
<path d="M108.602 45.4337H159.784H162.685V48.3873V97.416H159.784V48.3873H108.602V45.4337Z" fill="#3F3D56"/>
<path opacity="0.3" d="M108.602 45.4337H159.784H162.685V48.3873V97.416H159.784V48.3873H108.602V45.4337Z" fill="black"/>
<path opacity="0.1" d="M116.89 48.3873H119.17H159.783V55.4757H119.17V97.416H108.602V48.3873H116.89Z" fill="black"/>
<path d="M105.286 42.2832V100.566H166V42.2832H105.286ZM108.602 45.4337H162.685V97.416H108.602V45.4337Z" fill="#3F3D56"/>
<path d="M140.763 69.7614C139.456 67.6622 136.869 67.5644 136.869 67.5644C136.869 67.5644 134.349 67.2581 132.732 70.4551C131.225 73.435 129.145 76.3122 132.397 77.0098L132.984 75.2724L133.348 77.1391C133.811 77.1708 134.276 77.1783 134.74 77.1617C138.222 77.0549 141.539 77.193 141.432 76.0054C141.29 74.4267 142.021 71.7812 140.763 69.7614Z" fill="#2F2E41"/>
<path d="M131.34 86.7034L131.065 91.408L139.133 92.1921L139.408 87.3132L136.657 85.658L131.34 86.7034Z" fill="#A0616A"/>
<path d="M153.023 97.0273C152.781 94.8048 143.175 93.7959 140.867 93.5853L140.004 93.1068L139.729 90.3189C139.729 90.3189 131.202 89.622 130.56 89.5349C129.919 89.4477 129.368 90.5803 129.368 90.8417C129.368 91.0306 129.249 92.3795 128.767 93.179C127.727 93.9733 124.555 96.4724 124.555 97.4193C124.555 98.5519 127.076 112.796 127.076 112.796L127.351 115.758L129.919 116.194L129.735 106.959C129.735 106.959 130.652 101.645 129.368 100.164V99.5538C129.368 99.5538 133.133 98.6217 134.46 97.6069C134.844 97.5284 135.925 97.335 136.522 97.5032C136.603 97.549 136.698 97.596 136.803 97.6439C136.816 97.6554 136.829 97.6676 136.841 97.6807L136.851 97.6656C138.567 98.429 142.971 99.3919 144.771 99.1181C146.16 98.9167 147.58 99.162 148.805 99.8151C147.797 101.035 148.53 104.52 148.53 104.52L148.622 112.012L149.905 113.493H151.647V109.398C151.647 109.398 153.298 99.5538 153.023 97.0273Z" fill="#2F2E41"/>
<path d="M136.061 75.5084C137.732 75.5084 139.087 74.2212 139.087 72.6334C139.087 71.0456 137.732 69.7584 136.061 69.7584C134.39 69.7584 133.036 71.0456 133.036 72.6334C133.036 74.2212 134.39 75.5084 136.061 75.5084Z" fill="#A0616A"/>
<path d="M134.228 74.4629C134.228 74.4629 134.686 76.3796 134.044 76.5538C133.537 76.7137 133.046 76.9179 132.577 77.1637L131.844 79.4288V81.694L140.737 82.6523L141.012 81.8682V80.7357L140.004 78.9932L139.545 78.5576C139.545 78.5576 137.528 76.4667 137.987 74.4629H134.228Z" fill="#A0616A"/>
<path d="M142.158 81.3891C142.158 81.3891 142.433 84.4383 142.158 85.8322C141.883 87.2262 141.975 89.317 141.975 89.317L139.958 88.9686V84.264L140.416 81.7375L142.158 81.3891Z" fill="#A0616A"/>
<path d="M137.186 69.3521C138.219 69.3521 139.056 68.5565 139.056 67.575C139.056 66.5935 138.219 65.7979 137.186 65.7979C136.153 65.7979 135.315 66.5935 135.315 67.575C135.315 68.5565 136.153 69.3521 137.186 69.3521Z" fill="#2F2E41"/>
<path d="M135.119 67.1073C135.119 66.6684 135.29 66.245 135.599 65.9187C135.908 65.5925 136.333 65.3864 136.792 65.3401C136.727 65.3336 136.661 65.3302 136.595 65.3301C136.099 65.3301 135.623 65.5174 135.273 65.8507C134.922 66.184 134.725 66.636 134.725 67.1073C134.725 67.5787 134.922 68.0307 135.273 68.364C135.623 68.6973 136.099 68.8845 136.595 68.8845C136.661 68.8844 136.727 68.8811 136.792 68.8745C136.333 68.8283 135.908 68.6222 135.599 68.2959C135.29 67.9696 135.119 67.5462 135.119 67.1073Z" fill="#2F2E41"/>
<path d="M140.185 69.559L137.63 68.2871L134.101 68.8075L133.371 71.8716L135.188 71.8052L135.696 70.6795V71.7866L136.534 71.756L137.021 69.9637L137.325 71.8716L140.307 71.8138L140.185 69.559Z" fill="#2F2E41"/>
<path d="M129.776 112.833C129.776 112.833 131.077 113.414 131.46 113.633C131.842 113.851 133.373 113.414 133.067 114.723C132.761 116.032 131.46 117.269 131.46 117.269C131.46 117.269 130.847 117.923 130.847 118.359C130.847 118.796 129.317 122.141 127.48 121.995C125.643 121.85 125.95 120.105 125.95 120.105L126.332 118.214C126.332 118.214 127.097 115.014 127.251 115.087C127.404 115.16 127.786 115.669 127.786 115.669C127.786 115.669 129.699 114.941 129.776 112.833Z" fill="#D0CDE1"/>
<path d="M148.856 110.655C148.856 110.655 147.555 111.236 147.173 111.455C146.79 111.673 145.259 111.236 145.566 112.545C145.872 113.854 147.173 115.091 147.173 115.091C147.173 115.091 147.785 115.745 147.785 116.181C147.785 116.618 149.315 119.963 151.152 119.817C152.989 119.672 152.683 117.927 152.683 117.927L152.3 116.036C152.3 116.036 151.535 112.836 151.382 112.909C151.229 112.982 150.846 113.491 150.846 113.491C150.846 113.491 148.933 112.763 148.856 110.655Z" fill="#D0CDE1"/>
<path d="M138.769 89.9264V89.235H138.608V88.9277C138.608 88.8571 138.593 88.7872 138.564 88.7219C138.536 88.6567 138.494 88.5974 138.442 88.5475C138.389 88.4975 138.327 88.4579 138.258 88.4309C138.19 88.4039 138.116 88.39 138.042 88.39H136.101C135.951 88.39 135.807 88.4466 135.701 88.5475C135.595 88.6483 135.535 88.7851 135.535 88.9277V94.0749C135.535 94.2175 135.595 94.3543 135.701 94.4551C135.807 94.556 135.951 94.6126 136.101 94.6126H138.042C138.192 94.6126 138.336 94.556 138.442 94.4551C138.548 94.3543 138.608 94.2175 138.608 94.0749V90.8483H138.769V90.1569H138.608V89.9264H138.769Z" fill="#D0CDE1"/>
<path d="M137.152 90.2337C137.331 90.2337 137.476 90.0961 137.476 89.9264C137.476 89.7567 137.331 89.6191 137.152 89.6191C136.974 89.6191 136.829 89.7567 136.829 89.9264C136.829 90.0961 136.974 90.2337 137.152 90.2337Z" fill="#3F3D56"/>
<path d="M129.048 79.908L127.397 86.3549C127.397 86.3549 126.756 87.7489 128.222 88.6201C129.689 89.4913 132.99 90.6239 132.99 90.6239C132.99 90.6239 135.924 94.4572 136.291 92.889C136.657 91.3208 134.09 89.317 134.09 89.317L129.598 86.6163L131.34 82.086L129.048 79.908Z" fill="#A0616A"/>
<path d="M140.966 88.0102C140.966 88.0102 142.342 87.836 142.25 89.317C142.158 90.7981 140.325 90.9723 140.325 90.9723C140.325 90.9723 139.5 94.2829 138.308 93.6731C137.116 93.0632 138.949 89.7526 138.949 89.7526L140.508 88.6201L140.966 88.0102Z" fill="#A0616A"/>
<path d="M132.119 79.3417L133.586 76.4667L130.652 77.4251C130.652 77.4251 129.002 78.2091 128.91 80.0387C128.818 81.8682 131.019 82.8266 131.019 82.8266C131.019 82.8266 131.386 85.4402 131.202 85.7887C131.019 86.1371 131.202 87.5311 131.202 87.5311C131.202 87.5311 134.732 86.6163 136.474 87.7489C138.216 88.8815 139.637 88.228 139.637 88.228C139.637 88.228 139.545 86.05 140.279 85.7015C141.012 85.353 141.654 83.6978 141.012 82.6523C141.012 82.6523 142.479 82.8265 142.387 81.5197C142.296 80.2129 141.562 79.0803 140.37 78.5576C139.179 78.0349 139.047 77.9514 139.047 77.9514L140.737 80.9099V81.694C140.737 81.694 137.745 79.879 134.784 79.7277C133.818 79.6857 132.87 79.9824 132.119 80.5614L132.119 80.5614V79.3417Z" fill="#2F2E41"/>
</svg>
