<svg width="149" height="159" viewBox="0 0 149 159" fill="none" xmlns="http://www.w3.org/2000/svg">
<g clip-path="url(#clip0_2_387)">
<path d="M4.87412 98.33C4.85101 98.2998 4.83461 98.264 4.82626 98.2254C1.71506 83.8939 2.23814 68.88 6.33705 54.8609C10.436 40.8419 17.9493 28.37 28.0375 18.8385C38.1258 9.3071 50.3917 3.09159 63.4649 0.886423C76.538 -1.31874 89.9035 0.573289 102.068 6.35114C102.095 6.36416 102.12 6.3831 102.141 6.40686C102.162 6.43062 102.179 6.45875 102.19 6.48963C102.201 6.52051 102.207 6.55354 102.206 6.58684C102.206 6.62013 102.2 6.65304 102.188 6.68368C102.177 6.71432 102.16 6.7421 102.138 6.76542C102.117 6.78875 102.092 6.80717 102.064 6.81962C102.036 6.83208 102.007 6.83833 101.977 6.83802C101.947 6.83771 101.918 6.83084 101.89 6.81781C77.0025 -4.98434 48.7619 -0.174463 28.1889 19.3705C7.74141 38.7962 -1.04116 68.9658 5.26844 98.1062C5.28045 98.1617 5.27535 98.22 5.25396 98.2718C5.23257 98.3237 5.19613 98.3659 5.15054 98.3918C5.10495 98.4177 5.05287 98.4257 5.00272 98.4145C4.95256 98.4033 4.90725 98.3735 4.87412 98.33Z" fill="#E6E6E6"/>
<path d="M46.4397 152.748C46.4064 152.704 46.3873 152.65 46.3853 152.593C46.3833 152.536 46.3987 152.48 46.4289 152.434C46.459 152.387 46.5023 152.354 46.5516 152.339C46.6009 152.323 46.6534 152.327 46.7006 152.349C71.4946 163.93 99.5993 159.056 120.047 139.63C140.814 119.901 149.632 89.5741 143.062 60.4843C143.055 60.452 143.053 60.4184 143.057 60.3854C143.062 60.3525 143.072 60.3208 143.087 60.2922C143.103 60.2637 143.123 60.2387 143.147 60.2189C143.171 60.199 143.198 60.1846 143.227 60.1765C143.256 60.1684 143.286 60.1667 143.316 60.1715C143.345 60.1764 143.374 60.1877 143.399 60.2048C143.425 60.2219 143.447 60.2444 143.465 60.2712C143.483 60.2979 143.496 60.3283 143.503 60.3606C146.692 74.4962 146.287 89.3429 142.335 103.237C138.244 117.555 130.622 130.3 120.342 140.016C110.304 149.557 98.0898 155.805 85.0575 158.065C72.0252 160.325 58.6862 158.508 46.5246 152.817C46.4918 152.802 46.4627 152.778 46.4397 152.748Z" fill="#E6E6E6"/>
<path d="M41.1848 157.249C41.1655 157.223 41.1507 157.194 41.1415 157.162C41.1323 157.131 41.1288 157.097 41.1312 157.064C41.1336 157.031 41.1418 156.999 41.1554 156.969C41.169 156.939 41.1877 156.913 41.2105 156.891L148.625 54.8445C148.671 54.8008 148.731 54.7794 148.791 54.7847C148.851 54.7901 148.907 54.8219 148.946 54.8731C148.985 54.9243 149.004 54.9907 148.999 55.0577C148.994 55.1248 148.966 55.1869 148.92 55.2305L41.5054 157.277C41.4826 157.299 41.4563 157.315 41.4279 157.326C41.3995 157.336 41.3696 157.34 41.3398 157.337C41.31 157.335 41.281 157.325 41.2544 157.31C41.2278 157.295 41.2042 157.274 41.1848 157.249Z" fill="#E6E6E6"/>
<path d="M0.054311 103.402C0.034941 103.376 0.0202412 103.347 0.0110464 103.315C0.00185167 103.283 -0.00165754 103.25 0.000723645 103.217C0.00310483 103.184 0.0113283 103.151 0.0249227 103.122C0.0385171 103.092 0.0572171 103.066 0.0799538 103.044L107.495 0.997156C107.541 0.953625 107.6 0.932202 107.66 0.937595C107.72 0.942989 107.776 0.974756 107.815 1.02592C107.854 1.07708 107.873 1.14345 107.869 1.21045C107.864 1.27745 107.835 1.33959 107.79 1.38322L0.374847 103.43C0.35212 103.452 0.3258 103.468 0.297389 103.478C0.268978 103.489 0.239034 103.493 0.209267 103.49C0.179501 103.487 0.150497 103.478 0.123909 103.463C0.0973213 103.448 0.0736696 103.427 0.054311 103.402Z" fill="#E6E6E6"/>
<path d="M41.1848 157.249C41.1655 157.223 41.1507 157.194 41.1415 157.162C41.1323 157.131 41.1288 157.097 41.1312 157.064C41.1336 157.031 41.1418 156.999 41.1554 156.969C41.169 156.939 41.1877 156.913 41.2105 156.891L148.625 54.8445C148.671 54.8008 148.731 54.7794 148.791 54.7847C148.851 54.7901 148.907 54.8219 148.946 54.8731C148.985 54.9243 149.004 54.9907 148.999 55.0577C148.994 55.1248 148.966 55.1869 148.92 55.2305L41.5054 157.277C41.4826 157.299 41.4563 157.315 41.4279 157.326C41.3995 157.336 41.3696 157.34 41.3398 157.337C41.31 157.335 41.281 157.325 41.2544 157.31C41.2278 157.295 41.2042 157.274 41.1848 157.249Z" fill="#E6E6E6"/>
<path d="M125.584 42.0602H84.011V41.8174C84.011 41.6284 83.9437 41.447 83.8238 41.3134C83.7039 41.1797 83.5414 41.1046 83.3719 41.1046H65.7994C65.6299 41.1046 65.4674 41.1797 65.3475 41.3134C65.2276 41.447 65.1603 41.6284 65.1603 41.8174V42.0602H23.4161C22.6703 42.0602 21.955 42.3906 21.4276 42.9787C20.9003 43.5669 20.604 44.3646 20.604 45.1963V108.682C20.604 109.514 20.9003 110.312 21.4276 110.9C21.955 111.488 22.6703 111.819 23.4161 111.819H125.584C126.33 111.819 127.045 111.488 127.572 110.9C128.1 110.312 128.396 109.514 128.396 108.682V45.1963C128.396 44.3646 128.1 43.5669 127.572 42.9787C127.045 42.3906 126.33 42.0602 125.584 42.0602Z" fill="#3F3D56"/>
<path d="M25.6524 48.7348C25.5826 48.7349 25.5157 48.7658 25.4664 48.8209C25.4171 48.8759 25.3894 48.9505 25.3893 49.0283V109.246C25.3894 109.324 25.4171 109.399 25.4664 109.454C25.5158 109.509 25.5826 109.54 25.6524 109.54H123.347C123.417 109.54 123.484 109.509 123.533 109.454C123.583 109.399 123.61 109.324 123.61 109.246V49.0283C123.61 48.9505 123.583 48.8759 123.533 48.8208C123.484 48.7658 123.417 48.7348 123.347 48.7348H25.6524Z" fill="#626EE3"/>
<path d="M74.4142 45.8826C74.9821 45.8826 75.4424 45.3692 75.4424 44.7358C75.4424 44.1025 74.9821 43.5891 74.4142 43.5891C73.8463 43.5891 73.386 44.1025 73.386 44.7358C73.386 45.3692 73.8463 45.8826 74.4142 45.8826Z" fill="#626EE3"/>
<path d="M130.268 107.54H120.484V106.413C120.484 106.351 120.422 106.301 120.345 106.301H116.99C116.913 106.301 116.85 106.351 116.85 106.413V107.54H114.754V106.413C114.754 106.351 114.691 106.301 114.614 106.301H111.26C111.182 106.301 111.12 106.351 111.12 106.413V107.54H109.023V106.413C109.023 106.351 108.961 106.301 108.883 106.301H105.529C105.452 106.301 105.389 106.351 105.389 106.413V107.54H103.293V106.413C103.293 106.351 103.23 106.301 103.153 106.301H99.7984C99.7212 106.301 99.6586 106.351 99.6586 106.413V107.54H97.562V106.413C97.562 106.351 97.4995 106.301 97.4223 106.301H94.0678C93.9906 106.301 93.928 106.351 93.928 106.413V107.54H91.8315V106.413C91.8315 106.351 91.7689 106.301 91.6917 106.301H88.3372C88.26 106.301 88.1974 106.351 88.1974 106.413V107.54H86.1009V106.413C86.1009 106.351 86.0383 106.301 85.9611 106.301H59.6843C59.6071 106.301 59.5446 106.351 59.5446 106.413V107.54H57.448V106.413C57.448 106.351 57.3854 106.301 57.3083 106.301H53.9538C53.8766 106.301 53.814 106.351 53.814 106.413V107.54H51.7174V106.413C51.7174 106.351 51.6549 106.301 51.5777 106.301H48.2232C48.146 106.301 48.0834 106.351 48.0834 106.413V107.54H45.9869V106.413C45.9869 106.351 45.9243 106.301 45.8471 106.301H42.4926C42.4154 106.301 42.3528 106.351 42.3528 106.413V107.54H40.2563V106.413C40.2563 106.351 40.1937 106.301 40.1165 106.301H36.762C36.6848 106.301 36.6223 106.351 36.6223 106.413V107.54H34.5257V106.413C34.5257 106.351 34.4631 106.301 34.3859 106.301H31.0315C30.9543 106.301 30.8917 106.351 30.8917 106.413V107.54H28.7951V106.413C28.7951 106.351 28.7326 106.301 28.6554 106.301H25.3009C25.2237 106.301 25.1611 106.351 25.1611 106.413V107.54H18.7317C16.8791 107.54 15.3772 108.744 15.3772 110.229V111.445C15.3772 112.93 16.879 114.134 18.7317 114.134H130.268C132.121 114.134 133.623 112.93 133.623 111.445V110.229C133.623 108.744 132.121 107.54 130.268 107.54Z" fill="#3F3D56"/>
<path d="M63.1255 74.0695H34.2491C34.1888 74.0695 34.131 74.0427 34.0883 73.9952C34.0457 73.9476 34.0217 73.8831 34.0217 73.8159C34.0217 73.7486 34.0457 73.6841 34.0883 73.6366C34.131 73.589 34.1888 73.5623 34.2491 73.5623H63.1255C63.1858 73.5623 63.2437 73.589 63.2863 73.6366C63.329 73.6841 63.3529 73.7486 63.3529 73.8159C63.3529 73.8831 63.329 73.9476 63.2863 73.9952C63.2437 74.0427 63.1858 74.0695 63.1255 74.0695Z" fill="#F2F2F2"/>
<path d="M63.1255 79.6481H34.2491C34.1888 79.6481 34.131 79.6214 34.0883 79.5738C34.0457 79.5263 34.0217 79.4618 34.0217 79.3945C34.0217 79.3273 34.0457 79.2628 34.0883 79.2152C34.131 79.1677 34.1888 79.141 34.2491 79.141H63.1255C63.1858 79.141 63.2437 79.1677 63.2863 79.2152C63.329 79.2628 63.3529 79.3273 63.3529 79.3945C63.3529 79.4618 63.329 79.5263 63.2863 79.5738C63.2437 79.6214 63.1858 79.6481 63.1255 79.6481Z" fill="#F2F2F2"/>
<path d="M63.1255 85.2268H34.2491C34.2191 85.2269 34.1895 85.2204 34.1618 85.2077C34.1342 85.195 34.109 85.1763 34.0878 85.1528C34.0666 85.1292 34.0498 85.1012 34.0384 85.0704C34.0269 85.0396 34.021 85.0066 34.021 84.9732C34.021 84.9398 34.0269 84.9068 34.0384 84.876C34.0498 84.8452 34.0666 84.8172 34.0878 84.7936C34.109 84.7701 34.1342 84.7514 34.1618 84.7387C34.1895 84.726 34.2191 84.7195 34.2491 84.7196H63.1255C63.1554 84.7195 63.185 84.726 63.2127 84.7387C63.2404 84.7514 63.2655 84.7701 63.2867 84.7936C63.3079 84.8172 63.3247 84.8452 63.3362 84.876C63.3476 84.9068 63.3536 84.9398 63.3536 84.9732C63.3536 85.0066 63.3476 85.0396 63.3362 85.0704C63.3247 85.1012 63.3079 85.1292 63.2867 85.1528C63.2655 85.1763 63.2404 85.195 63.2127 85.2077C63.185 85.2204 63.1554 85.2269 63.1255 85.2268Z" fill="#F2F2F2"/>
<path d="M112.124 59.4888H76.4269C76.0501 59.4888 75.7448 59.8294 75.7448 60.2496V98.5395C75.7448 98.9597 76.0501 99.3003 76.4269 99.3003H112.124C112.501 99.3003 112.807 98.9597 112.807 98.5395V60.2496C112.807 59.8294 112.501 59.4888 112.124 59.4888Z" fill="#F6F9FC"/>
<path d="M83.1661 80.5583C83.2884 78.147 84.1746 75.8625 85.6667 74.1121C87.1588 72.3617 89.1598 71.2592 91.313 71.0012C93.4662 70.7432 95.6316 71.3463 97.4231 72.7032C99.2146 74.0601 100.516 76.0824 101.095 78.4097C101.205 78.4052 101.316 78.4003 101.428 78.4003C101.809 78.4043 102.187 78.476 102.547 78.6127C107.093 80.2773 105.896 87.8455 101.112 87.8455H89.3541C88.5225 87.8482 87.6991 87.6636 86.933 87.303C86.1668 86.9423 85.4739 86.413 84.8955 85.7466C84.3172 85.0803 83.8653 84.2906 83.5671 83.4249C83.2688 82.5593 83.1302 81.6354 83.1596 80.7086C83.1615 80.6585 83.1636 80.6084 83.1661 80.5583Z" fill="#626EE3"/>
<path d="M93.883 80.3995V76.2284H91.8691V80.3995H90.2612L91.5686 82.9252L92.8761 85.4506L94.1835 82.9252L95.4908 80.3995H93.883Z" fill="#F6F9FC"/>
</g>
<defs>
<clipPath id="clip0_2_387">
<rect width="149" height="159" fill="white"/>
</clipPath>
</defs>
</svg>
