<svg width="166" height="122" viewBox="0 0 166 122" fill="none" xmlns="http://www.w3.org/2000/svg">
<path d="M25.3226 104.244C21.6364 107.918 20.5917 114.381 20.5917 114.381C20.5917 114.381 25.5235 114.889 29.2096 111.215C32.8958 107.542 33.9405 101.078 33.9405 101.078C33.9405 101.078 29.0088 100.57 25.3226 104.244Z" fill="#F1F1F1"/>
<path d="M26.8582 105.969C25.0866 111.641 20.6496 114.564 20.6496 114.564C20.6496 114.564 19.085 108.29 20.8566 102.618C22.6282 96.9461 27.0652 94.0231 27.0652 94.0231C27.0652 94.0231 28.6298 100.297 26.8582 105.969Z" fill="#F1F1F1"/>
<path d="M132.913 89.5713C132.521 86.044 132.418 82.4703 132.604 78.9132L132.913 73.0261C131.213 77.5495 131.597 83.5032 132.913 89.5712V89.5713Z" fill="#CACACA"/>
<path d="M134.239 90.5561C134.05 88.4513 134.001 86.3284 134.09 84.212L134.239 80.7078C133.421 83.4003 133.606 86.9441 134.239 90.5561Z" fill="#CACACA"/>
<path d="M140.133 94.8898V96.8595C140.132 97.0159 140.085 97.1657 140.003 97.2764C139.92 97.387 139.808 97.4495 139.691 97.4503H138.954C138.935 97.4503 138.916 97.4553 138.898 97.4651C138.88 97.475 138.863 97.4895 138.85 97.5078C138.836 97.5261 138.825 97.5479 138.818 97.5718C138.81 97.5958 138.807 97.6214 138.807 97.6473V113.799C138.806 113.955 138.759 114.105 138.677 114.215C138.594 114.326 138.482 114.389 138.365 114.389H129.378C129.261 114.389 129.148 114.327 129.065 114.216C128.983 114.105 128.936 113.955 128.936 113.799V97.6473C128.936 97.5951 128.92 97.5451 128.893 97.5082C128.865 97.4713 128.828 97.4505 128.789 97.4503H127.905C127.787 97.4502 127.675 97.3879 127.592 97.2771C127.509 97.1664 127.463 97.0161 127.463 96.8595V94.8898C127.463 94.8122 127.474 94.7353 127.496 94.6635C127.518 94.5918 127.551 94.5266 127.592 94.4717C127.633 94.4168 127.682 94.3733 127.735 94.3437C127.789 94.314 127.847 94.2988 127.905 94.2989H139.691C139.808 94.2994 139.92 94.3618 140.003 94.4725C140.086 94.5832 140.132 94.7332 140.133 94.8898Z" fill="#F2F2F2"/>
<path d="M138.82 97.864H128.949V98.4549H138.82V97.864Z" fill="#E6E6E6"/>
<path d="M138.807 106.559C135.504 108.386 132.165 108.407 128.789 106.559V102.396C132.039 100.937 135.557 100.937 138.807 102.396V106.559Z" fill="#E6E6E6"/>
<path d="M83.4794 42.9088C90.8529 42.9088 96.8303 34.9174 96.8303 25.0594C96.8303 15.2015 90.8529 7.21007 83.4794 7.21007C76.1058 7.21007 70.1284 15.2015 70.1284 25.0594C70.1284 34.9174 76.1058 42.9088 83.4794 42.9088Z" fill="#FEB8B8"/>
<path d="M95.9494 9.66047C93.9533 5.32704 90.8288 2.13389 87.1773 0.695705L85.5383 2.29479V0.218426C84.6613 0.0389843 83.7738 -0.0301417 82.8872 0.0119569L81.4731 1.72253V0.154072C79.3794 0.501908 77.3623 1.42594 75.5491 2.86791C73.7358 4.30987 72.1657 6.23848 70.9377 8.53213C67.8668 14.4508 67.3484 22.6851 70.3689 28.6513C71.1979 25.2446 72.2043 22.0481 73.0336 18.6418C73.6853 18.7605 74.3458 18.7648 74.9983 18.6545L76.007 15.5076L76.2888 18.5213C79.4155 18.1572 84.0531 17.3575 87.0172 16.6249L86.7289 14.3128L88.4534 16.234C89.3615 15.9546 89.9007 15.701 89.8562 15.5073C92.0607 20.2588 94.7587 23.2935 96.9629 28.0449C97.8002 21.3451 98.7639 15.7743 95.9494 9.66047Z" fill="#2F2E41"/>
<path d="M112.193 70.9597C111.734 67.267 111.261 63.5035 109.977 60.1769C109.133 57.998 107.794 55.9217 105.989 55.4909C105.633 55.4485 105.284 55.3403 104.95 55.1695C104.421 54.8288 97.3128 49.4035 96.183 48.4586C95.2129 47.6474 93.6815 46.1454 92.9094 46.1454C92.1326 46.1226 89.1539 47.0494 77.5278 45.8344C77.5278 45.8344 74.334 47.5175 71.8627 49.5583C71.8252 49.5253 59.7959 58.1615 59.344 58.1388C58.4881 58.0906 57.6926 58.8232 57.2019 59.7458C56.7114 60.6683 56.4813 61.8104 56.2404 62.9147C58.8678 70.7374 61.2717 78.57 63.8994 86.3927C64.0224 86.6873 64.0878 87.0187 64.0894 87.3562C64.0366 87.7064 63.9248 88.0359 63.7625 88.3197C62.474 91.087 62.5149 94.5677 62.6557 97.8202C62.7966 101.073 62.9708 104.508 61.8835 107.424C61.5878 108.224 61.2032 108.957 60.922 109.757C60.2633 111.57 60.0253 117.368 60.41 119.315L108.61 121.162C107.574 117.353 112.193 70.9597 112.193 70.9597Z" fill="#626EE3"/>
<path d="M52.0741 86.7395C51.9779 87.6696 51.9682 88.6121 52.0452 89.5454L52.7361 102.809C52.8009 104.06 52.8648 105.307 52.9525 106.554C53.1183 108.974 53.3659 111.375 53.6732 113.772C53.6802 114.113 53.7878 114.435 53.9726 114.67C54.1574 114.904 54.4041 115.031 54.6587 115.022C57.6998 115.883 60.8417 115.848 63.9453 115.614C68.6812 115.26 80.7975 114.592 81.5377 113.306C82.278 112.021 81.8466 109.941 80.8814 108.902C79.9161 107.862 63.927 105.328 63.927 105.328C64.0832 103.672 64.5545 102.114 65.0016 100.542C65.8046 97.7548 66.5547 94.876 66.5691 91.8901C66.5835 88.9043 65.7421 85.765 63.9126 84.0544C62.4076 82.6501 60.47 82.3896 58.6361 82.4474C57.3018 82.4987 54.9964 82.0713 53.7777 82.7688C52.8133 83.3366 52.2542 85.477 52.0741 86.7395Z" fill="#FBBEBE"/>
<path d="M56.1014 63.1528C55.8672 63.4806 55.6857 63.8689 55.5678 64.2939C53.6246 70.1488 52.4769 76.4196 52.1783 82.8125C52.1835 83.1243 52.1298 83.4327 52.0221 83.7093C51.9158 83.8933 51.7975 84.0643 51.6687 84.2203C51.5563 84.3984 51.4713 84.6043 51.4184 84.8263C51.3656 85.0484 51.346 85.2821 51.3607 85.5143C51.3754 85.7465 51.4242 85.9725 51.5043 86.1794C51.5844 86.3864 51.6942 86.5702 51.8274 86.7204C51.8492 86.7451 51.8716 86.7687 51.8946 86.7915C52.2913 85.7935 53.2408 85.4673 54.0847 85.3806C58.1257 84.9532 62.073 87.4666 66.1261 87.277C65.8401 85.956 65.4288 84.6865 65.1956 83.3497C64.1643 77.4134 66.7366 70.9503 65.1596 65.2326C64.8446 64.0884 64.3182 62.9635 63.4889 62.4622C63.1455 62.277 62.7861 62.1498 62.4192 62.0836C61.395 61.8362 59.3563 60.7788 58.3661 61.2031C58.0006 61.3607 57.8565 61.8201 57.5536 62.0977C57.0933 62.4907 56.4828 62.6353 56.1014 63.1528Z" fill="#626EE3"/>
<path d="M112.222 82.7688C111.004 82.0713 108.698 82.4987 107.364 82.4474C105.53 82.3896 103.592 82.6501 102.087 84.0544C100.258 85.765 99.4165 88.9043 99.4309 91.8901C99.4453 94.876 100.195 97.7548 100.998 100.542C101.445 102.114 101.917 103.672 102.073 105.328C102.073 105.328 86.0838 107.862 85.1186 108.902C84.1534 109.941 83.722 112.021 84.4623 113.306C85.2025 114.592 108.3 115.883 111.341 115.022C111.596 115.031 111.843 114.904 112.027 114.67C112.212 114.435 112.32 114.113 112.327 113.772C112.634 111.375 112.882 108.974 113.047 106.554C113.135 105.307 113.199 104.06 113.264 102.809L113.955 89.5454C114.032 88.6121 114.022 87.6696 113.926 86.7395C113.746 85.477 113.187 83.3366 112.222 82.7688Z" fill="#FBBEBE"/>
<path d="M108.446 62.0977C108.143 61.82 107.999 61.3607 107.634 61.2031C106.644 60.7788 104.605 61.8362 103.581 62.0836C103.214 62.1498 102.854 62.277 102.511 62.4622C101.682 62.9635 101.155 64.0884 100.84 65.2326C99.2634 70.9503 101.836 77.4134 100.804 83.3496C100.571 84.6865 100.16 85.9559 99.8739 87.277C103.927 87.4666 107.874 84.9532 111.915 85.3806C112.759 85.4673 113.709 85.7935 114.105 86.7915C114.128 86.7687 114.151 86.7451 114.173 86.7204C114.306 86.5702 114.416 86.3864 114.496 86.1794C114.576 85.9725 114.625 85.7464 114.639 85.5143C114.654 85.2821 114.634 85.0484 114.582 84.8263C114.529 84.6043 114.444 84.3984 114.331 84.2203C114.202 84.0643 114.084 83.8933 113.978 83.7093C113.87 83.4327 113.816 83.1243 113.822 82.8125C113.523 76.4196 112.375 70.1488 110.432 64.2939C110.314 63.8689 110.133 63.4806 109.899 63.1528C109.517 62.6353 108.907 62.4907 108.446 62.0977Z" fill="#626EE3"/>
<path d="M79.5253 115.656C81.5154 115.656 83.1287 113.499 83.1287 110.838C83.1287 108.178 81.5154 106.021 79.5253 106.021C77.5352 106.021 75.9219 108.178 75.9219 110.838C75.9219 113.499 77.5352 115.656 79.5253 115.656Z" fill="#FBBEBE"/>
<path d="M87.5043 115.656C89.4944 115.656 91.1077 113.499 91.1077 110.838C91.1077 108.178 89.4944 106.021 87.5043 106.021C85.5142 106.021 83.9009 108.178 83.9009 110.838C83.9009 113.499 85.5142 115.656 87.5043 115.656Z" fill="#FBBEBE"/>
<path d="M109.747 121.694H60.2418C59.6638 121.693 59.1097 121.386 58.701 120.839C58.2922 120.293 58.0623 119.552 58.0616 118.779V78.6263C58.0623 77.8536 58.2922 77.1128 58.701 76.5664C59.1097 76.02 59.6638 75.7127 60.2418 75.7118H109.747C110.325 75.7127 110.879 76.02 111.288 76.5664C111.697 77.1128 111.927 77.8536 111.927 78.6263V118.779C111.927 119.552 111.697 120.293 111.288 120.839C110.879 121.386 110.325 121.693 109.747 121.694Z" fill="#3F3D56"/>
<path d="M84.8744 100.631C85.671 100.631 86.3168 99.7679 86.3168 98.7029C86.3168 97.6378 85.671 96.7745 84.8744 96.7745C84.0778 96.7745 83.432 97.6378 83.432 98.7029C83.432 99.7679 84.0778 100.631 84.8744 100.631Z" fill="#F6F9FC"/>
<path d="M166 113.595H0V120.415H9.81871V122H156.185V120.415H166V113.595Z" fill="#F1F1F1"/>
<path d="M71.2024 31.7122C69.0572 31.7122 67.3181 29.1984 67.3181 26.0973V23.2899C67.3181 20.1889 69.0572 17.675 71.2024 17.675V31.7122H71.2024Z" fill="#626EE3"/>
<path d="M95.9944 17.675C98.1396 17.675 99.8787 20.1889 99.8787 23.2899V26.0973C99.8787 29.1984 98.1396 31.7122 95.9944 31.7122V17.675Z" fill="#626EE3"/>
<path d="M98.03 23.731H97.4137C97.4137 12.4328 91.055 3.24094 83.239 3.24094C75.4231 3.24094 69.0643 12.4328 69.0643 23.731H68.448C68.448 11.9415 75.0832 2.35007 83.239 2.35007C91.3948 2.35007 98.03 11.9415 98.03 23.731Z" fill="#626EE3"/>
</svg>
