<svg width="166" height="122" viewBox="0 0 166 122" fill="none" xmlns="http://www.w3.org/2000/svg">
<g clip-path="url(#clip0_2_360)">
<path d="M166 95.204C166.004 96.0211 165.741 96.8064 165.27 97.3872C164.799 97.968 164.159 98.2967 163.489 98.3009H53.0223C52.6908 98.2988 52.363 98.2171 52.0574 98.0603C51.7519 97.9035 51.4746 97.6748 51.2415 97.3872C51.0083 97.0997 50.8238 96.7589 50.6986 96.3843C50.5734 96.0097 50.5098 95.6086 50.5115 95.2041V3.09695C50.508 2.27986 50.7706 1.49454 51.2414 0.913754C51.7123 0.332964 52.3528 0.00427682 53.0222 3.8147e-06H163.489C163.821 0.00210831 164.149 0.0838812 164.454 0.240652C164.76 0.397423 165.037 0.626122 165.27 0.913693C165.503 1.20126 165.688 1.54207 165.813 1.91666C165.938 2.29125 166.002 2.69229 166 3.09687V3.09696V95.204Z" fill="#E6E6E6"/>
<path d="M164.697 93.6957C164.697 94.4899 164.438 95.2515 163.978 95.8131C163.518 96.3747 162.894 96.6902 162.244 96.6902H54.3434C53.6928 96.6902 53.0688 96.3747 52.6088 95.8131C52.1487 95.2515 51.8903 94.4899 51.8903 93.6957V4.64743C51.8903 3.85324 52.1487 3.09157 52.6088 2.52999C53.0688 1.96841 53.6928 1.65292 54.3434 1.65292H162.249C162.898 1.65451 163.521 1.97071 163.98 2.53212C164.439 3.09352 164.697 3.85428 164.697 4.64743V93.6957Z" fill="#F6F9FC"/>
<path d="M57.6572 5.51907H159.045C159.431 5.51907 159.802 5.70634 160.075 6.03967C160.348 6.373 160.501 6.8251 160.501 7.2965V90.7012C160.501 91.1726 160.348 91.6247 160.075 91.958C159.802 92.2913 159.431 92.4786 159.045 92.4786H57.6572C57.271 92.4786 56.9006 92.2913 56.6275 91.958C56.3545 91.6247 56.201 91.1726 56.201 90.7012V7.2965C56.201 6.8251 56.3545 6.373 56.6275 6.03967C56.9006 5.70634 57.271 5.51907 57.6572 5.51907Z" fill="#E6E6E6"/>
<path d="M58.9404 7.51943H157.652C158.038 7.51943 158.408 7.7067 158.681 8.04003C158.954 8.37336 159.108 8.82546 159.108 9.29686V88.2509C159.108 88.7223 158.954 89.1744 158.681 89.5078C158.408 89.8411 158.038 90.0284 157.652 90.0284H58.9404C58.5542 90.0284 58.1838 89.8411 57.9107 89.5078C57.6377 89.1744 57.4843 88.7223 57.4843 88.2509V9.29686C57.4843 8.82546 57.6377 8.37336 57.9107 8.04003C58.1838 7.7067 58.5542 7.51943 58.9404 7.51943Z" fill="#F6F9FC"/>
<path d="M128.637 62.3673C128.249 62.3669 127.865 62.267 127.51 62.074C127.427 62.0293 127.348 61.9746 127.275 61.911L120.101 55.7469C119.737 55.4342 119.44 55.0194 119.235 54.5374C119.03 54.0554 118.923 53.5203 118.923 52.9772V44.5706C118.923 44.0275 119.03 43.4924 119.235 43.0104C119.44 42.5284 119.737 42.1135 120.101 41.8009L127.275 35.6368C127.348 35.5731 127.427 35.5185 127.51 35.4738C127.932 35.2445 128.395 35.1476 128.856 35.1922C129.317 35.2367 129.762 35.4211 130.15 35.7287C130.537 36.0363 130.856 36.4572 131.077 36.9534C131.297 37.4495 131.413 38.0051 131.413 38.5696V58.9782C131.413 59.8768 131.12 60.7385 130.6 61.3739C130.079 62.0093 129.373 62.3662 128.637 62.3662L128.637 62.3673Z" fill="#3F3D56"/>
<path d="M112.582 64.02H92.5736C88.4915 64.0159 85.1834 60.7949 85.1792 56.8204V40.7273C85.1834 36.7528 88.4915 33.5319 92.5736 33.5278H112.634C116.687 33.5325 119.972 36.7303 119.976 40.6765V56.8204C119.972 60.7949 116.664 64.0159 112.582 64.02Z" fill="#3F3D56"/>
<path d="M148.224 84.9513C151.51 84.9513 154.174 81.6992 154.174 77.6875C154.174 73.6758 151.51 70.4237 148.224 70.4237C144.937 70.4237 142.273 73.6758 142.273 77.6875C142.273 81.6992 144.937 84.9513 148.224 84.9513Z" fill="#E6E6E6"/>
<path d="M151.315 77.5573L146.571 74.2144C146.553 74.2012 146.531 74.1943 146.51 74.1943C146.488 74.1943 146.467 74.2012 146.448 74.2144C146.429 74.2276 146.414 74.2466 146.403 74.2694C146.392 74.2923 146.386 74.3182 146.386 74.3446V81.0304C146.386 81.0568 146.392 81.0827 146.403 81.1056C146.414 81.1284 146.429 81.1474 146.448 81.1606C146.467 81.1738 146.488 81.1807 146.51 81.1807C146.531 81.1807 146.553 81.1738 146.571 81.1606L151.315 77.8177C151.333 77.8045 151.349 77.7855 151.36 77.7627C151.37 77.7398 151.376 77.7139 151.376 77.6875C151.376 77.6611 151.37 77.6352 151.36 77.6123C151.349 77.5895 151.333 77.5705 151.315 77.5573L146.571 74.2144C146.553 74.2012 146.531 74.1943 146.51 74.1943C146.488 74.1943 146.467 74.2012 146.448 74.2144C146.429 74.2276 146.414 74.2466 146.403 74.2694C146.392 74.2923 146.386 74.3182 146.386 74.3446V81.0304C146.386 81.0568 146.392 81.0827 146.403 81.1056C146.414 81.1284 146.429 81.1474 146.448 81.1606C146.467 81.1738 146.488 81.1807 146.51 81.1807C146.531 81.1807 146.553 81.1738 146.571 81.1606L151.315 77.8177C151.333 77.8045 151.349 77.7855 151.36 77.7627C151.37 77.7398 151.376 77.7139 151.376 77.6875C151.376 77.6611 151.37 77.6352 151.36 77.6123C151.349 77.5895 151.333 77.5705 151.315 77.5573Z" fill="#F6F9FC"/>
<path d="M140.497 106.25C140.501 107.067 140.238 107.853 139.768 108.433C139.297 109.014 138.656 109.343 137.987 109.347H27.5197C27.1883 109.345 26.8604 109.263 26.5549 109.106C26.2493 108.95 25.972 108.721 25.7389 108.433C25.5057 108.146 25.3213 107.805 25.196 107.43C25.0708 107.056 25.0072 106.655 25.0089 106.25V14.1431C25.0054 13.326 25.268 12.5407 25.7388 11.9599C26.2097 11.3791 26.8503 11.0505 27.5196 11.0462H137.987C138.318 11.0483 138.646 11.1301 138.952 11.2868C139.257 11.4436 139.534 11.6723 139.768 11.9599C140.001 12.2474 140.185 12.5883 140.31 12.9628C140.436 13.3374 140.499 13.7385 140.497 14.143V14.1431V106.25Z" fill="#E6E6E6"/>
<path d="M139.194 104.742C139.194 105.536 138.936 106.298 138.476 106.859C138.016 107.421 137.392 107.736 136.741 107.736H28.8409C28.1902 107.736 27.5663 107.421 27.1062 106.859C26.6462 106.298 26.3877 105.536 26.3877 104.742V15.6936C26.3877 14.8994 26.6462 14.1378 27.1062 13.5762C27.5663 13.0146 28.1902 12.6991 28.8409 12.6991H136.746C137.396 12.7007 138.019 13.0169 138.478 13.5783C138.937 14.1397 139.194 14.9005 139.194 15.6936V104.742Z" fill="#F6F9FC"/>
<path d="M32.1546 16.5652H133.543C133.929 16.5652 134.299 16.7525 134.572 17.0858C134.845 17.4192 134.999 17.8713 134.999 18.3427V101.747C134.999 102.219 134.845 102.671 134.572 103.004C134.299 103.338 133.929 103.525 133.543 103.525H32.1546C31.7684 103.525 31.398 103.338 31.125 103.004C30.8519 102.671 30.6985 102.219 30.6985 101.747V18.3427C30.6985 17.8713 30.8519 17.4192 31.125 17.0858C31.398 16.7525 31.7684 16.5652 32.1546 16.5652Z" fill="#E6E6E6"/>
<path d="M33.4379 18.5656H132.149C132.535 18.5656 132.906 18.7529 133.179 19.0862C133.452 19.4195 133.605 19.8716 133.605 20.343V99.2971C133.605 99.7685 133.452 100.221 133.179 100.554C132.906 100.887 132.535 101.075 132.149 101.075H33.4379C33.0517 101.075 32.6814 100.887 32.4083 100.554C32.1352 100.221 31.9818 99.7685 31.9818 99.2971V20.343C31.9818 19.8716 32.1352 19.4195 32.4083 19.0862C32.6814 18.7529 33.0517 18.5656 33.4379 18.5656Z" fill="#F6F9FC"/>
<path d="M103.135 73.4135C102.746 73.4131 102.362 73.3132 102.007 73.1202C101.925 73.0754 101.846 73.0208 101.772 72.9571L94.5983 66.793C94.2345 66.4804 93.9375 66.0656 93.7326 65.5836C93.5276 65.1016 93.4205 64.5664 93.4204 64.0233V55.6168C93.4205 55.0737 93.5276 54.5386 93.7325 54.0565C93.9375 53.5745 94.2345 53.1597 94.5983 52.8471L101.772 46.683C101.846 46.6193 101.925 46.5647 102.007 46.5199C102.43 46.2906 102.893 46.1938 103.354 46.2383C103.815 46.2828 104.259 46.4673 104.647 46.7748C105.035 47.0824 105.354 47.5034 105.574 47.9995C105.795 48.4957 105.91 49.0512 105.91 49.6158V70.0244C105.91 70.9229 105.618 71.7847 105.097 72.4201C104.577 73.0554 103.871 73.4124 103.135 73.4124L103.135 73.4135Z" fill="#3F3D56"/>
<path d="M87.0796 75.0662H67.0712C62.9891 75.0621 59.681 71.8411 59.6768 67.8666V51.7735C59.681 47.799 62.9891 44.5781 67.0712 44.574H87.1318C91.1848 44.5786 94.4692 47.7765 94.474 51.7227V67.8666C94.4698 71.8411 91.1617 75.0621 87.0796 75.0662Z" fill="#3F3D56"/>
<path d="M122.721 95.9975C126.008 95.9975 128.672 92.7454 128.672 88.7337C128.672 84.722 126.008 81.4698 122.721 81.4698C119.435 81.4698 116.771 84.722 116.771 88.7337C116.771 92.7454 119.435 95.9975 122.721 95.9975Z" fill="#E6E6E6"/>
<path d="M125.812 88.6035L121.069 85.2606C121.05 85.2474 121.029 85.2404 121.007 85.2404C120.985 85.2404 120.964 85.2474 120.946 85.2606C120.927 85.2738 120.911 85.2928 120.9 85.3156C120.89 85.3385 120.884 85.3644 120.884 85.3908V92.0766C120.884 92.1029 120.89 92.1289 120.9 92.1517C120.911 92.1746 120.927 92.1936 120.946 92.2068C120.964 92.22 120.985 92.2269 121.007 92.2269C121.029 92.2269 121.05 92.22 121.069 92.2068L125.812 88.8639C125.831 88.8507 125.846 88.8317 125.857 88.8089C125.868 88.786 125.874 88.7601 125.874 88.7337C125.874 88.7073 125.868 88.6814 125.857 88.6585C125.846 88.6356 125.831 88.6167 125.812 88.6035L121.069 85.2606C121.05 85.2474 121.029 85.2404 121.007 85.2404C120.985 85.2404 120.964 85.2474 120.946 85.2606C120.927 85.2738 120.911 85.2928 120.9 85.3156C120.89 85.3385 120.884 85.3644 120.884 85.3908V92.0766C120.884 92.103 120.89 92.1289 120.9 92.1517C120.911 92.1746 120.927 92.1936 120.946 92.2068C120.964 92.22 120.985 92.2269 121.007 92.2269C121.029 92.2269 121.05 92.22 121.069 92.2068L125.812 88.8639C125.831 88.8507 125.846 88.8317 125.857 88.8089C125.868 88.786 125.874 88.7601 125.874 88.7337C125.874 88.7073 125.868 88.6813 125.857 88.6585C125.846 88.6356 125.831 88.6167 125.812 88.6035Z" fill="#F6F9FC"/>
<path d="M115.489 118.903C115.492 119.72 115.229 120.505 114.759 121.086C114.288 121.667 113.647 121.996 112.978 122H2.5108C2.17935 121.998 1.8515 121.916 1.54594 121.759C1.24039 121.603 0.963126 121.374 0.72998 121.086C0.496834 120.799 0.312372 120.458 0.187128 120.083C0.0618838 119.709 -0.00169026 119.308 3.45509e-05 118.903V26.796C-0.00346553 25.9789 0.259086 25.1936 0.729932 24.6128C1.20078 24.032 1.84135 23.7033 2.51073 23.6991H112.978C113.309 23.7012 113.637 23.783 113.943 23.9397C114.248 24.0965 114.525 24.3252 114.759 24.6128C114.992 24.9003 115.176 25.2411 115.301 25.6157C115.427 25.9903 115.49 26.3914 115.489 26.7959V26.796V118.903Z" fill="#E6E6E6"/>
<path d="M114.186 117.395C114.186 118.189 113.927 118.951 113.467 119.512C113.007 120.074 112.383 120.389 111.732 120.389H3.83208C3.18146 120.389 2.55749 120.074 2.09743 119.512C1.63737 118.951 1.37891 118.189 1.37891 117.395V28.3465C1.37891 27.5523 1.63737 26.7906 2.09743 26.229C2.55749 25.6675 3.18146 25.352 3.83208 25.352H111.737C112.387 25.3536 113.01 25.6698 113.469 26.2312C113.928 26.7926 114.186 27.5533 114.186 28.3465V117.395Z" fill="#F6F9FC"/>
<path d="M7.14556 29.2181H108.534C108.92 29.2181 109.29 29.4054 109.563 29.7387C109.836 30.0721 109.99 30.5242 109.99 30.9956V114.4C109.99 114.872 109.836 115.324 109.563 115.657C109.29 115.99 108.92 116.178 108.534 116.178H7.14556C6.75938 116.178 6.38901 115.99 6.11594 115.657C5.84286 115.324 5.68945 114.872 5.68945 114.4V30.9956C5.68945 30.5242 5.84286 30.0721 6.11594 29.7387C6.38901 29.4054 6.75938 29.2181 7.14556 29.2181Z" fill="#E6E6E6"/>
<path d="M8.42913 31.2185H107.14C107.331 31.2185 107.521 31.2645 107.698 31.3538C107.874 31.4431 108.035 31.574 108.17 31.7391C108.305 31.9041 108.412 32.1001 108.486 32.3157C108.559 32.5314 108.596 32.7625 108.596 32.9959V111.95C108.596 112.183 108.559 112.415 108.486 112.63C108.412 112.846 108.305 113.042 108.17 113.207C108.035 113.372 107.874 113.503 107.698 113.592C107.521 113.681 107.331 113.727 107.14 113.727H8.42913C8.04295 113.727 7.67258 113.54 7.39951 113.207C7.12643 112.873 6.97302 112.421 6.97302 111.95V32.9959C6.97302 32.5245 7.12643 32.0724 7.39951 31.7391C7.67258 31.4058 8.04295 31.2185 8.42913 31.2185Z" fill="#F6F9FC"/>
<path d="M78.1258 86.0663C77.7373 86.066 77.3531 85.9661 76.9982 85.7731C76.9157 85.7283 76.8369 85.6737 76.7632 85.61L69.5892 79.4459C69.2254 79.1333 68.9285 78.7185 68.7235 78.2365C68.5185 77.7545 68.4115 77.2193 68.4114 76.6762V68.2697C68.4115 67.7266 68.5185 67.1915 68.7235 66.7094C68.9285 66.2274 69.2254 65.8126 69.5892 65.5L76.7632 59.3359C76.8369 59.2722 76.9156 59.2176 76.9982 59.1729C77.4208 58.9435 77.8836 58.8467 78.3446 58.8912C78.8057 58.9357 79.2503 59.1202 79.6381 59.4277C80.0258 59.7353 80.3445 60.1563 80.5651 60.6524C80.7858 61.1486 80.9013 61.7042 80.9013 62.2687V82.6773C80.9013 83.5758 80.6089 84.4376 80.0884 85.073C79.5679 85.7083 78.8619 86.0653 78.1258 86.0653L78.1258 86.0663Z" fill="#626EE3"/>
<path d="M62.0707 87.7191H42.0623C37.9802 87.715 34.672 84.494 34.6678 80.5195V64.4264C34.672 60.4519 37.9802 57.2309 42.0623 57.2269H62.1229C66.1759 57.2315 69.4603 60.4294 69.4651 64.3756V80.5195C69.4609 84.494 66.1527 87.715 62.0707 87.7191Z" fill="#626EE3"/>
<path d="M97.7124 108.65C100.999 108.65 103.663 105.398 103.663 101.387C103.663 97.3749 100.999 94.1227 97.7124 94.1227C94.4259 94.1227 91.7617 97.3749 91.7617 101.387C91.7617 105.398 94.4259 108.65 97.7124 108.65Z" fill="#3F3D56"/>
<path d="M100.803 101.256L96.0598 97.9135C96.041 97.9003 96.0198 97.8933 95.9982 97.8933C95.9765 97.8933 95.9553 97.9003 95.9366 97.9135C95.9179 97.9267 95.9023 97.9457 95.8915 97.9685C95.8807 97.9914 95.875 98.0173 95.875 98.0437V104.729C95.875 104.756 95.8807 104.782 95.8915 104.805C95.9023 104.827 95.9179 104.846 95.9366 104.86C95.9553 104.873 95.9765 104.88 95.9982 104.88C96.0198 104.88 96.041 104.873 96.0598 104.86L100.803 101.517C100.822 101.504 100.837 101.485 100.848 101.462C100.859 101.439 100.865 101.413 100.865 101.387C100.865 101.36 100.859 101.334 100.848 101.311C100.837 101.289 100.822 101.27 100.803 101.256L96.0598 97.9135C96.041 97.9003 96.0198 97.8933 95.9982 97.8933C95.9765 97.8933 95.9553 97.9003 95.9366 97.9135C95.9179 97.9267 95.9023 97.9457 95.8915 97.9685C95.8807 97.9914 95.875 98.0173 95.875 98.0437V104.729C95.875 104.756 95.8807 104.782 95.8915 104.805C95.9023 104.827 95.9179 104.846 95.9366 104.86C95.9553 104.873 95.9765 104.88 95.9982 104.88C96.0198 104.88 96.041 104.873 96.0598 104.86L100.803 101.517C100.822 101.504 100.837 101.485 100.848 101.462C100.859 101.439 100.865 101.413 100.865 101.387C100.865 101.36 100.859 101.334 100.848 101.311C100.837 101.289 100.822 101.27 100.803 101.256Z" fill="#F6F9FC"/>
</g>
<defs>
<clipPath id="clip0_2_360">
<rect width="166" height="122" fill="white"/>
</clipPath>
</defs>
</svg>
