<svg width="668" height="450" viewBox="0 0 668 450" fill="none" xmlns="http://www.w3.org/2000/svg">
<g clip-path="url(#clip0_2_19)">
<path opacity="0.1" d="M284.187 17.299C257.034 7.35658 228.339 -0.948517 199.048 0.0955526C155.979 1.62606 114.635 24.9575 94.3881 59.216C77.2099 88.2423 75.0903 122.264 67.6903 154.476C58.5836 194.156 41.1096 231.879 22.4525 268.76C12.4339 288.573 1.86075 308.814 0.215626 330.532C-2.06413 360.685 13.9373 390.732 39.0331 410.789C64.129 430.846 97.4566 441.429 130.907 443.736C148.708 444.964 167.31 443.825 183.12 436.362C199.849 428.467 212.042 414.2 228.838 406.417C244.402 399.203 262.61 398.195 280.084 399.132C302.899 400.355 325.421 404.669 346.985 411.945C371.41 420.203 394.121 432.168 418.459 440.545C442.797 448.921 470.055 453.596 494.96 446.607C518.374 440.04 536.859 424.095 553.525 407.947C580.778 381.591 605.757 353.143 628.215 322.885C643.255 302.591 657.254 281.182 663.903 257.53C676.62 212.309 659.121 161.292 620.31 130.409C588.153 104.823 544.998 93.7178 502.755 86.9788C464.233 80.833 419.691 80.4533 384.232 64.4364C350.417 49.1431 319.647 30.2905 284.187 17.299Z" fill="#021E39"/>
<path d="M389.765 367.204V388.756H396.129L394.897 365.62L389.765 367.204Z" fill="#AAABB0"/>
<path d="M294.157 362.856V384.407H300.528L299.295 361.272L294.157 362.856Z" fill="#AAABB0"/>
<path d="M405.372 331.219C405.372 329.034 403.533 327.262 401.265 327.262C398.997 327.262 397.159 329.034 397.159 331.219V361.669C397.159 363.855 398.997 365.626 401.265 365.626C403.533 365.626 405.372 363.855 405.372 361.669V331.219Z" fill="#AAABB0"/>
<path d="M300.01 322.712C300.01 320.527 298.171 318.756 295.903 318.756C293.635 318.756 291.797 320.527 291.797 322.712V361.663C291.797 363.849 293.635 365.62 295.903 365.62C298.171 365.62 300.01 363.849 300.01 361.663V322.712Z" fill="#AAABB0"/>
<path d="M415.853 97.6858C415.853 97.6858 424.066 94.3222 425.298 97.6858C426.531 101.049 427.147 130.117 427.147 130.117H419.34L415.853 97.6858Z" fill="#AAABB0"/>
<path d="M325.894 97.6858C325.894 97.6858 317.675 94.3222 316.443 97.6858C315.21 101.049 314.594 130.117 314.594 130.117H322.401L325.894 97.6858Z" fill="#AAABB0"/>
<path d="M327.121 68.8137L325.888 92.94H331.434V68.2205L327.121 68.8137Z" fill="#AAABB0"/>
<path d="M322.401 130.117L324.046 95.3129C324.046 95.3129 323.43 87.601 342.937 89.9739C362.445 92.3468 419.549 97.0925 419.549 97.0925V130.117H322.401Z" fill="#33323D"/>
<path d="M400.449 313.423L397.368 366.611C397.368 366.611 352.179 390.737 297.342 367.797L302.271 311.839L400.449 313.423Z" fill="#33323D"/>
<path d="M357.522 104.009L358.544 138.416H422.217L418.52 92.9399L357.522 104.009Z" fill="#444053"/>
<path d="M363.991 290.679H304.015V363.841H363.991V290.679Z" fill="#4C4981"/>
<path d="M341.914 320.541C341.914 320.541 350.54 314.016 351.976 315.991C353.412 317.967 346.85 326.474 344.176 325.483C341.502 324.492 341.914 320.541 341.914 320.541Z" fill="#FFB9B9"/>
<path d="M581.326 128.136H187.624V317.967H581.326V128.136Z" fill="#504F60"/>
<path d="M322.604 67.4314C322.604 67.4314 319.523 39.7458 322.604 36.3882C325.685 33.0305 377.442 1.1864 425.298 38.5593C425.298 38.5593 429.814 38.761 428.995 48.6441C428.512 54.8992 428.545 61.1814 429.094 67.4314C429.094 67.4314 326.098 74.5501 322.604 67.4314Z" fill="#33323D"/>
<path opacity="0.1" d="M322.604 67.4314C322.604 67.4314 319.523 39.7458 322.604 36.3882C325.685 33.0305 377.442 1.1864 425.298 38.5593C425.298 38.5593 429.814 38.761 428.995 48.6441C428.512 54.8992 428.545 61.1814 429.094 67.4314C429.094 67.4314 326.098 74.5501 322.604 67.4314Z" fill="black"/>
<path d="M322.604 70.9908C322.604 70.9908 319.523 43.3051 322.604 39.9475C325.685 36.5898 377.442 4.74572 425.298 42.1187C425.298 42.1187 429.814 42.3204 428.995 52.2034C428.512 58.4585 428.545 64.7407 429.094 70.9908C429.094 70.9908 326.098 78.1094 322.604 70.9908Z" fill="#33323D"/>
<path d="M430.844 58.3374C430.844 58.3374 434.128 70.2018 433.105 72.1773C432.082 74.1527 432.267 79.6934 432.267 79.6934C432.267 79.6934 432.489 83.2527 430.844 83.6442C429.198 84.0358 427.763 84.2375 429.094 85.4239C430.425 86.6103 429.094 88.39 429.094 88.39C429.094 88.39 428.373 91.1603 429.094 92.94C429.815 94.7197 424.879 95.4612 425.298 97.6858C425.717 99.9104 427.097 106.187 425.298 106.388C423.499 106.59 425.914 114.296 424.294 114.296C422.673 114.296 421.521 128.136 421.521 128.136C421.521 128.136 410.122 118.846 402.525 121.415C402.525 121.415 403.141 113.703 405.606 110.932C408.071 108.162 407.325 101.049 407.325 101.049L419.549 65.6518L430.844 58.3374Z" fill="#4C4981"/>
<path d="M369.844 221.936C367.177 224.778 364.299 209.603 364.299 209.603C364.299 209.603 356.702 219.688 351.773 212.966C348.359 208.31 351.052 195.116 353.005 187.458C353.88 184.053 354.619 181.739 354.619 181.739L365.71 179.96C365.71 179.96 365.747 182.285 365.994 185.109C366.326 188.923 367.047 193.657 368.581 194.79C371.286 196.754 372.519 219.071 369.844 221.936Z" fill="#AE6E79"/>
<path opacity="0.1" d="M364.096 44.2959C364.096 44.2959 344.786 44.1001 340.066 53.9832C335.346 63.8663 335.137 67.2358 333.288 68.8137C331.44 70.3917 353.412 78.7027 353.412 78.7027L354.441 112.712C354.441 112.712 358.754 108.506 365.735 110.41C372.716 112.315 381.551 110.41 381.551 110.41C381.551 110.41 381.139 109.693 386.894 110.41C392.648 111.128 410.923 101.838 410.923 101.838C410.923 101.838 411.225 86.9604 410.819 83.7926C410.412 80.6248 423.856 57.3468 423.856 57.3468C423.856 57.3468 434.331 47.6594 423.45 44.2959C423.45 44.2959 419.599 38.7077 409.691 38.7611C399.783 38.8145 364.096 44.2959 364.096 44.2959Z" fill="black"/>
<path d="M364.096 43.7026C364.096 43.7026 344.786 43.5069 340.066 53.3899C335.346 63.273 335.137 66.6425 333.288 68.2205C331.44 69.7984 353.412 78.1095 353.412 78.1095L354.441 112.119C354.441 112.119 358.754 107.913 365.735 109.817C372.716 111.721 381.551 109.817 381.551 109.817C381.551 109.817 381.139 109.099 386.894 109.817C392.648 110.535 410.923 101.245 410.923 101.245C410.923 101.245 418.108 89.9739 417.701 86.812C417.294 83.6501 432.076 59.7196 432.076 59.7196C432.076 59.7196 434.337 47.0662 423.45 43.7026C423.45 43.7026 419.599 38.1145 409.691 38.1679C399.783 38.2213 364.096 43.7026 364.096 43.7026Z" fill="#4C4981"/>
<path opacity="0.1" d="M366.043 185.091C361.81 183.822 355.168 186.622 353.054 187.464C353.929 184.059 354.669 181.745 354.669 181.745L365.76 179.966C365.76 179.966 365.778 182.291 366.043 185.091Z" fill="black"/>
<path d="M339.24 68.2205H333.288C333.288 68.2205 332.056 80.2866 333.288 83.8459C334.521 87.4052 335.137 86.8891 334.724 89.523C334.311 92.1569 337.601 96.1908 337.601 96.1908C337.601 96.1908 338.008 106.133 340.066 109.835C342.124 113.537 337.805 130.135 337.805 130.135C338.983 133 340.726 135.619 342.937 137.847C346.431 141.204 348.279 153.662 347.25 158.408C346.221 163.154 350.128 164.933 350.128 164.933C350.128 164.933 351.773 187.084 352.389 187.084C353.005 187.084 364.915 181.152 368.612 186.289L365.735 165.924L365.944 126.576C365.944 126.576 362.038 121.628 364.096 117.28C366.154 112.932 362.451 102.645 362.451 102.645L357.109 79.7112L339.24 68.2205Z" fill="#4C4981"/>
<path d="M302.271 380.848C302.271 380.848 293.645 379.069 293.442 380.848C293.239 382.628 283.171 400.822 295.703 406.161C308.236 411.5 341.705 422.967 396.136 408.136C396.136 408.136 399.623 409.323 398.804 402.008C397.984 394.694 397.984 386.585 397.984 386.585C397.984 386.585 389.765 384.408 383.603 385.202C377.442 385.997 323.837 396.474 302.271 380.848Z" fill="#33323D"/>
<path opacity="0.1" d="M302.271 380.848C302.271 380.848 293.645 379.069 293.442 380.848C293.239 382.628 283.171 400.822 295.703 406.161C308.236 411.5 341.705 422.967 396.136 408.136C396.136 408.136 399.623 409.323 398.804 402.008C397.984 394.694 397.984 386.585 397.984 386.585C397.984 386.585 389.765 384.408 383.603 385.202C377.442 385.997 323.837 396.474 302.271 380.848Z" fill="black"/>
<path d="M302.271 378.475C302.271 378.475 293.645 376.696 293.442 378.475C293.239 380.255 283.171 398.449 295.703 403.788C308.236 409.127 341.705 420.594 396.136 405.764C396.136 405.764 399.623 406.95 398.804 399.636C397.984 392.321 397.984 384.212 397.984 384.212C397.984 384.212 389.765 382.035 383.603 382.83C377.442 383.624 323.837 394.101 302.271 378.475Z" fill="#33323D"/>
<path d="M352.574 75.3273C352.044 78.2282 350.843 81.0163 350.658 83.9527C350.473 86.8892 351.65 90.229 354.466 91.3799C355.251 91.6059 356.013 91.9039 356.739 92.2697C357.824 92.9757 358.267 94.3045 358.495 95.5502C358.798 97.1586 358.87 98.7992 358.711 100.427C358.557 102.064 358.193 103.826 359.031 105.255C360.504 107.788 364.342 107.415 367.263 106.703L366.259 114.195C366.179 114.788 366.129 115.459 366.579 115.862C366.792 116.006 367.032 116.108 367.286 116.161C367.54 116.214 367.802 116.217 368.058 116.171C370.596 116.016 373.209 115.678 375.384 114.391C377.559 113.104 379.179 110.707 378.767 108.293C378.286 105.493 375.279 103.268 375.686 100.456C376 98.2791 378.212 96.8968 379.666 95.224C382.297 92.1629 382.439 87.5121 380.375 84.0477C378.311 80.5833 374.324 78.4358 370.221 78.0443C367.947 77.8248 365.581 78.0917 363.443 77.3324C362.699 77.0697 362.028 76.6449 361.483 76.0913C360.938 75.5376 360.533 74.8701 360.301 74.1409" fill="#444053"/>
<path d="M280.916 339.127L283.066 334.618C283.066 334.618 294.674 324.207 297.342 323.478C300.01 322.748 310.897 319.568 312.543 319.568C314.188 319.568 344.176 317.984 344.176 317.984L347.663 325.898L310.029 333.853L297.342 342.751L280.916 339.127Z" fill="#767D9F"/>
<path d="M371.336 217.712L369.37 232.276L368.612 237.882L359.783 239.068C359.783 239.068 358.828 237.099 357.478 234.073C353.381 224.89 345.667 205.955 350.14 202.686C356.086 198.332 357.534 212.771 357.534 212.771L364.312 209.603L371.336 217.712Z" fill="#FFB9B9"/>
<path d="M369.863 244.805H325.272V309.662H369.863V244.805Z" fill="#F6F9FC"/>
<path opacity="0.1" d="M369.863 244.805H325.272V309.662H369.863V244.805Z" fill="black"/>
<path d="M389.904 248.316L345.793 242.037L335.941 306.197L380.052 312.476L389.904 248.316Z" fill="#F6F9FC"/>
<path d="M372.65 251.388L349.946 248.156L344.875 281.178L367.58 284.41L372.65 251.388Z" fill="#021E39"/>
<path d="M369.948 294.491L342.44 290.575L341.339 297.746L368.847 301.662L369.948 294.491Z" fill="#021E39"/>
<path opacity="0.1" d="M381.551 81.1704C395.786 81.1704 407.325 70.0606 407.325 56.356C407.325 42.6513 395.786 31.5415 381.551 31.5415C367.317 31.5415 355.778 42.6513 355.778 56.356C355.778 70.0606 367.317 81.1704 381.551 81.1704Z" fill="black"/>
<path d="M381.551 80.5773C395.786 80.5773 407.325 69.4675 407.325 55.7628C407.325 42.0582 395.786 30.9484 381.551 30.9484C367.317 30.9484 355.778 42.0582 355.778 55.7628C355.778 69.4675 367.317 80.5773 381.551 80.5773Z" fill="#AE6E79"/>
<path d="M360.3 74.1527C360.125 73.5136 360.188 72.8355 360.479 72.2366C361.459 70.2731 364.25 70.101 366.511 70.2019C371.829 70.4392 377.664 70.4688 381.823 67.2358C383.548 65.907 385.476 62.5671 387.984 63.2019C390.215 63.7654 391.145 66.6782 393.468 67.3248C395.15 67.7934 396.894 67.046 398.606 66.7315C401.071 66.2629 403.597 66.6544 406.099 66.6722C408.6 66.69 411.318 66.2332 413.024 64.4714C415.329 62.0985 414.953 58.3909 414.75 55.14C414.497 50.9407 414.793 46.7275 415.631 42.5993C416.469 38.4942 417.756 33.9027 415.403 30.3849C413.16 27.0332 408.514 26.1137 405.341 23.545C402.371 21.1721 400.8 17.3696 397.664 15.1687C393.714 12.3984 388.348 12.7959 383.492 13.2764L372.956 14.356C370.239 14.6348 367.411 14.9492 365.174 16.5094C361.138 19.3213 360.584 25.1645 356.764 28.2433C355.063 29.6077 352.888 30.284 350.947 31.3044C349.006 32.3247 347.133 33.9383 346.911 36.0501C346.727 37.8298 347.725 39.473 348.212 41.1874C349.364 45.2807 347.565 49.4925 346.412 53.6154C345.26 57.7383 345.038 62.7451 348.384 65.4798C349.062 66.0375 349.85 66.4646 350.51 67.0459C352.771 69.0332 353.079 72.3849 352.555 75.2799" fill="#444053"/>
<path d="M383.653 86.7586C383.993 86.7586 384.269 86.0946 384.269 85.2755C384.269 84.4565 383.993 83.7925 383.653 83.7925C383.312 83.7925 383.036 84.4565 383.036 85.2755C383.036 86.0946 383.312 86.7586 383.653 86.7586Z" fill="#444053"/>
<path d="M383.653 92.94C383.993 92.94 384.269 92.276 384.269 91.4569C384.269 90.6379 383.993 89.9739 383.653 89.9739C383.312 89.9739 383.036 90.6379 383.036 91.4569C383.036 92.276 383.312 92.94 383.653 92.94Z" fill="#444053"/>
<path d="M369.986 221.894C370.646 221.165 371.083 219.29 371.336 216.816L363.991 208.001C363.991 208.001 367.103 225.092 369.986 221.894Z" fill="#AE6E79"/>
<path opacity="0.1" d="M378.267 367.601C378.267 367.601 366.215 385.54 328.562 383.618C293.091 381.839 275.777 365.033 276.602 359.101C277.428 353.168 274.341 338.729 281.938 334.577C286.344 332.174 292.142 333.598 296.233 335.223C297.646 335.776 299.194 335.932 300.695 335.673C302.197 335.413 303.592 334.749 304.717 333.758C308.457 330.513 315.432 326.859 326.443 329.736C327.86 330.1 329.354 330.073 330.756 329.659C335.34 328.312 346.252 325.975 354.17 331.166C355.421 331.996 356.892 332.467 358.411 332.522C359.929 332.578 361.433 332.217 362.746 331.48L362.857 331.415C366.554 329.238 383.806 349.805 383.806 349.805C383.806 349.805 384.632 365.626 378.267 367.601Z" fill="black"/>
<path d="M378.267 368.195C378.267 368.195 366.215 386.134 328.562 384.212C293.091 382.432 275.777 365.626 276.602 359.694C277.428 353.762 274.341 339.323 281.938 335.17C286.344 332.768 292.142 334.191 296.233 335.817C297.646 336.369 299.194 336.525 300.695 336.266C302.197 336.006 303.592 335.343 304.717 334.351C308.457 331.107 315.432 327.452 326.443 330.329C327.86 330.693 329.354 330.667 330.756 330.252C335.34 328.906 346.252 326.568 354.17 331.759C355.421 332.589 356.892 333.06 358.411 333.116C359.929 333.171 361.433 332.81 362.746 332.073L362.857 332.008C366.554 329.831 383.806 350.398 383.806 350.398C383.806 350.398 384.632 366.219 378.267 368.195Z" fill="#767D9F"/>
<path opacity="0.1" d="M328.563 375.219C342.12 375.219 353.11 364.637 353.11 351.585C353.11 338.532 342.12 327.951 328.563 327.951C315.005 327.951 304.015 338.532 304.015 351.585C304.015 364.637 315.005 375.219 328.563 375.219Z" fill="black"/>
<path d="M328.563 375.812C342.12 375.812 353.11 365.23 353.11 352.178C353.11 339.125 342.12 328.544 328.563 328.544C315.005 328.544 304.015 339.125 304.015 352.178C304.015 365.23 315.005 375.812 328.563 375.812Z" fill="#FFB9B9"/>
<path d="M321.526 331.747C318.951 332.418 316.412 333.699 315.155 335.805C314.397 337.074 314.132 338.599 313.035 339.655C311.483 341.156 308.864 341.185 306.763 342.028C304.662 342.87 303.276 345.836 305.334 346.774C303.189 346.88 301.6 348.785 301.335 350.677C301.07 352.569 301.815 354.456 302.536 356.259C304.89 362.096 307.422 368.189 312.61 372.341C321.064 379.116 333.806 378.802 345.162 378.084C346.089 378.113 347.009 377.909 347.83 377.491C349.062 376.707 349.216 375.207 349.419 373.89C350.276 368.266 353.443 363.158 355.513 357.79C357.583 352.421 358.434 346.115 354.946 341.363C349.814 334.316 330.164 329.493 321.526 331.747Z" fill="#B96B6B"/>
<path opacity="0.1" d="M369.37 232.276L368.612 237.882L359.783 239.068C359.783 239.068 358.828 237.099 357.478 234.073L369.228 231.95L369.37 232.276Z" fill="black"/>
<path d="M378.674 356.135L383.813 350.398L382.784 318.762C383.29 316.479 383.634 314.166 383.813 311.839C384.016 308.475 381.243 300.965 381.243 300.965C381.673 299.462 382.258 298.003 382.987 296.611C384.219 294.238 381.249 288.899 381.249 288.899C381.249 288.899 376.826 275.059 378.674 268.136C380.522 261.213 378.224 257.262 378.224 257.262C378.224 257.262 376.419 249.55 376.622 246.389C376.826 243.227 372.512 240.255 372.512 240.255L369.228 232.543L356.086 234.916V261.611C356.086 261.611 356.905 287.119 356.086 292.067C355.266 297.014 357.725 301.754 357.725 301.754C357.725 301.754 356.289 309.068 357.522 311.839C358.754 314.609 361.218 321.33 361.218 321.33C360.761 323.732 360.902 326.205 361.631 328.544C362.864 332.008 361.631 333.984 361.631 333.984L378.674 356.135Z" fill="#767D9F"/>
<g opacity="0.1">
<path opacity="0.1" d="M415.649 40.6476C414.955 44.1201 414.643 47.6535 414.719 51.1891C414.772 48.2493 415.091 45.3195 415.674 42.4332C416.216 39.7993 416.906 36.9637 416.758 34.3357C416.531 36.4606 416.161 38.569 415.649 40.6476Z" fill="black"/>
<path opacity="0.1" d="M350.528 65.1357C349.869 64.5425 349.08 64.1272 348.402 63.5637C346.603 62.0866 345.845 59.945 345.698 57.6315C345.519 60.5976 346.147 63.4688 348.402 65.3434C349.08 65.9069 349.869 66.334 350.528 66.9154C351.906 68.2284 352.705 70.0027 352.759 71.8688C352.937 69.3773 352.414 66.7849 350.528 65.1357Z" fill="black"/>
<path opacity="0.1" d="M348.563 42.9849C348.67 41.7319 348.558 40.4704 348.23 39.2535C347.873 37.984 347.232 36.7442 346.998 35.4688C346.998 35.6052 346.948 35.7476 346.93 35.8959C346.751 37.6755 347.749 39.3188 348.23 41.0332C348.407 41.6717 348.518 42.3254 348.563 42.9849Z" fill="black"/>
<path opacity="0.1" d="M413.043 62.5197C411.336 64.2993 408.619 64.7383 406.117 64.7205C403.616 64.7027 401.083 64.3112 398.625 64.7858C396.912 65.118 395.168 65.8595 393.486 65.379C391.163 64.7324 390.233 61.8197 388.009 61.2561C385.476 60.6154 383.548 63.9553 381.847 65.2841C377.688 68.4875 371.853 68.4578 366.536 68.2502C364.275 68.1493 361.483 68.3214 360.51 70.2909C360.213 70.8881 360.149 71.5684 360.331 72.207L352.802 73.346C352.773 73.9427 352.705 74.5372 352.599 75.1256L360.331 73.9392C360.149 73.3006 360.213 72.6203 360.51 72.0231C361.483 70.0536 364.275 69.8815 366.536 69.9824C371.853 70.2197 377.688 70.2493 381.847 67.0163C383.572 65.6875 385.501 62.3476 388.009 62.9883C390.233 63.5459 391.163 66.4646 393.486 67.1112C395.168 67.5739 396.912 66.8324 398.625 66.518C401.09 66.0434 403.616 66.4349 406.117 66.4527C408.619 66.4705 411.336 66.0137 413.043 64.2519C414.75 62.49 414.996 59.862 414.891 57.2993C414.817 59.2866 414.392 61.1256 413.043 62.5197Z" fill="black"/>
</g>
<g opacity="0.1">
<path opacity="0.1" d="M356.006 91.012C355.28 90.6441 354.519 90.346 353.732 90.1222C352.395 89.5371 351.334 88.4918 350.756 87.1917C351.218 89.2383 352.389 91.101 354.348 91.9018C355.135 92.1257 355.896 92.4238 356.622 92.7917C357.086 93.1072 357.461 93.5293 357.713 94.0196C357.466 92.8569 357.016 91.6705 356.006 91.012Z" fill="black"/>
<path opacity="0.1" d="M366.53 105.445C363.689 106.139 359.98 106.501 358.421 104.182C358.47 104.74 358.637 105.284 358.914 105.777C360.245 108.061 363.498 107.984 366.265 107.42L366.53 105.445Z" fill="black"/>
<path opacity="0.1" d="M378.039 107.07C378.434 109.479 376.807 111.882 374.65 113.145C372.494 114.409 369.863 114.759 367.324 114.925C366.921 114.975 366.511 114.93 366.129 114.794C366.013 115.045 365.976 115.323 366.022 115.594C366.067 115.865 366.194 116.117 366.386 116.319C366.579 116.522 366.828 116.666 367.104 116.735C367.38 116.803 367.671 116.793 367.941 116.704C370.479 116.55 373.092 116.212 375.267 114.925C377.442 113.637 379.068 111.241 378.649 108.826C378.531 108.217 378.326 107.626 378.039 107.07Z" fill="black"/>
<path opacity="0.1" d="M380.775 85.5958C381.151 87.0381 381.18 88.5441 380.86 89.9988C380.54 91.4536 379.878 92.8186 378.927 93.9899C377.472 95.6865 375.26 97.045 374.946 99.2221C374.841 100.223 375.056 101.231 375.562 102.111C375.507 101.743 375.507 101.37 375.562 101.002C375.877 98.8247 378.089 97.4425 379.543 95.7696C381.933 92.9874 382.266 88.8882 380.775 85.5958Z" fill="black"/>
</g>
<g opacity="0.1">
<path opacity="0.1" d="M306.769 342.941C308.864 342.105 311.483 342.075 313.042 340.568C314.138 339.512 314.403 337.988 315.161 336.724C316.393 334.612 318.95 333.337 321.526 332.667C330.152 330.412 349.82 335.229 354.946 342.212C356.448 344.324 357.267 346.818 357.3 349.378C357.497 346.422 356.672 343.487 354.952 341.031C349.826 334.049 330.177 329.232 321.532 331.486C318.957 332.157 316.418 333.432 315.167 335.544C314.409 336.807 314.144 338.332 313.048 339.388C311.489 340.889 308.87 340.918 306.775 341.761C305.179 342.396 303.996 344.27 304.428 345.528C304.6 344.959 304.898 344.433 305.302 343.986C305.707 343.539 306.207 343.183 306.769 342.941Z" fill="black"/>
<path opacity="0.1" d="M301.347 351.561C301.606 349.663 303.196 347.764 305.346 347.657C305.12 347.567 304.918 347.429 304.755 347.253C304.592 347.078 304.472 346.869 304.403 346.643C303.585 346.936 302.866 347.438 302.323 348.095C301.78 348.753 301.434 349.541 301.322 350.374C301.264 350.857 301.264 351.345 301.322 351.828C301.347 351.739 301.347 351.65 301.347 351.561Z" fill="black"/>
</g>
<path d="M431.866 136.583H375.797V206.981H431.866V136.583Z" fill="#F6F9FC"/>
<path opacity="0.1" d="M431.866 136.583H375.797V206.981H431.866V136.583Z" fill="black"/>
<path d="M453.289 140.713L398.031 149.865L410.426 219.243L465.684 210.092L453.289 140.713Z" fill="#F6F9FC"/>
<path d="M424.406 195.01L411.423 197.16L414.335 213.46L427.318 211.31L424.406 195.01Z" fill="#021E39"/>
<path d="M442.371 192.032L429.388 194.182L432.3 210.481L445.283 208.331L442.371 192.032Z" fill="#021E39"/>
<path d="M455.066 168.151L409.537 175.679L412.457 192.052L457.987 184.525L455.066 168.151Z" fill="#021E39"/>
<path d="M451.271 148.609L405.742 156.137L406.393 159.789L451.923 152.262L451.271 148.609Z" fill="#021E39"/>
<path d="M452.765 155.329L407.235 162.856L407.886 166.509L453.416 158.982L452.765 155.329Z" fill="#021E39"/>
<path d="M407.325 117.458C407.325 117.458 381.551 142.373 394.491 148.703C407.43 155.032 415.853 127.643 415.853 127.643L417.898 121.415L407.325 117.458Z" fill="#AE6E79"/>
<path opacity="0.1" d="M405.07 115.257L401.884 122.032C401.884 122.032 417.596 124.155 420.88 128.729L418.933 116.776L416.623 111.674L405.07 115.257Z" fill="black"/>
<path d="M405.686 114.664L402.501 121.438C402.501 121.438 418.212 123.562 421.497 128.136L419.55 116.182L417.239 111.081L405.686 114.664Z" fill="#4C4981"/>
<path d="M500.795 239.223L500.456 239.448L500.925 239.65L501.43 239.608L501.491 239.27L500.795 239.223Z" fill="#464A5F"/>
<path opacity="0.1" d="M500.795 239.223L500.456 239.448L500.925 239.65L501.43 239.608L501.491 239.27L500.795 239.223Z" fill="black"/>
<path d="M500.796 239.222L500.451 239.436L500.179 239.116L500.346 238.855L500.5 238.807L500.796 239.222Z" fill="#9C9CA1"/>
<path opacity="0.1" d="M500.796 239.222L500.451 239.436L500.179 239.116L500.346 238.855L500.5 238.807L500.796 239.222Z" fill="black"/>
<path d="M561.443 198.225L536.218 163.148C535.994 162.835 535.709 162.567 535.378 162.36C535.047 162.154 534.677 162.012 534.289 161.943C533.901 161.874 533.502 161.879 533.116 161.959C532.731 162.038 532.365 162.19 532.04 162.406L475.81 199.566C475.152 200 474.701 200.669 474.554 201.424C474.407 202.179 474.578 202.959 475.028 203.594L500.185 239.116L561.443 198.225Z" fill="#9C9CA1"/>
<path opacity="0.1" d="M561.443 198.225L536.218 163.148C535.994 162.835 535.709 162.567 535.378 162.36C535.047 162.154 534.677 162.012 534.289 161.943C533.901 161.874 533.502 161.879 533.116 161.959C532.731 162.038 532.365 162.19 532.04 162.406L475.81 199.566C475.152 200 474.701 200.669 474.554 201.424C474.407 202.179 474.578 202.959 475.028 203.594L500.185 239.116L561.443 198.225Z" fill="black"/>
<path d="M562.059 198.308L536.834 163.231C536.61 162.918 536.324 162.65 535.992 162.443C535.661 162.236 535.29 162.094 534.902 162.025C534.513 161.957 534.114 161.962 533.728 162.042C533.342 162.121 532.975 162.273 532.65 162.489L476.426 199.672C475.769 200.107 475.317 200.775 475.169 201.53C475.021 202.285 475.19 203.065 475.638 203.7L500.795 239.24L562.059 198.308Z" fill="#9C9CA1"/>
<path d="M583.144 205.243L562.195 198.765L500.924 239.656L522.206 246.359C522.683 246.508 523.189 246.548 523.684 246.476C524.179 246.404 524.65 246.222 525.059 245.944L583.316 206.34C583.425 206.281 583.513 206.192 583.568 206.083C583.623 205.975 583.643 205.853 583.624 205.734C583.605 205.615 583.549 205.504 583.463 205.416C583.378 205.329 583.266 205.268 583.144 205.243Z" fill="#464A5F"/>
<path opacity="0.1" d="M583.144 205.243L562.195 198.765L500.924 239.656L522.206 246.359C522.683 246.508 523.189 246.548 523.684 246.476C524.179 246.404 524.65 246.222 525.059 245.944L583.316 206.34C583.425 206.281 583.513 206.192 583.568 206.083C583.623 205.975 583.643 205.853 583.624 205.734C583.605 205.615 583.549 205.504 583.463 205.416C583.378 205.329 583.266 205.268 583.144 205.243Z" fill="black"/>
<path d="M583.014 204.833L562.065 198.35L500.795 239.24L522.077 245.932C522.553 246.084 523.059 246.126 523.554 246.054C524.05 245.983 524.521 245.801 524.93 245.523L583.187 205.919C583.292 205.858 583.376 205.769 583.428 205.663C583.48 205.556 583.498 205.437 583.479 205.32C583.461 205.204 583.407 205.096 583.324 205.009C583.241 204.922 583.133 204.861 583.014 204.833Z" fill="#464A5F"/>
<g opacity="0.1">
<path opacity="0.1" d="M552.164 196.742L550.617 194.606C550.524 194.482 550.385 194.398 550.229 194.37C550.073 194.343 549.912 194.374 549.779 194.458L547.481 195.935C547.352 196.023 547.263 196.155 547.232 196.304C547.201 196.453 547.23 196.607 547.315 196.736L548.738 198.842C548.827 198.968 548.963 199.056 549.118 199.088C549.273 199.12 549.435 199.094 549.57 199.014L551.991 197.549C552.123 197.462 552.214 197.329 552.247 197.179C552.279 197.028 552.249 196.872 552.164 196.742Z" fill="black"/>
<path opacity="0.1" d="M548.035 199.494L546.483 197.365C546.39 197.241 546.251 197.156 546.095 197.129C545.938 197.101 545.777 197.132 545.645 197.216L543.353 198.705C543.223 198.792 543.132 198.924 543.1 199.073C543.068 199.222 543.097 199.377 543.18 199.506L544.603 201.612C544.692 201.739 544.827 201.829 544.982 201.862C545.137 201.895 545.299 201.869 545.435 201.79L547.863 200.325C547.931 200.282 547.99 200.226 548.036 200.161C548.082 200.095 548.114 200.022 548.13 199.945C548.146 199.867 548.146 199.788 548.13 199.71C548.114 199.633 548.081 199.56 548.035 199.494Z" fill="black"/>
<path opacity="0.1" d="M543.698 202.383L542.145 200.254C542.052 200.13 541.913 200.045 541.757 200.018C541.601 199.99 541.44 200.022 541.307 200.105L539.009 201.594C538.878 201.682 538.788 201.815 538.757 201.966C538.726 202.116 538.756 202.272 538.842 202.401L540.266 204.507C540.355 204.633 540.491 204.722 540.646 204.754C540.801 204.786 540.962 204.759 541.097 204.679L543.519 203.214C543.588 203.171 543.648 203.116 543.694 203.051C543.741 202.986 543.773 202.912 543.79 202.835C543.806 202.758 543.807 202.678 543.791 202.6C543.775 202.523 543.743 202.449 543.698 202.383Z" fill="black"/>
<path opacity="0.1" d="M539.305 205.314L537.752 203.178C537.659 203.056 537.521 202.973 537.367 202.945C537.212 202.917 537.052 202.948 536.92 203.03L534.622 204.525C534.493 204.613 534.404 204.744 534.373 204.893C534.342 205.042 534.371 205.197 534.456 205.326L535.879 207.432C535.967 207.557 536.101 207.646 536.255 207.679C536.408 207.712 536.569 207.687 536.704 207.61L539.132 206.139C539.2 206.095 539.258 206.04 539.303 205.975C539.349 205.91 539.38 205.837 539.396 205.761C539.412 205.684 539.413 205.605 539.397 205.529C539.381 205.452 539.35 205.379 539.305 205.314Z" fill="black"/>
<path opacity="0.1" d="M534.918 208.238L533.365 206.109C533.272 205.985 533.133 205.9 532.977 205.873C532.821 205.845 532.66 205.877 532.527 205.961L530.235 207.45C530.105 207.536 530.014 207.668 529.982 207.817C529.95 207.966 529.979 208.121 530.062 208.25L531.486 210.356C531.574 210.483 531.709 210.573 531.864 210.606C532.019 210.639 532.182 210.613 532.317 210.534L534.745 209.063C534.813 209.02 534.871 208.964 534.916 208.9C534.962 208.835 534.993 208.762 535.009 208.685C535.025 208.609 535.026 208.53 535.01 208.453C534.994 208.376 534.963 208.303 534.918 208.238Z" fill="black"/>
<path opacity="0.1" d="M530.722 211.43L528.793 208.784C528.773 208.755 528.746 208.73 528.716 208.71C528.685 208.691 528.651 208.677 528.614 208.67C528.578 208.664 528.541 208.664 528.505 208.672C528.469 208.679 528.435 208.693 528.405 208.713L525.583 210.546C525.552 210.565 525.525 210.59 525.504 210.62C525.483 210.649 525.469 210.682 525.461 210.717C525.454 210.752 525.454 210.788 525.461 210.822C525.468 210.857 525.482 210.89 525.503 210.92L527.271 213.536C527.312 213.596 527.375 213.639 527.448 213.654C527.52 213.67 527.596 213.657 527.659 213.619L530.642 211.839C530.677 211.82 530.708 211.793 530.732 211.761C530.756 211.728 530.773 211.692 530.78 211.653C530.788 211.614 530.786 211.574 530.776 211.535C530.766 211.497 530.748 211.461 530.722 211.43Z" fill="black"/>
<path opacity="0.1" d="M526.335 214.355L524.394 211.709C524.373 211.679 524.346 211.654 524.315 211.634C524.283 211.615 524.248 211.601 524.212 211.595C524.175 211.588 524.138 211.588 524.101 211.596C524.065 211.603 524.03 211.617 523.999 211.638L521.177 213.471C521.117 213.511 521.075 213.573 521.062 213.643C521.048 213.713 521.063 213.785 521.103 213.844L522.872 216.461C522.891 216.492 522.916 216.519 522.946 216.54C522.976 216.561 523.011 216.576 523.047 216.584C523.083 216.591 523.121 216.592 523.158 216.585C523.194 216.578 523.229 216.564 523.26 216.544L526.236 214.764C526.274 214.747 526.308 214.722 526.334 214.69C526.361 214.659 526.379 214.622 526.389 214.582C526.398 214.543 526.398 214.502 526.389 214.462C526.38 214.423 526.361 214.386 526.335 214.355Z" fill="black"/>
<path opacity="0.1" d="M522.447 216.947L520.518 214.325C520.475 214.268 520.41 214.229 520.338 214.217C520.265 214.205 520.191 214.22 520.13 214.26L517.308 216.087C517.246 216.128 517.203 216.19 517.188 216.261C517.173 216.332 517.188 216.406 517.228 216.467L518.996 219.083C519.038 219.142 519.101 219.183 519.173 219.198C519.245 219.214 519.321 219.202 519.384 219.166L522.367 217.386C522.408 217.367 522.443 217.34 522.471 217.305C522.498 217.27 522.517 217.23 522.525 217.186C522.533 217.143 522.53 217.099 522.516 217.058C522.502 217.016 522.479 216.978 522.447 216.947Z" fill="black"/>
<path opacity="0.1" d="M518.097 219.842L516.168 217.196C516.125 217.139 516.06 217.1 515.988 217.088C515.915 217.076 515.841 217.091 515.78 217.131L512.958 218.958C512.927 218.978 512.9 219.003 512.879 219.033C512.858 219.063 512.843 219.096 512.836 219.132C512.828 219.167 512.828 219.203 512.835 219.239C512.843 219.274 512.857 219.308 512.878 219.338L514.646 221.954C514.688 222.013 514.751 222.054 514.823 222.07C514.895 222.085 514.971 222.073 515.034 222.037L518.017 220.257C518.053 220.237 518.084 220.21 518.107 220.177C518.131 220.144 518.148 220.107 518.155 220.067C518.163 220.028 518.162 219.987 518.152 219.948C518.141 219.909 518.123 219.873 518.097 219.842Z" fill="black"/>
<path opacity="0.1" d="M513.882 222.63L511.954 219.984C511.933 219.955 511.907 219.93 511.876 219.91C511.845 219.891 511.811 219.877 511.775 219.87C511.739 219.864 511.702 219.864 511.666 219.872C511.63 219.879 511.596 219.893 511.565 219.913L508.743 221.746C508.712 221.765 508.686 221.79 508.665 221.82C508.644 221.849 508.629 221.882 508.622 221.917C508.614 221.952 508.614 221.988 508.621 222.022C508.628 222.057 508.643 222.09 508.663 222.12L510.432 224.736C510.472 224.796 510.535 224.839 510.608 224.854C510.681 224.87 510.757 224.857 510.82 224.819L513.802 223.039C513.838 223.02 513.869 222.993 513.893 222.961C513.917 222.928 513.933 222.892 513.941 222.853C513.948 222.814 513.947 222.774 513.937 222.735C513.927 222.697 513.908 222.661 513.882 222.63Z" fill="black"/>
<path opacity="0.1" d="M509.668 225.466L507.758 222.814C507.714 222.757 507.65 222.718 507.577 222.706C507.505 222.694 507.43 222.709 507.369 222.749L504.547 224.576C504.516 224.596 504.489 224.621 504.468 224.651C504.447 224.681 504.433 224.714 504.425 224.75C504.418 224.785 504.418 224.821 504.425 224.857C504.432 224.892 504.447 224.926 504.467 224.955L506.236 227.572C506.277 227.631 506.341 227.672 506.413 227.687C506.485 227.703 506.56 227.691 506.624 227.655L509.606 225.875C509.64 225.854 509.67 225.826 509.692 225.793C509.714 225.76 509.729 225.723 509.734 225.684C509.74 225.645 509.737 225.605 509.726 225.568C509.714 225.53 509.694 225.495 509.668 225.466Z" fill="black"/>
<path opacity="0.1" d="M505.453 228.272L503.525 225.626C503.504 225.596 503.478 225.571 503.447 225.552C503.417 225.532 503.382 225.519 503.346 225.512C503.31 225.505 503.273 225.506 503.237 225.513C503.201 225.52 503.167 225.534 503.136 225.555L500.315 227.376C500.283 227.395 500.257 227.42 500.236 227.449C500.215 227.479 500.2 227.512 500.193 227.546C500.185 227.581 500.185 227.617 500.192 227.652C500.2 227.687 500.214 227.72 500.234 227.75L502.003 230.366C502.043 230.426 502.107 230.468 502.179 230.484C502.252 230.499 502.328 230.487 502.391 230.449L505.373 228.669C505.407 228.649 505.436 228.623 505.459 228.592C505.482 228.56 505.497 228.525 505.505 228.487C505.512 228.45 505.512 228.411 505.503 228.374C505.494 228.337 505.477 228.302 505.453 228.272Z" fill="black"/>
<path opacity="0.1" d="M549.391 192.88L547.838 190.744C547.745 190.621 547.606 190.536 547.45 190.508C547.294 190.481 547.133 190.512 547 190.596L544.727 192.091C544.597 192.178 544.506 192.309 544.474 192.458C544.442 192.607 544.471 192.763 544.554 192.892L545.977 194.998C546.067 195.124 546.203 195.212 546.358 195.244C546.512 195.276 546.674 195.25 546.809 195.17L549.237 193.705C549.371 193.615 549.462 193.477 549.491 193.323C549.52 193.168 549.484 193.009 549.391 192.88Z" fill="black"/>
<path opacity="0.1" d="M543.322 184.438L541.769 182.291C541.676 182.169 541.539 182.085 541.384 182.058C541.229 182.03 541.07 182.061 540.937 182.143L538.639 183.632C538.509 183.718 538.419 183.85 538.387 183.999C538.355 184.148 538.383 184.303 538.467 184.433L539.89 186.539C539.978 186.666 540.114 186.755 540.269 186.788C540.424 186.821 540.586 186.796 540.722 186.716L543.149 185.251C543.283 185.164 543.376 185.031 543.408 184.879C543.44 184.727 543.409 184.569 543.322 184.438Z" fill="black"/>
<path opacity="0.1" d="M545.257 195.633L543.704 193.503C543.611 193.381 543.473 193.297 543.319 193.27C543.164 193.242 543.004 193.272 542.872 193.355L540.574 194.844C540.445 194.931 540.356 195.063 540.325 195.212C540.294 195.361 540.323 195.516 540.408 195.644L541.825 197.75C541.913 197.877 542.048 197.967 542.203 198C542.358 198.033 542.521 198.008 542.656 197.928L545.084 196.463C545.153 196.42 545.212 196.364 545.257 196.299C545.303 196.233 545.335 196.16 545.351 196.083C545.367 196.005 545.367 195.926 545.351 195.848C545.335 195.771 545.303 195.698 545.257 195.633Z" fill="black"/>
<path opacity="0.1" d="M540.919 198.522L539.366 196.392C539.273 196.268 539.134 196.183 538.978 196.156C538.822 196.128 538.661 196.16 538.528 196.244L536.236 197.715C536.104 197.802 536.013 197.934 535.981 198.085C535.948 198.235 535.978 198.392 536.063 198.522L537.487 200.628C537.576 200.754 537.712 200.842 537.867 200.874C538.022 200.906 538.184 200.879 538.319 200.8L540.746 199.334C540.879 199.247 540.972 199.114 541.004 198.962C541.037 198.81 541.006 198.652 540.919 198.522Z" fill="black"/>
<path opacity="0.1" d="M536.526 201.452L534.979 199.316C534.886 199.193 534.747 199.108 534.591 199.08C534.435 199.053 534.274 199.084 534.141 199.168L531.843 200.681C531.714 200.768 531.625 200.9 531.594 201.049C531.563 201.198 531.592 201.353 531.677 201.482L533.1 203.588C533.189 203.714 533.325 203.802 533.48 203.834C533.635 203.866 533.797 203.84 533.932 203.76L536.353 202.294C536.424 202.251 536.484 202.195 536.531 202.129C536.578 202.062 536.611 201.988 536.627 201.909C536.643 201.83 536.642 201.749 536.625 201.67C536.608 201.592 536.574 201.518 536.526 201.452Z" fill="black"/>
<path opacity="0.1" d="M539.286 187.327L537.733 185.198C537.641 185.076 537.503 184.992 537.348 184.965C537.193 184.937 537.034 184.967 536.902 185.05L534.603 186.538C534.473 186.625 534.383 186.757 534.351 186.906C534.319 187.055 534.347 187.21 534.431 187.339L535.854 189.445C535.942 189.572 536.078 189.662 536.233 189.695C536.388 189.728 536.55 189.702 536.686 189.623L539.114 188.158C539.182 188.115 539.241 188.059 539.287 187.994C539.333 187.928 539.365 187.855 539.381 187.778C539.397 187.7 539.397 187.621 539.381 187.543C539.364 187.466 539.332 187.393 539.286 187.327Z" fill="black"/>
<path opacity="0.1" d="M534.948 190.222L533.396 188.087C533.303 187.963 533.164 187.878 533.008 187.851C532.852 187.823 532.69 187.855 532.558 187.939L530.266 189.41C530.136 189.496 530.045 189.628 530.013 189.777C529.981 189.926 530.01 190.081 530.093 190.211L531.516 192.317C531.605 192.443 531.742 192.531 531.897 192.563C532.051 192.595 532.213 192.568 532.348 192.489L534.776 191.023C534.906 190.937 534.996 190.805 535.028 190.656C535.061 190.507 535.032 190.352 534.948 190.222Z" fill="black"/>
<path opacity="0.1" d="M530.555 193.147L529.003 191.017C528.911 190.894 528.773 190.809 528.619 190.781C528.464 190.752 528.304 190.782 528.171 190.863L525.872 192.376C525.743 192.463 525.654 192.595 525.623 192.744C525.592 192.893 525.622 193.048 525.706 193.177L527.129 195.283C527.218 195.41 527.353 195.499 527.508 195.532C527.663 195.565 527.825 195.54 527.961 195.461L530.383 193.989C530.453 193.946 530.514 193.89 530.561 193.824C530.608 193.757 530.64 193.682 530.656 193.604C530.672 193.525 530.672 193.444 530.654 193.365C530.637 193.287 530.603 193.213 530.555 193.147Z" fill="black"/>
<path opacity="0.1" d="M532.139 204.377L530.586 202.247C530.494 202.124 530.357 202.039 530.202 202.01C530.047 201.982 529.887 202.011 529.754 202.093L527.475 203.588C527.346 203.675 527.256 203.807 527.225 203.956C527.194 204.105 527.224 204.26 527.308 204.389L528.707 206.495C528.795 206.62 528.929 206.708 529.083 206.742C529.236 206.775 529.397 206.75 529.532 206.672L531.96 205.201C532.028 205.159 532.087 205.103 532.133 205.039C532.179 204.974 532.211 204.901 532.228 204.825C532.244 204.748 532.245 204.669 532.23 204.592C532.214 204.515 532.184 204.442 532.139 204.377Z" fill="black"/>
<path opacity="0.1" d="M527.752 207.301L526.199 205.172C526.106 205.048 525.967 204.963 525.811 204.936C525.655 204.908 525.494 204.939 525.361 205.023L523.069 206.512C522.939 206.599 522.849 206.73 522.816 206.88C522.784 207.029 522.813 207.184 522.896 207.313L524.32 209.419C524.408 209.546 524.544 209.636 524.699 209.669C524.854 209.702 525.016 209.676 525.152 209.597L527.579 208.132C527.648 208.089 527.707 208.033 527.753 207.968C527.799 207.902 527.83 207.829 527.847 207.751C527.863 207.674 527.863 207.594 527.846 207.517C527.83 207.44 527.798 207.366 527.752 207.301Z" fill="black"/>
<path opacity="0.1" d="M523.556 210.493L521.627 207.847C521.607 207.818 521.58 207.792 521.55 207.773C521.519 207.753 521.485 207.74 521.449 207.733C521.412 207.726 521.375 207.727 521.339 207.734C521.303 207.741 521.269 207.756 521.239 207.776L518.417 209.609C518.386 209.628 518.359 209.653 518.338 209.682C518.317 209.712 518.303 209.745 518.295 209.779C518.288 209.814 518.288 209.85 518.295 209.885C518.302 209.92 518.316 209.953 518.337 209.983L520.105 212.599C520.125 212.629 520.15 212.655 520.181 212.676C520.211 212.697 520.245 212.711 520.281 212.719C520.317 212.727 520.355 212.728 520.391 212.721C520.428 212.715 520.462 212.701 520.493 212.682L523.476 210.902C523.511 210.882 523.542 210.856 523.566 210.823C523.59 210.791 523.607 210.754 523.614 210.715C523.622 210.676 523.621 210.636 523.61 210.598C523.6 210.559 523.582 210.524 523.556 210.493Z" fill="black"/>
<path opacity="0.1" d="M519.668 213.085L517.739 210.433C517.696 210.376 517.631 210.337 517.559 210.325C517.487 210.313 517.412 210.328 517.351 210.368L514.535 212.195C514.474 212.236 514.431 212.299 514.416 212.37C514.401 212.44 514.415 212.514 514.455 212.575L516.224 215.191C516.265 215.25 516.328 215.291 516.401 215.307C516.473 215.322 516.548 215.311 516.612 215.274L519.594 213.494C519.631 213.476 519.663 213.449 519.688 213.417C519.713 213.385 519.729 213.347 519.736 213.307C519.743 213.268 519.741 213.227 519.729 213.189C519.717 213.15 519.696 213.115 519.668 213.085Z" fill="black"/>
<path opacity="0.1" d="M515.318 215.98L513.389 213.334C513.346 213.277 513.281 213.238 513.209 213.226C513.136 213.214 513.062 213.229 513.001 213.269L510.179 215.096C510.148 215.115 510.121 215.14 510.1 215.17C510.079 215.199 510.065 215.232 510.057 215.267C510.05 215.302 510.05 215.338 510.057 215.372C510.064 215.407 510.078 215.44 510.099 215.47L511.867 218.092C511.909 218.151 511.972 218.192 512.044 218.208C512.116 218.223 512.192 218.212 512.256 218.175L515.238 216.395C515.274 216.375 515.305 216.348 515.329 216.315C515.353 216.282 515.369 216.245 515.377 216.205C515.384 216.166 515.383 216.125 515.373 216.087C515.363 216.048 515.344 216.011 515.318 215.98Z" fill="black"/>
<path opacity="0.1" d="M511.103 218.792L509.175 216.146C509.154 216.117 509.128 216.091 509.097 216.072C509.067 216.052 509.032 216.039 508.996 216.032C508.96 216.026 508.923 216.026 508.887 216.033C508.851 216.041 508.817 216.055 508.787 216.075L505.965 217.884C505.934 217.903 505.907 217.928 505.886 217.958C505.865 217.987 505.85 218.02 505.843 218.055C505.835 218.09 505.835 218.126 505.842 218.161C505.85 218.195 505.864 218.229 505.885 218.258L507.653 220.874C507.693 220.934 507.757 220.977 507.829 220.992C507.902 221.008 507.978 220.995 508.041 220.957L511.023 219.178C511.055 219.158 511.083 219.132 511.104 219.102C511.126 219.071 511.141 219.037 511.148 219.001C511.156 218.965 511.156 218.928 511.148 218.892C511.14 218.856 511.125 218.822 511.103 218.792Z" fill="black"/>
<path opacity="0.1" d="M538.029 194.505L536.476 192.376C536.384 192.254 536.246 192.17 536.091 192.142C535.936 192.115 535.777 192.145 535.645 192.227L533.346 193.722C533.217 193.81 533.128 193.942 533.097 194.091C533.066 194.24 533.096 194.395 533.18 194.523L534.603 196.629C534.692 196.754 534.827 196.841 534.981 196.873C535.134 196.905 535.294 196.879 535.429 196.801L537.857 195.336C537.925 195.293 537.984 195.237 538.03 195.172C538.076 195.106 538.108 195.033 538.124 194.956C538.14 194.878 538.14 194.799 538.124 194.721C538.107 194.644 538.075 194.571 538.029 194.505Z" fill="black"/>
<path opacity="0.1" d="M533.636 197.436L532.083 195.3C531.99 195.177 531.851 195.092 531.695 195.064C531.539 195.037 531.378 195.068 531.245 195.152L528.953 196.647C528.823 196.734 528.733 196.865 528.701 197.014C528.669 197.163 528.697 197.319 528.781 197.448L530.204 199.554C530.292 199.681 530.428 199.77 530.583 199.804C530.738 199.837 530.9 199.811 531.036 199.732L533.463 198.261C533.531 198.217 533.589 198.162 533.635 198.097C533.68 198.032 533.712 197.959 533.728 197.883C533.744 197.806 533.744 197.727 533.728 197.651C533.712 197.574 533.681 197.501 533.636 197.436Z" fill="black"/>
<path opacity="0.1" d="M529.255 200.36L527.702 198.231C527.609 198.107 527.47 198.022 527.314 197.995C527.158 197.967 526.997 197.999 526.864 198.083L524.566 199.572C524.437 199.659 524.348 199.791 524.317 199.94C524.286 200.089 524.316 200.244 524.4 200.372L525.823 202.478C525.911 202.605 526.047 202.695 526.202 202.728C526.357 202.761 526.519 202.735 526.655 202.656L529.076 201.185C529.145 201.142 529.203 201.087 529.249 201.023C529.295 200.958 529.328 200.885 529.344 200.809C529.361 200.732 529.361 200.653 529.346 200.576C529.331 200.499 529.3 200.426 529.255 200.36Z" fill="black"/>
<path opacity="0.1" d="M524.862 203.285L523.309 201.156C523.216 201.033 523.079 200.95 522.924 200.922C522.769 200.895 522.61 200.925 522.477 201.007L520.179 202.496C520.05 202.584 519.961 202.716 519.93 202.865C519.899 203.014 519.929 203.168 520.013 203.297L521.436 205.427C521.524 205.552 521.659 205.641 521.812 205.674C521.966 205.707 522.127 205.682 522.262 205.605L524.689 204.139C524.762 204.096 524.824 204.039 524.872 203.972C524.92 203.905 524.953 203.829 524.969 203.749C524.986 203.668 524.984 203.586 524.966 203.506C524.947 203.426 524.912 203.351 524.862 203.285Z" fill="black"/>
<path opacity="0.1" d="M520.697 206.477L518.768 203.831C518.748 203.801 518.722 203.776 518.691 203.757C518.66 203.737 518.626 203.724 518.59 203.717C518.554 203.71 518.516 203.711 518.48 203.718C518.444 203.725 518.41 203.74 518.38 203.76L515.558 205.593C515.497 205.633 515.454 205.694 515.439 205.764C515.424 205.834 515.438 205.906 515.478 205.966L517.246 208.589C517.266 208.618 517.292 208.644 517.323 208.664C517.353 208.684 517.387 208.699 517.424 208.706C517.46 208.713 517.497 208.713 517.533 208.706C517.57 208.699 517.604 208.685 517.635 208.666L520.617 206.886C520.653 206.866 520.684 206.84 520.707 206.807C520.731 206.775 520.748 206.738 520.755 206.699C520.763 206.66 520.762 206.62 520.752 206.582C520.741 206.543 520.723 206.507 520.697 206.477Z" fill="black"/>
<path opacity="0.1" d="M516.784 209.069L514.856 206.417C514.811 206.36 514.746 206.321 514.672 206.309C514.599 206.296 514.523 206.312 514.461 206.352L511.646 208.179C511.584 208.22 511.541 208.283 511.526 208.353C511.511 208.424 511.525 208.498 511.565 208.559L513.334 211.175C513.374 211.235 513.438 211.278 513.51 211.293C513.583 211.309 513.659 211.296 513.722 211.258L516.704 209.478C516.74 209.459 516.771 209.432 516.795 209.4C516.819 209.367 516.835 209.331 516.843 209.292C516.85 209.253 516.849 209.213 516.839 209.174C516.829 209.136 516.81 209.1 516.784 209.069Z" fill="black"/>
<path opacity="0.1" d="M512.434 211.952L510.506 209.3C510.461 209.243 510.395 209.204 510.322 209.192C510.249 209.179 510.173 209.195 510.111 209.235L507.289 211.062C507.229 211.104 507.187 211.167 507.172 211.237C507.157 211.307 507.17 211.381 507.209 211.442L508.984 214.058C509.024 214.118 509.088 214.161 509.16 214.176C509.233 214.192 509.309 214.179 509.372 214.141L512.348 212.361C512.385 212.343 512.417 212.317 512.443 212.285C512.468 212.253 512.485 212.216 512.493 212.177C512.502 212.137 512.501 212.097 512.49 212.058C512.48 212.019 512.461 211.983 512.434 211.952Z" fill="black"/>
<path opacity="0.1" d="M508.22 214.776L506.291 212.13C506.27 212.1 506.243 212.075 506.212 212.055C506.181 212.036 506.146 212.022 506.109 212.016C506.073 212.009 506.035 212.01 505.999 212.017C505.962 212.024 505.928 212.039 505.897 212.059L503.075 213.892C503.015 213.933 502.973 213.995 502.959 214.064C502.945 214.134 502.96 214.206 503.001 214.266L504.769 216.882C504.788 216.913 504.813 216.94 504.844 216.961C504.874 216.982 504.908 216.997 504.945 217.005C504.981 217.013 505.019 217.013 505.055 217.006C505.092 216.999 505.127 216.985 505.158 216.965L508.134 215.185C508.171 215.167 508.203 215.141 508.228 215.109C508.253 215.077 508.271 215.04 508.279 215C508.287 214.961 508.286 214.921 508.276 214.882C508.266 214.843 508.247 214.807 508.22 214.776Z" fill="black"/>
<path opacity="0.1" d="M506.889 221.598L504.96 218.952C504.917 218.895 504.852 218.856 504.78 218.844C504.707 218.832 504.633 218.847 504.572 218.887L501.75 220.714C501.719 220.733 501.692 220.758 501.671 220.787C501.65 220.817 501.636 220.85 501.628 220.885C501.621 220.919 501.621 220.955 501.628 220.99C501.635 221.025 501.649 221.058 501.67 221.088L503.438 223.71C503.48 223.769 503.543 223.81 503.615 223.826C503.687 223.841 503.763 223.829 503.827 223.793L506.809 222.013C506.845 221.993 506.876 221.966 506.9 221.933C506.924 221.9 506.94 221.863 506.948 221.823C506.955 221.784 506.954 221.743 506.944 221.704C506.934 221.665 506.915 221.629 506.889 221.598Z" fill="black"/>
<path opacity="0.1" d="M502.674 224.41L500.746 221.764C500.725 221.735 500.699 221.709 500.668 221.69C500.638 221.67 500.603 221.657 500.567 221.65C500.531 221.644 500.494 221.644 500.458 221.651C500.422 221.659 500.388 221.673 500.358 221.693L497.536 223.526C497.505 223.545 497.478 223.57 497.457 223.599C497.436 223.629 497.422 223.662 497.414 223.697C497.407 223.731 497.406 223.767 497.414 223.802C497.421 223.837 497.435 223.87 497.456 223.9L499.224 226.516C499.264 226.576 499.328 226.618 499.4 226.634C499.473 226.649 499.549 226.637 499.612 226.599L502.594 224.819C502.63 224.8 502.661 224.773 502.685 224.74C502.709 224.708 502.725 224.671 502.733 224.632C502.741 224.593 502.739 224.553 502.729 224.515C502.719 224.476 502.7 224.441 502.674 224.41Z" fill="black"/>
<path opacity="0.1" d="M509.292 207.598L507.443 205.106C507.385 205.029 507.298 204.976 507.2 204.96C507.102 204.943 507.002 204.964 506.92 205.017L504.258 206.744C504.216 206.77 504.181 206.804 504.153 206.844C504.125 206.883 504.106 206.928 504.096 206.975C504.086 207.022 504.087 207.07 504.096 207.117C504.106 207.164 504.125 207.208 504.153 207.248L505.817 209.71C505.842 209.75 505.876 209.786 505.917 209.813C505.957 209.841 506.002 209.861 506.051 209.871C506.099 209.882 506.149 209.883 506.198 209.875C506.246 209.866 506.293 209.848 506.334 209.822L509.15 208.12C509.197 208.096 509.237 208.063 509.27 208.023C509.302 207.983 509.326 207.938 509.339 207.889C509.353 207.84 509.355 207.788 509.347 207.738C509.339 207.688 509.32 207.641 509.292 207.598Z" fill="black"/>
<path opacity="0.1" d="M505.077 210.41L503.26 207.918C503.232 207.879 503.196 207.845 503.155 207.819C503.113 207.793 503.067 207.775 503.018 207.766C502.97 207.757 502.92 207.758 502.871 207.767C502.823 207.777 502.777 207.796 502.736 207.823L500.074 209.579C500.033 209.605 499.997 209.638 499.97 209.678C499.942 209.717 499.923 209.761 499.913 209.807C499.903 209.854 499.903 209.901 499.913 209.948C499.923 209.994 499.942 210.038 499.969 210.077L501.633 212.545C501.687 212.625 501.772 212.681 501.868 212.702C501.965 212.723 502.066 212.707 502.151 212.658L504.966 210.955C505.014 210.929 505.055 210.893 505.087 210.851C505.119 210.808 505.141 210.759 505.151 210.707C505.162 210.655 505.161 210.602 505.148 210.551C505.135 210.499 505.111 210.451 505.077 210.41Z" fill="black"/>
<path opacity="0.1" d="M500.863 213.222L499.045 210.724C498.987 210.647 498.9 210.594 498.802 210.577C498.704 210.561 498.604 210.582 498.522 210.635L495.86 212.361C495.818 212.388 495.783 212.422 495.755 212.461C495.727 212.501 495.708 212.546 495.698 212.593C495.688 212.639 495.688 212.688 495.698 212.735C495.708 212.781 495.727 212.826 495.755 212.866L497.419 215.328C497.444 215.368 497.478 215.404 497.519 215.431C497.559 215.459 497.604 215.479 497.653 215.489C497.701 215.5 497.751 215.501 497.8 215.492C497.848 215.484 497.895 215.466 497.936 215.44L500.752 213.738C500.796 213.712 500.833 213.678 500.863 213.637C500.892 213.597 500.913 213.551 500.923 213.503C500.934 213.454 500.934 213.405 500.923 213.356C500.913 213.308 500.892 213.262 500.863 213.222Z" fill="black"/>
<path opacity="0.1" d="M496.704 216.105L494.775 213.453C494.732 213.396 494.667 213.357 494.595 213.345C494.523 213.333 494.448 213.348 494.387 213.388L491.565 215.215C491.503 215.256 491.46 215.318 491.445 215.389C491.431 215.46 491.445 215.534 491.485 215.594L493.253 218.211C493.295 218.269 493.358 218.311 493.43 218.326C493.503 218.342 493.578 218.33 493.642 218.294L496.624 216.514C496.661 216.496 496.694 216.47 496.719 216.438C496.745 216.406 496.762 216.368 496.77 216.328C496.777 216.289 496.776 216.248 496.764 216.209C496.753 216.17 496.732 216.134 496.704 216.105Z" fill="black"/>
<path opacity="0.1" d="M546.575 188.727L544.905 186.444C544.811 186.321 544.672 186.237 544.516 186.211C544.36 186.184 544.199 186.217 544.067 186.301L537.549 190.697C537.422 190.785 537.335 190.916 537.306 191.064C537.276 191.212 537.305 191.365 537.388 191.492L538.96 193.829C539.005 193.894 539.063 193.949 539.13 193.993C539.198 194.036 539.274 194.065 539.353 194.08C539.433 194.095 539.515 194.095 539.594 194.079C539.673 194.064 539.749 194.033 539.816 193.989L546.433 189.534C546.56 189.443 546.645 189.308 546.672 189.158C546.698 189.008 546.664 188.854 546.575 188.727Z" fill="black"/>
<path opacity="0.1" d="M503.993 217.499L501.947 214.717C501.926 214.687 501.9 214.661 501.868 214.642C501.837 214.622 501.802 214.609 501.765 214.603C501.728 214.597 501.69 214.598 501.654 214.606C501.617 214.615 501.583 214.63 501.553 214.651L494.517 219.397C494.457 219.437 494.415 219.498 494.401 219.566C494.388 219.635 494.402 219.706 494.443 219.765L496.365 222.63C496.386 222.661 496.412 222.688 496.444 222.708C496.475 222.729 496.511 222.743 496.548 222.751C496.586 222.758 496.624 222.758 496.662 222.75C496.699 222.743 496.734 222.728 496.766 222.707L503.919 217.884C503.982 217.842 504.025 217.778 504.038 217.706C504.052 217.634 504.036 217.559 503.993 217.499Z" fill="black"/>
<path opacity="0.1" d="M526.378 196.22L524.492 193.562C524.45 193.504 524.386 193.464 524.313 193.451C524.241 193.437 524.166 193.452 524.104 193.491L508.478 203.647C508.417 203.687 508.374 203.748 508.359 203.818C508.344 203.888 508.358 203.961 508.398 204.021L510.327 206.868C510.347 206.899 510.374 206.926 510.406 206.946C510.437 206.967 510.473 206.982 510.51 206.989C510.548 206.996 510.586 206.996 510.623 206.988C510.661 206.981 510.696 206.966 510.727 206.945L526.304 196.599C526.335 196.579 526.361 196.553 526.381 196.523C526.402 196.493 526.416 196.46 526.423 196.424C526.429 196.389 526.429 196.353 526.421 196.318C526.414 196.283 526.399 196.249 526.378 196.22Z" fill="black"/>
</g>
<path d="M552.576 196.813L551.024 194.677C550.931 194.554 550.792 194.469 550.636 194.441C550.479 194.414 550.318 194.445 550.186 194.529L547.894 196.024C547.764 196.111 547.673 196.242 547.641 196.391C547.609 196.54 547.638 196.696 547.721 196.825L549.144 198.931C549.233 199.058 549.368 199.147 549.523 199.181C549.678 199.214 549.84 199.188 549.976 199.109L552.404 197.638C552.472 197.595 552.53 197.539 552.575 197.474C552.621 197.409 552.652 197.337 552.668 197.26C552.684 197.183 552.684 197.104 552.669 197.028C552.653 196.951 552.621 196.878 552.576 196.813Z" fill="#464A5F"/>
<path d="M548.424 199.566L546.871 197.436C546.778 197.314 546.64 197.23 546.486 197.203C546.331 197.175 546.171 197.206 546.039 197.288L543.741 198.777C543.611 198.863 543.52 198.995 543.488 199.144C543.456 199.293 543.485 199.448 543.568 199.578L544.992 201.683C545.08 201.811 545.215 201.9 545.37 201.933C545.525 201.966 545.688 201.941 545.823 201.861L548.251 200.396C548.32 200.353 548.379 200.297 548.424 200.232C548.47 200.167 548.502 200.093 548.518 200.016C548.534 199.938 548.534 199.859 548.518 199.781C548.502 199.704 548.47 199.631 548.424 199.566Z" fill="#464A5F"/>
<path d="M544.11 202.461L542.558 200.331C542.465 200.207 542.326 200.122 542.17 200.095C542.014 200.067 541.852 200.099 541.72 200.183L539.428 201.677C539.298 201.764 539.207 201.896 539.175 202.045C539.143 202.194 539.172 202.349 539.255 202.478L540.679 204.584C540.768 204.71 540.904 204.799 541.059 204.831C541.214 204.863 541.375 204.836 541.51 204.756L543.938 203.291C544.007 203.248 544.066 203.192 544.111 203.127C544.157 203.061 544.189 202.988 544.205 202.911C544.221 202.833 544.221 202.754 544.205 202.676C544.189 202.599 544.157 202.526 544.11 202.461Z" fill="#464A5F"/>
<path d="M539.711 205.385L538.159 203.25C538.066 203.127 537.928 203.044 537.773 203.016C537.619 202.989 537.459 203.019 537.327 203.101L535.028 204.596C534.961 204.64 534.903 204.697 534.858 204.763C534.814 204.828 534.783 204.902 534.768 204.979C534.753 205.056 534.754 205.136 534.771 205.213C534.789 205.289 534.822 205.362 534.868 205.427L536.292 207.533C536.38 207.66 536.515 207.749 536.67 207.782C536.825 207.816 536.988 207.79 537.123 207.711L539.545 206.239C539.617 206.196 539.678 206.139 539.726 206.071C539.773 206.004 539.806 205.927 539.821 205.847C539.837 205.767 539.835 205.685 539.816 205.605C539.797 205.526 539.762 205.451 539.711 205.385Z" fill="#464A5F"/>
<path d="M535.324 208.31L533.772 206.18C533.679 206.058 533.541 205.974 533.386 205.947C533.232 205.919 533.072 205.95 532.94 206.032L530.642 207.521C530.513 207.608 530.423 207.74 530.392 207.889C530.362 208.038 530.391 208.193 530.475 208.322L531.892 210.427C531.98 210.555 532.116 210.644 532.271 210.677C532.426 210.71 532.588 210.685 532.724 210.605L535.152 209.134C535.22 209.091 535.278 209.036 535.323 208.971C535.368 208.906 535.4 208.833 535.416 208.756C535.432 208.68 535.432 208.601 535.417 208.524C535.401 208.448 535.369 208.375 535.324 208.31Z" fill="#464A5F"/>
<path d="M531.128 211.501L529.2 208.856C529.179 208.826 529.153 208.801 529.122 208.781C529.092 208.762 529.057 208.748 529.021 208.742C528.985 208.735 528.948 208.735 528.912 208.743C528.876 208.75 528.842 208.764 528.811 208.784L525.99 210.617C525.958 210.637 525.932 210.662 525.911 210.691C525.89 210.72 525.875 210.753 525.868 210.788C525.86 210.823 525.86 210.859 525.867 210.894C525.874 210.928 525.889 210.962 525.909 210.991L527.678 213.607C527.718 213.667 527.782 213.71 527.854 213.725C527.927 213.741 528.003 213.728 528.066 213.69L531.048 211.911C531.084 211.891 531.115 211.864 531.139 211.832C531.163 211.8 531.179 211.763 531.187 211.724C531.194 211.685 531.193 211.645 531.183 211.606C531.173 211.568 531.154 211.532 531.128 211.501Z" fill="#464A5F"/>
<path d="M526.741 214.426L524.813 211.78C524.792 211.75 524.765 211.725 524.734 211.705C524.702 211.686 524.668 211.672 524.631 211.666C524.594 211.659 524.557 211.66 524.52 211.667C524.484 211.674 524.449 211.689 524.418 211.709L521.603 213.542C521.572 213.561 521.545 213.586 521.524 213.615C521.503 213.645 521.488 213.678 521.481 213.713C521.473 213.747 521.473 213.783 521.48 213.818C521.488 213.853 521.502 213.886 521.523 213.916L523.291 216.538C523.311 216.568 523.337 216.593 523.367 216.613C523.398 216.634 523.432 216.648 523.468 216.655C523.504 216.662 523.542 216.662 523.578 216.655C523.614 216.648 523.648 216.635 523.679 216.615L526.661 214.835C526.696 214.815 526.726 214.788 526.75 214.755C526.773 214.723 526.789 214.686 526.797 214.648C526.804 214.609 526.803 214.569 526.794 214.531C526.784 214.493 526.766 214.457 526.741 214.426Z" fill="#464A5F"/>
<path d="M522.853 217.018L520.925 214.366C520.882 214.309 520.817 214.27 520.744 214.258C520.672 214.246 520.597 214.262 520.537 214.301L517.715 216.105C517.653 216.146 517.61 216.208 517.595 216.279C517.58 216.35 517.594 216.423 517.635 216.484L519.403 219.1C519.444 219.159 519.508 219.201 519.58 219.216C519.652 219.232 519.728 219.22 519.791 219.183L522.773 217.404C522.805 217.384 522.833 217.358 522.855 217.328C522.876 217.298 522.891 217.263 522.899 217.227C522.906 217.191 522.906 217.154 522.898 217.118C522.89 217.082 522.875 217.048 522.853 217.018Z" fill="#464A5F"/>
<path d="M518.503 219.919L516.575 217.291C516.532 217.234 516.467 217.195 516.394 217.183C516.322 217.171 516.247 217.186 516.187 217.226L513.365 219.053C513.333 219.073 513.306 219.098 513.286 219.128C513.265 219.158 513.25 219.191 513.242 219.227C513.235 219.262 513.235 219.298 513.242 219.334C513.249 219.369 513.264 219.403 513.285 219.433L515.053 222.049C515.094 222.108 515.158 222.149 515.23 222.165C515.302 222.18 515.378 222.168 515.441 222.132L518.423 220.352C518.463 220.333 518.498 220.306 518.525 220.271C518.551 220.237 518.569 220.197 518.577 220.155C518.585 220.113 518.582 220.07 518.569 220.029C518.557 219.988 518.534 219.95 518.503 219.919Z" fill="#464A5F"/>
<path d="M514.289 222.725L512.36 220.079C512.34 220.05 512.314 220.025 512.283 220.005C512.252 219.985 512.218 219.972 512.182 219.965C512.146 219.959 512.108 219.959 512.072 219.966C512.036 219.974 512.002 219.988 511.972 220.008L509.15 221.841C509.119 221.86 509.092 221.885 509.071 221.915C509.051 221.944 509.036 221.977 509.028 222.012C509.021 222.047 509.021 222.082 509.028 222.117C509.035 222.152 509.049 222.185 509.07 222.215L510.838 224.831C510.858 224.861 510.883 224.888 510.914 224.908C510.944 224.929 510.978 224.944 511.014 224.951C511.05 224.959 511.088 224.96 511.124 224.953C511.161 224.947 511.196 224.934 511.227 224.914L514.209 223.134C514.244 223.115 514.275 223.088 514.299 223.056C514.323 223.023 514.34 222.986 514.347 222.947C514.355 222.909 514.354 222.868 514.344 222.83C514.333 222.792 514.315 222.756 514.289 222.725Z" fill="#464A5F"/>
<path d="M510.074 225.537L508.146 222.885C508.103 222.828 508.038 222.789 507.965 222.777C507.893 222.765 507.818 222.78 507.758 222.82L504.936 224.647C504.874 224.688 504.831 224.75 504.816 224.821C504.801 224.892 504.815 224.966 504.855 225.027L506.624 227.643C506.665 227.702 506.729 227.743 506.801 227.759C506.873 227.774 506.949 227.762 507.012 227.726L509.994 225.946C510.03 225.927 510.061 225.9 510.085 225.868C510.109 225.835 510.125 225.798 510.133 225.759C510.14 225.72 510.139 225.68 510.129 225.642C510.119 225.604 510.1 225.568 510.074 225.537Z" fill="#464A5F"/>
<path d="M505.86 228.343L503.931 225.697C503.911 225.668 503.885 225.642 503.854 225.623C503.823 225.603 503.789 225.59 503.753 225.583C503.717 225.577 503.679 225.577 503.643 225.584C503.608 225.592 503.573 225.606 503.543 225.626L500.721 227.459C500.69 227.478 500.663 227.503 500.643 227.532C500.622 227.562 500.607 227.595 500.6 227.63C500.592 227.664 500.592 227.7 500.599 227.735C500.606 227.77 500.621 227.803 500.641 227.833L502.409 230.449C502.429 230.479 502.455 230.505 502.485 230.526C502.515 230.547 502.549 230.561 502.585 230.569C502.622 230.577 502.659 230.578 502.695 230.571C502.732 230.565 502.767 230.551 502.798 230.532L505.78 228.752C505.816 228.733 505.847 228.706 505.87 228.673C505.894 228.641 505.911 228.604 505.918 228.565C505.926 228.526 505.925 228.486 505.915 228.448C505.905 228.409 505.886 228.374 505.86 228.343Z" fill="#464A5F"/>
<path d="M549.798 192.969L548.245 190.833C548.152 190.711 548.014 190.628 547.86 190.6C547.705 190.572 547.545 190.603 547.413 190.685L545.115 192.18C544.986 192.268 544.897 192.399 544.866 192.548C544.835 192.697 544.864 192.852 544.948 192.981L546.366 195.087C546.454 195.214 546.589 195.303 546.744 195.336C546.899 195.37 547.062 195.344 547.197 195.265L549.625 193.794C549.693 193.75 549.751 193.695 549.796 193.63C549.842 193.565 549.873 193.492 549.889 193.416C549.905 193.339 549.906 193.26 549.89 193.184C549.874 193.107 549.843 193.034 549.798 192.969Z" fill="#464A5F"/>
<path d="M543.729 184.51L542.176 182.38C542.083 182.258 541.945 182.174 541.791 182.147C541.636 182.119 541.476 182.149 541.344 182.232L539.046 183.721C538.917 183.808 538.828 183.94 538.797 184.089C538.766 184.238 538.795 184.393 538.879 184.521L540.303 186.627C540.391 186.753 540.525 186.841 540.679 186.874C540.832 186.907 540.993 186.883 541.128 186.805L543.556 185.34C543.625 185.297 543.684 185.241 543.729 185.176C543.775 185.111 543.807 185.037 543.823 184.96C543.839 184.882 543.839 184.803 543.823 184.725C543.807 184.648 543.775 184.575 543.729 184.51Z" fill="#464A5F"/>
<path d="M545.663 195.704L544.111 193.562C544.018 193.44 543.88 193.356 543.725 193.329C543.571 193.301 543.411 193.332 543.279 193.414L540.98 194.903C540.852 194.99 540.762 195.122 540.731 195.271C540.7 195.42 540.73 195.575 540.814 195.704L542.237 197.81C542.325 197.935 542.46 198.024 542.614 198.057C542.767 198.09 542.928 198.065 543.063 197.988L545.491 196.522C545.626 196.435 545.72 196.301 545.752 196.147C545.784 195.994 545.752 195.834 545.663 195.704Z" fill="#464A5F"/>
<path d="M541.326 198.593L539.798 196.463C539.705 196.341 539.567 196.257 539.412 196.23C539.258 196.202 539.098 196.233 538.966 196.315L536.667 197.804C536.537 197.891 536.447 198.024 536.415 198.175C536.384 198.325 536.415 198.481 536.501 198.611L537.918 200.717C538.007 200.843 538.143 200.931 538.298 200.963C538.453 200.995 538.615 200.968 538.75 200.889L541.178 199.423C541.244 199.378 541.301 199.321 541.345 199.255C541.388 199.189 541.418 199.115 541.431 199.038C541.445 198.96 541.443 198.881 541.425 198.805C541.407 198.729 541.373 198.657 541.326 198.593Z" fill="#464A5F"/>
<path d="M536.938 201.523L535.386 199.388C535.293 199.264 535.154 199.179 534.998 199.152C534.842 199.124 534.68 199.155 534.548 199.239L532.256 200.734C532.126 200.821 532.035 200.952 532.003 201.102C531.971 201.251 532 201.406 532.083 201.535L533.507 203.641C533.595 203.768 533.73 203.858 533.885 203.891C534.04 203.924 534.203 203.898 534.338 203.819L536.766 202.348C536.834 202.305 536.892 202.249 536.937 202.184C536.983 202.12 537.014 202.047 537.03 201.97C537.046 201.893 537.046 201.815 537.031 201.738C537.015 201.661 536.984 201.588 536.938 201.523Z" fill="#464A5F"/>
<path d="M539.693 187.399L538.14 185.257C538.047 185.135 537.909 185.051 537.755 185.024C537.6 184.996 537.44 185.027 537.308 185.109L535.01 186.598C534.881 186.685 534.792 186.817 534.761 186.966C534.73 187.115 534.76 187.27 534.844 187.399L536.267 189.505C536.355 189.63 536.49 189.719 536.643 189.752C536.797 189.785 536.957 189.76 537.093 189.683L539.52 188.217C539.655 188.13 539.749 187.996 539.781 187.842C539.814 187.689 539.782 187.529 539.693 187.399Z" fill="#464A5F"/>
<path d="M535.355 190.294L533.802 188.158C533.709 188.036 533.572 187.952 533.417 187.925C533.262 187.897 533.103 187.928 532.97 188.01L530.672 189.505C530.542 189.591 530.452 189.723 530.42 189.872C530.388 190.021 530.416 190.176 530.5 190.305L531.923 192.411C532.011 192.538 532.147 192.628 532.302 192.661C532.457 192.694 532.619 192.669 532.755 192.589L535.182 191.118C535.25 191.075 535.308 191.019 535.354 190.955C535.399 190.89 535.431 190.817 535.447 190.74C535.463 190.664 535.463 190.585 535.447 190.508C535.431 190.431 535.4 190.359 535.355 190.294Z" fill="#464A5F"/>
<path d="M530.968 193.218L529.415 191.089C529.322 190.965 529.183 190.88 529.027 190.852C528.871 190.825 528.71 190.856 528.577 190.94L526.285 192.429C526.155 192.516 526.065 192.647 526.033 192.796C526.001 192.945 526.029 193.101 526.113 193.23L527.536 195.342C527.624 195.469 527.76 195.558 527.915 195.592C528.07 195.625 528.232 195.599 528.368 195.52L530.789 194.049C530.858 194.006 530.918 193.951 530.965 193.885C531.011 193.82 531.044 193.747 531.06 193.67C531.077 193.592 531.077 193.512 531.061 193.435C531.046 193.357 531.014 193.284 530.968 193.218Z" fill="#464A5F"/>
<path d="M532.545 204.448L530.993 202.318C530.9 202.196 530.762 202.112 530.607 202.085C530.453 202.057 530.293 202.088 530.161 202.17L527.863 203.647C527.734 203.735 527.644 203.866 527.614 204.015C527.583 204.164 527.612 204.319 527.696 204.448L529.12 206.554C529.208 206.679 529.342 206.768 529.496 206.801C529.649 206.834 529.81 206.809 529.945 206.732L532.373 205.261C532.506 205.174 532.599 205.04 532.631 204.888C532.663 204.736 532.633 204.578 532.545 204.448Z" fill="#464A5F"/>
<path d="M528.158 207.372L526.606 205.243C526.513 205.12 526.375 205.037 526.22 205.009C526.066 204.982 525.906 205.012 525.774 205.094L523.476 206.613C523.346 206.7 523.255 206.831 523.223 206.98C523.191 207.129 523.22 207.285 523.303 207.414L524.726 209.52C524.815 209.647 524.95 209.736 525.105 209.77C525.26 209.803 525.422 209.777 525.558 209.698L527.986 208.233C528.059 208.19 528.122 208.132 528.171 208.065C528.219 207.997 528.253 207.92 528.269 207.839C528.285 207.758 528.284 207.675 528.265 207.595C528.246 207.514 528.209 207.439 528.158 207.372Z" fill="#464A5F"/>
<path d="M523.962 210.564L522.034 207.918C522.013 207.889 521.987 207.864 521.956 207.844C521.926 207.824 521.891 207.811 521.855 207.804C521.819 207.798 521.782 207.798 521.746 207.805C521.71 207.813 521.676 207.827 521.646 207.847L518.848 209.68C518.817 209.699 518.79 209.724 518.77 209.754C518.749 209.783 518.734 209.816 518.727 209.851C518.719 209.886 518.719 209.921 518.726 209.956C518.733 209.991 518.748 210.024 518.768 210.054L520.537 212.67C520.556 212.7 520.582 212.727 520.612 212.747C520.642 212.768 520.676 212.783 520.712 212.79C520.749 212.798 520.786 212.799 520.823 212.792C520.859 212.786 520.894 212.773 520.925 212.753L523.907 210.973C523.94 210.951 523.968 210.922 523.989 210.889C524.01 210.856 524.024 210.819 524.029 210.78C524.034 210.742 524.031 210.703 524.019 210.665C524.008 210.628 523.989 210.594 523.962 210.564Z" fill="#464A5F"/>
<path d="M520.081 213.139L518.152 210.487C518.108 210.429 518.042 210.39 517.969 210.378C517.895 210.366 517.82 210.382 517.758 210.422L514.936 212.249C514.875 212.291 514.833 212.353 514.818 212.423C514.804 212.494 514.817 212.567 514.856 212.628L516.63 215.244C516.671 215.305 516.734 215.347 516.807 215.363C516.879 215.378 516.955 215.365 517.018 215.328L519.994 213.548C520.032 213.53 520.064 213.504 520.089 213.472C520.114 213.44 520.132 213.403 520.14 213.363C520.148 213.324 520.147 213.283 520.137 213.244C520.127 213.205 520.107 213.169 520.081 213.139Z" fill="#464A5F"/>
<path d="M515.724 216.057L513.796 213.405C513.753 213.348 513.688 213.309 513.616 213.297C513.543 213.285 513.469 213.301 513.408 213.34L510.586 215.167C510.524 215.208 510.481 215.271 510.466 215.342C510.451 215.412 510.465 215.486 510.506 215.547L512.274 218.163C512.316 218.222 512.379 218.264 512.451 218.279C512.523 218.294 512.599 218.283 512.662 218.246L515.644 216.467C515.682 216.449 515.715 216.422 515.74 216.39C515.765 216.358 515.782 216.321 515.79 216.281C515.798 216.241 515.796 216.201 515.785 216.162C515.773 216.123 515.753 216.087 515.724 216.057Z" fill="#464A5F"/>
<path d="M511.516 218.863L509.606 216.217C509.586 216.188 509.559 216.163 509.529 216.143C509.498 216.124 509.464 216.11 509.428 216.104C509.391 216.097 509.354 216.097 509.318 216.105C509.282 216.112 509.248 216.126 509.218 216.146L506.396 217.979C506.334 218.019 506.292 218.081 506.277 218.15C506.262 218.22 506.276 218.293 506.316 218.353L508.084 220.969C508.125 221.029 508.188 221.072 508.261 221.087C508.333 221.103 508.409 221.09 508.472 221.052L511.455 219.272C511.49 219.252 511.52 219.224 511.543 219.191C511.566 219.158 511.58 219.121 511.586 219.082C511.592 219.043 511.589 219.003 511.577 218.965C511.565 218.927 511.544 218.892 511.516 218.863Z" fill="#464A5F"/>
<path d="M538.436 194.583L536.889 192.447C536.796 192.323 536.657 192.239 536.501 192.211C536.345 192.183 536.184 192.215 536.051 192.299L533.753 193.794C533.624 193.881 533.535 194.013 533.504 194.162C533.473 194.311 533.503 194.466 533.587 194.594L535.01 196.7C535.099 196.827 535.235 196.915 535.39 196.947C535.545 196.979 535.707 196.952 535.842 196.872L538.263 195.407C538.331 195.364 538.389 195.308 538.435 195.244C538.48 195.179 538.512 195.106 538.528 195.029C538.544 194.953 538.544 194.874 538.528 194.797C538.512 194.72 538.481 194.648 538.436 194.583Z" fill="#464A5F"/>
<path d="M534.049 197.507L532.496 195.378C532.404 195.254 532.267 195.17 532.112 195.141C531.957 195.112 531.797 195.142 531.664 195.223L529.366 196.718C529.237 196.806 529.148 196.938 529.117 197.087C529.086 197.236 529.116 197.39 529.2 197.519L530.623 199.625C530.711 199.751 530.846 199.839 530.999 199.872C531.153 199.905 531.313 199.88 531.449 199.803L533.876 198.332C533.944 198.289 534.002 198.233 534.048 198.168C534.093 198.103 534.125 198.031 534.141 197.954C534.157 197.877 534.157 197.798 534.141 197.722C534.125 197.645 534.094 197.572 534.049 197.507Z" fill="#464A5F"/>
<path d="M529.662 200.432L528.091 198.308C527.998 198.184 527.859 198.1 527.703 198.072C527.546 198.044 527.385 198.076 527.253 198.16L525.01 199.643C524.88 199.729 524.789 199.861 524.757 200.01C524.725 200.159 524.754 200.314 524.837 200.444L526.261 202.55C526.349 202.677 526.484 202.766 526.639 202.799C526.794 202.832 526.957 202.807 527.092 202.727L529.52 201.262C529.586 201.217 529.642 201.159 529.685 201.093C529.728 201.026 529.757 200.953 529.77 200.875C529.784 200.798 529.781 200.719 529.762 200.643C529.743 200.567 529.709 200.495 529.662 200.432Z" fill="#464A5F"/>
<path d="M525.269 203.356L523.716 201.227C523.623 201.104 523.485 201.021 523.331 200.993C523.176 200.966 523.016 200.996 522.884 201.078L520.586 202.567C520.457 202.655 520.368 202.787 520.337 202.936C520.306 203.085 520.336 203.24 520.42 203.368L521.843 205.474C521.931 205.6 522.065 205.688 522.219 205.721C522.372 205.754 522.533 205.73 522.668 205.652L525.096 204.187C525.165 204.144 525.224 204.088 525.27 204.023C525.315 203.957 525.347 203.884 525.363 203.806C525.379 203.729 525.379 203.649 525.363 203.572C525.347 203.495 525.315 203.422 525.269 203.356Z" fill="#464A5F"/>
<path d="M521.079 206.548L519.15 203.902C519.129 203.872 519.102 203.847 519.071 203.827C519.04 203.808 519.005 203.794 518.968 203.788C518.932 203.781 518.894 203.782 518.858 203.789C518.821 203.796 518.787 203.811 518.756 203.831L515.934 205.664C515.873 205.704 515.83 205.765 515.815 205.835C515.8 205.905 515.814 205.978 515.854 206.038L517.622 208.66C517.643 208.69 517.669 208.716 517.7 208.736C517.731 208.756 517.766 208.77 517.803 208.777C517.839 208.785 517.877 208.785 517.914 208.778C517.951 208.771 517.985 208.757 518.017 208.737L520.993 206.957C521.029 206.938 521.06 206.912 521.085 206.88C521.11 206.848 521.127 206.811 521.135 206.772C521.143 206.733 521.142 206.693 521.133 206.654C521.123 206.615 521.105 206.579 521.079 206.548Z" fill="#464A5F"/>
<path d="M517.191 209.14L515.262 206.494C515.242 206.465 515.216 206.44 515.185 206.42C515.154 206.401 515.12 206.387 515.084 206.381C515.048 206.374 515.01 206.374 514.975 206.382C514.939 206.389 514.904 206.403 514.874 206.423L512.071 208.25C512.009 208.291 511.966 208.354 511.951 208.425C511.936 208.495 511.95 208.569 511.991 208.63L513.759 211.246C513.8 211.305 513.864 211.347 513.936 211.362C514.008 211.377 514.084 211.366 514.147 211.329L517.129 209.55C517.164 209.528 517.193 209.5 517.215 209.468C517.237 209.435 517.252 209.397 517.258 209.358C517.263 209.32 517.26 209.28 517.249 209.242C517.237 209.205 517.218 209.17 517.191 209.14Z" fill="#464A5F"/>
<path d="M512.841 212.041L510.912 209.389C510.868 209.332 510.802 209.293 510.729 209.281C510.655 209.268 510.58 209.284 510.518 209.324L507.702 211.151C507.64 211.192 507.597 211.255 507.582 211.325C507.568 211.396 507.582 211.47 507.622 211.531L509.39 214.147C509.431 214.207 509.494 214.25 509.567 214.265C509.639 214.281 509.716 214.268 509.779 214.23L512.761 212.45C512.797 212.431 512.828 212.404 512.852 212.372C512.875 212.339 512.892 212.303 512.899 212.264C512.907 212.225 512.906 212.185 512.896 212.146C512.886 212.108 512.867 212.072 512.841 212.041Z" fill="#464A5F"/>
<path d="M508.626 214.847L506.698 212.201C506.677 212.172 506.65 212.146 506.619 212.127C506.587 212.107 506.553 212.094 506.516 212.087C506.479 212.08 506.442 212.081 506.405 212.088C506.369 212.096 506.334 212.11 506.303 212.13L503.488 213.963C503.457 213.982 503.43 214.007 503.409 214.037C503.388 214.066 503.373 214.099 503.366 214.134C503.358 214.169 503.358 214.205 503.365 214.239C503.373 214.274 503.387 214.307 503.408 214.337L505.176 216.959C505.196 216.989 505.222 217.015 505.252 217.035C505.283 217.055 505.317 217.069 505.353 217.076C505.389 217.083 505.427 217.083 505.463 217.077C505.499 217.07 505.533 217.056 505.564 217.036L508.546 215.256C508.581 215.236 508.611 215.209 508.635 215.177C508.658 215.144 508.674 215.108 508.682 215.069C508.689 215.03 508.688 214.991 508.679 214.952C508.669 214.914 508.651 214.878 508.626 214.847Z" fill="#464A5F"/>
<path d="M507.302 221.675L505.373 219.023C505.329 218.966 505.263 218.927 505.19 218.915C505.116 218.902 505.041 218.918 504.979 218.958L502.157 220.785C502.095 220.826 502.052 220.889 502.037 220.959C502.022 221.03 502.036 221.104 502.077 221.165L503.845 223.781C503.887 223.84 503.95 223.881 504.022 223.897C504.094 223.912 504.17 223.9 504.233 223.864L507.215 222.084C507.253 222.066 507.285 222.04 507.31 222.008C507.335 221.976 507.353 221.939 507.361 221.9C507.369 221.86 507.368 221.82 507.358 221.781C507.348 221.742 507.329 221.706 507.302 221.675Z" fill="#464A5F"/>
<path d="M503.087 224.481L501.159 221.835C501.138 221.806 501.111 221.78 501.08 221.761C501.048 221.741 501.014 221.727 500.977 221.721C500.94 221.714 500.903 221.715 500.866 221.722C500.83 221.729 500.795 221.744 500.764 221.764L497.942 223.597C497.881 223.637 497.838 223.698 497.823 223.768C497.808 223.838 497.822 223.911 497.862 223.971L499.631 226.587C499.651 226.618 499.677 226.644 499.708 226.665C499.738 226.685 499.773 226.7 499.81 226.708C499.846 226.716 499.884 226.716 499.921 226.71C499.958 226.703 499.994 226.69 500.025 226.67L503.001 224.89C503.038 224.872 503.071 224.846 503.096 224.814C503.121 224.782 503.138 224.745 503.147 224.706C503.155 224.666 503.154 224.626 503.144 224.587C503.133 224.548 503.114 224.512 503.087 224.481Z" fill="#464A5F"/>
<path d="M509.699 207.675L507.881 205.178C507.823 205.1 507.735 205.047 507.638 205.031C507.54 205.014 507.439 205.035 507.357 205.089L504.677 206.815C504.594 206.869 504.537 206.952 504.518 207.046C504.498 207.141 504.518 207.238 504.572 207.319L506.236 209.787C506.291 209.867 506.377 209.923 506.475 209.943C506.573 209.963 506.675 209.945 506.759 209.894L509.569 208.191C509.614 208.167 509.654 208.134 509.685 208.094C509.716 208.054 509.739 208.009 509.751 207.96C509.763 207.912 509.765 207.861 509.756 207.812C509.747 207.763 509.727 207.716 509.699 207.675Z" fill="#464A5F"/>
<path d="M505.484 210.481L503.666 207.989C503.639 207.95 503.603 207.916 503.561 207.89C503.52 207.864 503.474 207.846 503.425 207.837C503.376 207.828 503.326 207.829 503.278 207.839C503.229 207.849 503.183 207.867 503.143 207.894L500.481 209.627C500.399 209.68 500.342 209.762 500.322 209.855C500.303 209.948 500.322 210.045 500.376 210.125L502.04 212.593C502.095 212.673 502.181 212.729 502.278 212.75C502.376 212.771 502.478 212.755 502.563 212.705L505.379 211.003C505.422 210.975 505.459 210.94 505.487 210.899C505.515 210.858 505.535 210.812 505.545 210.763C505.555 210.714 505.554 210.665 505.544 210.616C505.533 210.568 505.513 210.522 505.484 210.481Z" fill="#464A5F"/>
<path d="M501.27 213.293L499.421 210.795C499.364 210.718 499.278 210.666 499.181 210.649C499.084 210.633 498.985 210.653 498.904 210.706L496.236 212.433C496.153 212.487 496.096 212.57 496.077 212.664C496.057 212.758 496.076 212.856 496.131 212.937L497.794 215.405C497.85 215.485 497.936 215.541 498.034 215.561C498.132 215.581 498.234 215.563 498.318 215.511L501.134 213.809C501.18 213.785 501.22 213.752 501.252 213.713C501.284 213.673 501.307 213.628 501.319 213.579C501.332 213.531 501.334 213.48 501.326 213.431C501.317 213.382 501.298 213.335 501.27 213.293Z" fill="#464A5F"/>
<path d="M497.117 216.182L495.188 213.53C495.144 213.472 495.078 213.433 495.005 213.421C494.931 213.409 494.856 213.425 494.794 213.465L491.972 215.292C491.911 215.334 491.869 215.397 491.856 215.467C491.842 215.538 491.857 215.611 491.898 215.672L493.666 218.288C493.707 218.348 493.77 218.39 493.843 218.406C493.915 218.421 493.991 218.409 494.054 218.371L497.037 216.591C497.072 216.572 497.103 216.545 497.127 216.512C497.151 216.48 497.168 216.443 497.175 216.404C497.183 216.365 497.182 216.325 497.171 216.287C497.161 216.248 497.143 216.213 497.117 216.182Z" fill="#464A5F"/>
<path d="M546.988 188.816L545.343 186.527C545.249 186.404 545.109 186.32 544.953 186.294C544.797 186.267 544.637 186.3 544.505 186.384L537.949 190.78C537.823 190.868 537.736 191 537.706 191.147C537.676 191.295 537.706 191.448 537.789 191.575L539.366 193.912C539.411 193.977 539.469 194.032 539.537 194.076C539.605 194.119 539.68 194.149 539.76 194.163C539.839 194.178 539.921 194.178 540.001 194.162C540.08 194.147 540.155 194.116 540.223 194.072L546.834 189.617C546.961 189.528 547.048 189.395 547.076 189.246C547.105 189.097 547.073 188.944 546.988 188.816Z" fill="#464A5F"/>
<path d="M504.4 217.57L502.354 214.788C502.333 214.758 502.306 214.732 502.275 214.713C502.243 214.693 502.208 214.68 502.171 214.674C502.135 214.668 502.097 214.669 502.06 214.677C502.024 214.686 501.99 214.701 501.96 214.722L494.923 219.468C494.863 219.509 494.821 219.571 494.807 219.641C494.794 219.71 494.809 219.783 494.849 219.842L496.778 222.701C496.798 222.732 496.825 222.759 496.857 222.78C496.888 222.8 496.924 222.815 496.961 222.822C496.998 222.829 497.037 222.829 497.074 222.821C497.112 222.814 497.147 222.799 497.178 222.778L504.332 217.956C504.393 217.913 504.435 217.848 504.448 217.776C504.46 217.704 504.443 217.63 504.4 217.57Z" fill="#464A5F"/>
<path d="M526.784 196.291L524.936 193.651C524.893 193.592 524.829 193.55 524.755 193.536C524.681 193.522 524.605 193.535 524.542 193.574L508.922 203.718C508.891 203.737 508.864 203.762 508.844 203.792C508.823 203.821 508.808 203.854 508.801 203.889C508.793 203.924 508.793 203.96 508.8 203.994C508.807 204.029 508.821 204.062 508.842 204.092L510.765 206.939C510.785 206.97 510.812 206.997 510.843 207.018C510.875 207.038 510.91 207.053 510.948 207.06C510.985 207.067 511.024 207.067 511.061 207.06C511.098 207.052 511.134 207.037 511.165 207.016L526.741 196.671C526.799 196.625 526.835 196.56 526.843 196.489C526.851 196.418 526.83 196.347 526.784 196.291Z" fill="#464A5F"/>
<path opacity="0.1" d="M526.858 187.227L518.553 175.605C518.323 175.283 517.97 175.06 517.57 174.987C517.171 174.914 516.758 174.995 516.421 175.214L493.543 190.003C493.375 190.113 493.23 190.253 493.118 190.417C493.006 190.58 492.929 190.763 492.891 190.956C492.852 191.148 492.854 191.346 492.895 191.537C492.936 191.729 493.016 191.911 493.13 192.073L501.596 204.027C501.71 204.189 501.856 204.328 502.026 204.436C502.196 204.543 502.387 204.618 502.587 204.654C502.787 204.69 502.992 204.688 503.191 204.648C503.39 204.607 503.579 204.529 503.747 204.418L526.464 189.285C526.631 189.175 526.773 189.035 526.883 188.872C526.993 188.708 527.069 188.526 527.105 188.335C527.142 188.144 527.139 187.947 527.097 187.757C527.054 187.567 526.973 187.387 526.858 187.227Z" fill="black"/>
<path d="M527.24 187.298L518.935 175.677C518.704 175.355 518.351 175.134 517.952 175.06C517.553 174.987 517.14 175.068 516.803 175.285L493.956 190.086C493.786 190.195 493.641 190.335 493.528 190.498C493.415 190.661 493.336 190.844 493.297 191.037C493.259 191.23 493.26 191.428 493.301 191.62C493.342 191.812 493.422 191.994 493.537 192.156L501.978 204.098C502.092 204.26 502.238 204.399 502.408 204.507C502.578 204.615 502.769 204.689 502.969 204.725C503.169 204.762 503.374 204.76 503.573 204.719C503.772 204.679 503.961 204.601 504.129 204.489L526.858 189.356C527.024 189.245 527.165 189.104 527.274 188.941C527.383 188.777 527.457 188.595 527.493 188.403C527.528 188.212 527.524 188.016 527.481 187.826C527.438 187.637 527.356 187.457 527.24 187.298Z" fill="#939498"/>
<path d="M578.744 206.079L561.122 200.42L504.603 238.22L522.095 243.707C522.567 243.855 523.068 243.896 523.559 243.826C524.05 243.756 524.517 243.577 524.924 243.304L578.905 207.165C579.01 207.105 579.094 207.017 579.147 206.911C579.2 206.805 579.219 206.687 579.201 206.57C579.184 206.454 579.132 206.345 579.05 206.258C578.969 206.171 578.862 206.108 578.744 206.079Z" fill="#021E39"/>
</g>
<defs>
<clipPath id="clip0_2_19">
<rect width="668" height="450" fill="white"/>
</clipPath>
</defs>
</svg>
